<?xml version="1.0" encoding="UTF-8" standalone="no"?>
<!DOCTYPE svg PUBLIC "-//W3C//DTD SVG 1.1//EN"
 "http://www.w3.org/Graphics/SVG/1.1/DTD/svg11.dtd">
<!-- Generated by graphviz version 2.44.1 (20200629.0846)
 -->
<!-- Title: G Pages: 1 -->
<svg width="4037pt" height="879pt"
 viewBox="0.00 0.00 4037.20 878.82" xmlns="http://www.w3.org/2000/svg" xmlns:xlink="http://www.w3.org/1999/xlink">
<g id="graph0" class="graph" transform="scale(1 1) rotate(0) translate(21.6 857.22)">
<title>G</title>
<polygon fill="#111111" stroke="transparent" points="-21.6,21.6 -21.6,-857.22 4015.6,-857.22 4015.6,21.6 -21.6,21.6"/>
<!-- ../../core/dist/index.d.ts -->
<g id="node1" class="node">
<title>../../core/dist/index.d.ts</title>
<path fill="none" stroke="#c6c5fe" d="M3363.67,-343.9C3363.67,-343.9 3258.33,-343.9 3258.33,-343.9 3255.17,-343.9 3252,-340.74 3252,-337.57 3252,-337.57 3252,-331.24 3252,-331.24 3252,-328.07 3255.17,-324.9 3258.33,-324.9 3258.33,-324.9 3363.67,-324.9 3363.67,-324.9 3366.83,-324.9 3370,-328.07 3370,-331.24 3370,-331.24 3370,-337.57 3370,-337.57 3370,-340.74 3366.83,-343.9 3363.67,-343.9"/>
<text text-anchor="middle" x="3311" y="-331.9" font-family="Arial" font-size="10.00" fill="#c6c5fe">../../core/dist/index.d.ts</text>
</g>
<!-- ../../core/dist/now.d.ts -->
<g id="node2" class="node">
<title>../../core/dist/now.d.ts</title>
<path fill="none" stroke="#cfffac" d="M3666.17,-362.9C3666.17,-362.9 3566.83,-362.9 3566.83,-362.9 3563.67,-362.9 3560.5,-359.74 3560.5,-356.57 3560.5,-356.57 3560.5,-350.24 3560.5,-350.24 3560.5,-347.07 3563.67,-343.9 3566.83,-343.9 3566.83,-343.9 3666.17,-343.9 3666.17,-343.9 3669.33,-343.9 3672.5,-347.07 3672.5,-350.24 3672.5,-350.24 3672.5,-356.57 3672.5,-356.57 3672.5,-359.74 3669.33,-362.9 3666.17,-362.9"/>
<text text-anchor="middle" x="3616.5" y="-350.9" font-family="Arial" font-size="10.00" fill="#cfffac">../../core/dist/now.d.ts</text>
</g>
<!-- ../../core/dist/index.d.ts&#45;&gt;../../core/dist/now.d.ts -->
<g id="edge1" class="edge">
<title>../../core/dist/index.d.ts&#45;&gt;../../core/dist/now.d.ts</title>
<path fill="none" stroke="#757575" d="M3370.16,-338.04C3421.66,-341.27 3496.76,-345.97 3550.28,-349.32"/>
<polygon fill="#757575" stroke="#757575" points="3550.15,-352.82 3560.35,-349.95 3550.59,-345.83 3550.15,-352.82"/>
</g>
<!-- ../../core/dist/vector2.d.ts -->
<g id="node3" class="node">
<title>../../core/dist/vector2.d.ts</title>
<path fill="none" stroke="#cfffac" d="M3673.67,-325.9C3673.67,-325.9 3559.33,-325.9 3559.33,-325.9 3556.17,-325.9 3553,-322.74 3553,-319.57 3553,-319.57 3553,-313.24 3553,-313.24 3553,-310.07 3556.17,-306.9 3559.33,-306.9 3559.33,-306.9 3673.67,-306.9 3673.67,-306.9 3676.83,-306.9 3680,-310.07 3680,-313.24 3680,-313.24 3680,-319.57 3680,-319.57 3680,-322.74 3676.83,-325.9 3673.67,-325.9"/>
<text text-anchor="middle" x="3616.5" y="-313.9" font-family="Arial" font-size="10.00" fill="#cfffac">../../core/dist/vector2.d.ts</text>
</g>
<!-- ../../core/dist/index.d.ts&#45;&gt;../../core/dist/vector2.d.ts -->
<g id="edge2" class="edge">
<title>../../core/dist/index.d.ts&#45;&gt;../../core/dist/vector2.d.ts</title>
<path fill="none" stroke="#757575" d="M3370.16,-330.95C3419.32,-328.04 3489.97,-323.85 3542.84,-320.71"/>
<polygon fill="#757575" stroke="#757575" points="3543.06,-324.21 3552.83,-320.12 3542.64,-317.22 3543.06,-324.21"/>
</g>
<!-- ../../network/dist/client&#45;connection.d.ts -->
<g id="node4" class="node">
<title>../../network/dist/client&#45;connection.d.ts</title>
<path fill="none" stroke="#c6c5fe" d="M2896.17,-788.9C2896.17,-788.9 2724.83,-788.9 2724.83,-788.9 2721.67,-788.9 2718.5,-785.74 2718.5,-782.57 2718.5,-782.57 2718.5,-776.24 2718.5,-776.24 2718.5,-773.07 2721.67,-769.9 2724.83,-769.9 2724.83,-769.9 2896.17,-769.9 2896.17,-769.9 2899.33,-769.9 2902.5,-773.07 2902.5,-776.24 2902.5,-776.24 2902.5,-782.57 2902.5,-782.57 2902.5,-785.74 2899.33,-788.9 2896.17,-788.9"/>
<text text-anchor="middle" x="2810.5" y="-776.9" font-family="Arial" font-size="10.00" fill="#c6c5fe">../../network/dist/client&#45;connection.d.ts</text>
</g>
<!-- ../../network/dist/messages/index.d.ts -->
<g id="node5" class="node">
<title>../../network/dist/messages/index.d.ts</title>
<path fill="none" stroke="#c6c5fe" d="M3115.67,-731.9C3115.67,-731.9 2946.33,-731.9 2946.33,-731.9 2943.17,-731.9 2940,-728.74 2940,-725.57 2940,-725.57 2940,-719.24 2940,-719.24 2940,-716.07 2943.17,-712.9 2946.33,-712.9 2946.33,-712.9 3115.67,-712.9 3115.67,-712.9 3118.83,-712.9 3122,-716.07 3122,-719.24 3122,-719.24 3122,-725.57 3122,-725.57 3122,-728.74 3118.83,-731.9 3115.67,-731.9"/>
<text text-anchor="middle" x="3031" y="-719.9" font-family="Arial" font-size="10.00" fill="#c6c5fe">../../network/dist/messages/index.d.ts</text>
</g>
<!-- ../../network/dist/client&#45;connection.d.ts&#45;&gt;../../network/dist/messages/index.d.ts -->
<g id="edge3" class="edge">
<title>../../network/dist/client&#45;connection.d.ts&#45;&gt;../../network/dist/messages/index.d.ts</title>
<path fill="none" stroke="#757575" d="M2848.07,-769.86C2885.25,-760.16 2942.99,-745.1 2983.43,-734.55"/>
<polygon fill="#757575" stroke="#757575" points="2984.52,-737.89 2993.31,-731.97 2982.75,-731.11 2984.52,-737.89"/>
</g>
<!-- ../../network/dist/messages/ClientAcknowledgementMessage.d.ts -->
<g id="node11" class="node">
<title>../../network/dist/messages/ClientAcknowledgementMessage.d.ts</title>
<path fill="none" stroke="#c6c5fe" d="M3456.67,-620.9C3456.67,-620.9 3165.33,-620.9 3165.33,-620.9 3162.17,-620.9 3159,-617.74 3159,-614.57 3159,-614.57 3159,-608.24 3159,-608.24 3159,-605.07 3162.17,-601.9 3165.33,-601.9 3165.33,-601.9 3456.67,-601.9 3456.67,-601.9 3459.83,-601.9 3463,-605.07 3463,-608.24 3463,-608.24 3463,-614.57 3463,-614.57 3463,-617.74 3459.83,-620.9 3456.67,-620.9"/>
<text text-anchor="middle" x="3311" y="-608.9" font-family="Arial" font-size="10.00" fill="#c6c5fe">../../network/dist/messages/ClientAcknowledgementMessage.d.ts</text>
</g>
<!-- ../../network/dist/messages/index.d.ts&#45;&gt;../../network/dist/messages/ClientAcknowledgementMessage.d.ts -->
<g id="edge16" class="edge">
<title>../../network/dist/messages/index.d.ts&#45;&gt;../../network/dist/messages/ClientAcknowledgementMessage.d.ts</title>
<path fill="none" stroke="#757575" d="M3041.48,-712.84C3061.29,-693.52 3109.37,-650 3159,-630.4 3165.67,-627.77 3172.63,-625.48 3179.74,-623.49"/>
<polygon fill="#757575" stroke="#757575" points="3180.7,-626.86 3189.5,-620.96 3178.95,-620.08 3180.7,-626.86"/>
</g>
<!-- ../../network/dist/messages/NetworkMessage.d.ts -->
<g id="node12" class="node">
<title>../../network/dist/messages/NetworkMessage.d.ts</title>
<path fill="none" stroke="#c6c5fe" d="M3727.67,-731.9C3727.67,-731.9 3505.33,-731.9 3505.33,-731.9 3502.17,-731.9 3499,-728.74 3499,-725.57 3499,-725.57 3499,-719.24 3499,-719.24 3499,-716.07 3502.17,-712.9 3505.33,-712.9 3505.33,-712.9 3727.67,-712.9 3727.67,-712.9 3730.83,-712.9 3734,-716.07 3734,-719.24 3734,-719.24 3734,-725.57 3734,-725.57 3734,-728.74 3730.83,-731.9 3727.67,-731.9"/>
<text text-anchor="middle" x="3616.5" y="-719.9" font-family="Arial" font-size="10.00" fill="#c6c5fe">../../network/dist/messages/NetworkMessage.d.ts</text>
</g>
<!-- ../../network/dist/messages/index.d.ts&#45;&gt;../../network/dist/messages/NetworkMessage.d.ts -->
<g id="edge21" class="edge">
<title>../../network/dist/messages/index.d.ts&#45;&gt;../../network/dist/messages/NetworkMessage.d.ts</title>
<path fill="none" stroke="#757575" d="M3047.71,-731.91C3071.01,-745.41 3116.56,-769.46 3159,-778.4 3291.21,-806.26 3329.98,-802.05 3463,-778.4 3507.91,-770.42 3556.93,-750.17 3586.96,-736.35"/>
<polygon fill="#757575" stroke="#757575" points="3588.81,-739.34 3596.37,-731.93 3585.83,-733.01 3588.81,-739.34"/>
</g>
<!-- ../../network/dist/messages/ClientConnectedMessage.d.ts -->
<g id="node13" class="node">
<title>../../network/dist/messages/ClientConnectedMessage.d.ts</title>
<path fill="none" stroke="#c6c5fe" d="M3440.17,-768.9C3440.17,-768.9 3181.83,-768.9 3181.83,-768.9 3178.67,-768.9 3175.5,-765.74 3175.5,-762.57 3175.5,-762.57 3175.5,-756.24 3175.5,-756.24 3175.5,-753.07 3178.67,-749.9 3181.83,-749.9 3181.83,-749.9 3440.17,-749.9 3440.17,-749.9 3443.33,-749.9 3446.5,-753.07 3446.5,-756.24 3446.5,-756.24 3446.5,-762.57 3446.5,-762.57 3446.5,-765.74 3443.33,-768.9 3440.17,-768.9"/>
<text text-anchor="middle" x="3311" y="-756.9" font-family="Arial" font-size="10.00" fill="#c6c5fe">../../network/dist/messages/ClientConnectedMessage.d.ts</text>
</g>
<!-- ../../network/dist/messages/index.d.ts&#45;&gt;../../network/dist/messages/ClientConnectedMessage.d.ts -->
<g id="edge17" class="edge">
<title>../../network/dist/messages/index.d.ts&#45;&gt;../../network/dist/messages/ClientConnectedMessage.d.ts</title>
<path fill="none" stroke="#757575" d="M3092.99,-731.91C3113.9,-735.06 3137.46,-738.51 3159,-741.4 3177.52,-743.89 3197.34,-746.38 3216.33,-748.68"/>
<polygon fill="#757575" stroke="#757575" points="3216.13,-752.18 3226.47,-749.9 3216.96,-745.23 3216.13,-752.18"/>
</g>
<!-- ../../network/dist/messages/ClientDisconnectedMessage.d.ts -->
<g id="node14" class="node">
<title>../../network/dist/messages/ClientDisconnectedMessage.d.ts</title>
<path fill="none" stroke="#c6c5fe" d="M3446.67,-731.9C3446.67,-731.9 3175.33,-731.9 3175.33,-731.9 3172.17,-731.9 3169,-728.74 3169,-725.57 3169,-725.57 3169,-719.24 3169,-719.24 3169,-716.07 3172.17,-712.9 3175.33,-712.9 3175.33,-712.9 3446.67,-712.9 3446.67,-712.9 3449.83,-712.9 3453,-716.07 3453,-719.24 3453,-719.24 3453,-725.57 3453,-725.57 3453,-728.74 3449.83,-731.9 3446.67,-731.9"/>
<text text-anchor="middle" x="3311" y="-719.9" font-family="Arial" font-size="10.00" fill="#c6c5fe">../../network/dist/messages/ClientDisconnectedMessage.d.ts</text>
</g>
<!-- ../../network/dist/messages/index.d.ts&#45;&gt;../../network/dist/messages/ClientDisconnectedMessage.d.ts -->
<g id="edge18" class="edge">
<title>../../network/dist/messages/index.d.ts&#45;&gt;../../network/dist/messages/ClientDisconnectedMessage.d.ts</title>
<path fill="none" stroke="#757575" d="M3122.26,-722.4C3134.08,-722.4 3146.44,-722.4 3158.93,-722.4"/>
<polygon fill="#757575" stroke="#757575" points="3158.97,-725.9 3168.97,-722.4 3158.97,-718.9 3158.97,-725.9"/>
</g>
<!-- ../../network/dist/messages/ConnectionHandshakeMessage.d.ts -->
<g id="node15" class="node">
<title>../../network/dist/messages/ConnectionHandshakeMessage.d.ts</title>
<path fill="none" stroke="#c6c5fe" d="M3453.17,-694.9C3453.17,-694.9 3168.83,-694.9 3168.83,-694.9 3165.67,-694.9 3162.5,-691.74 3162.5,-688.57 3162.5,-688.57 3162.5,-682.24 3162.5,-682.24 3162.5,-679.07 3165.67,-675.9 3168.83,-675.9 3168.83,-675.9 3453.17,-675.9 3453.17,-675.9 3456.33,-675.9 3459.5,-679.07 3459.5,-682.24 3459.5,-682.24 3459.5,-688.57 3459.5,-688.57 3459.5,-691.74 3456.33,-694.9 3453.17,-694.9"/>
<text text-anchor="middle" x="3311" y="-682.9" font-family="Arial" font-size="10.00" fill="#c6c5fe">../../network/dist/messages/ConnectionHandshakeMessage.d.ts</text>
</g>
<!-- ../../network/dist/messages/index.d.ts&#45;&gt;../../network/dist/messages/ConnectionHandshakeMessage.d.ts -->
<g id="edge19" class="edge">
<title>../../network/dist/messages/index.d.ts&#45;&gt;../../network/dist/messages/ConnectionHandshakeMessage.d.ts</title>
<path fill="none" stroke="#757575" d="M3097.89,-712.86C3117.54,-710.07 3139.13,-707.06 3159,-704.4 3179.48,-701.66 3201.54,-698.82 3222.3,-696.2"/>
<polygon fill="#757575" stroke="#757575" points="3222.89,-699.66 3232.38,-694.93 3222.02,-692.71 3222.89,-699.66"/>
</g>
<!-- ../../network/dist/messages/MessageTypes.d.ts -->
<g id="node16" class="node">
<title>../../network/dist/messages/MessageTypes.d.ts</title>
<path fill="none" stroke="#cfffac" d="M3987.67,-787.9C3987.67,-787.9 3776.33,-787.9 3776.33,-787.9 3773.17,-787.9 3770,-784.74 3770,-781.57 3770,-781.57 3770,-775.24 3770,-775.24 3770,-772.07 3773.17,-768.9 3776.33,-768.9 3776.33,-768.9 3987.67,-768.9 3987.67,-768.9 3990.83,-768.9 3994,-772.07 3994,-775.24 3994,-775.24 3994,-781.57 3994,-781.57 3994,-784.74 3990.83,-787.9 3987.67,-787.9"/>
<text text-anchor="middle" x="3882" y="-775.9" font-family="Arial" font-size="10.00" fill="#cfffac">../../network/dist/messages/MessageTypes.d.ts</text>
</g>
<!-- ../../network/dist/messages/index.d.ts&#45;&gt;../../network/dist/messages/MessageTypes.d.ts -->
<g id="edge20" class="edge">
<title>../../network/dist/messages/index.d.ts&#45;&gt;../../network/dist/messages/MessageTypes.d.ts</title>
<path fill="none" stroke="#757575" d="M3042.86,-732.18C3063.59,-750.12 3111.06,-787.71 3159,-801.4 3403.01,-871.1 3712.37,-816.25 3831.32,-790.19"/>
<polygon fill="#757575" stroke="#757575" points="3832.22,-793.58 3841.22,-787.99 3830.7,-786.74 3832.22,-793.58"/>
</g>
<!-- ../../network/dist/messages/ServerStateUpdateMessage.d.ts -->
<g id="node17" class="node">
<title>../../network/dist/messages/ServerStateUpdateMessage.d.ts</title>
<path fill="none" stroke="#c6c5fe" d="M3445.17,-657.9C3445.17,-657.9 3176.83,-657.9 3176.83,-657.9 3173.67,-657.9 3170.5,-654.74 3170.5,-651.57 3170.5,-651.57 3170.5,-645.24 3170.5,-645.24 3170.5,-642.07 3173.67,-638.9 3176.83,-638.9 3176.83,-638.9 3445.17,-638.9 3445.17,-638.9 3448.33,-638.9 3451.5,-642.07 3451.5,-645.24 3451.5,-645.24 3451.5,-651.57 3451.5,-651.57 3451.5,-654.74 3448.33,-657.9 3445.17,-657.9"/>
<text text-anchor="middle" x="3311" y="-645.9" font-family="Arial" font-size="10.00" fill="#c6c5fe">../../network/dist/messages/ServerStateUpdateMessage.d.ts</text>
</g>
<!-- ../../network/dist/messages/index.d.ts&#45;&gt;../../network/dist/messages/ServerStateUpdateMessage.d.ts -->
<g id="edge22" class="edge">
<title>../../network/dist/messages/index.d.ts&#45;&gt;../../network/dist/messages/ServerStateUpdateMessage.d.ts</title>
<path fill="none" stroke="#757575" d="M3049.92,-712.7C3073.99,-700.12 3118.44,-678.49 3159,-667.4 3170.15,-664.35 3181.9,-661.79 3193.72,-659.64"/>
<polygon fill="#757575" stroke="#757575" points="3194.39,-663.08 3203.65,-657.93 3193.2,-656.18 3194.39,-663.08"/>
</g>
<!-- ../../network/dist/client.d.ts -->
<g id="node6" class="node">
<title>../../network/dist/client.d.ts</title>
<path fill="none" stroke="#c6c5fe" d="M2651.67,-599.9C2651.67,-599.9 2530.33,-599.9 2530.33,-599.9 2527.17,-599.9 2524,-596.74 2524,-593.57 2524,-593.57 2524,-587.24 2524,-587.24 2524,-584.07 2527.17,-580.9 2530.33,-580.9 2530.33,-580.9 2651.67,-580.9 2651.67,-580.9 2654.83,-580.9 2658,-584.07 2658,-587.24 2658,-587.24 2658,-593.57 2658,-593.57 2658,-596.74 2654.83,-599.9 2651.67,-599.9"/>
<text text-anchor="middle" x="2591" y="-587.9" font-family="Arial" font-size="10.00" fill="#c6c5fe">../../network/dist/client.d.ts</text>
</g>
<!-- ../../network/dist/client.d.ts&#45;&gt;../../network/dist/messages/index.d.ts -->
<g id="edge4" class="edge">
<title>../../network/dist/client.d.ts&#45;&gt;../../network/dist/messages/index.d.ts</title>
<path fill="none" stroke="#757575" d="M2658.2,-582.61C2723.14,-577.69 2823.67,-577.47 2903,-610.4 2952.28,-630.86 2995.51,-678.6 3016.51,-704.66"/>
<polygon fill="#757575" stroke="#757575" points="3013.82,-706.9 3022.75,-712.59 3019.32,-702.57 3013.82,-706.9"/>
</g>
<!-- ../../network/dist/common.d.ts -->
<g id="node7" class="node">
<title>../../network/dist/common.d.ts</title>
<path fill="none" stroke="#cfffac" d="M2658.67,-674.9C2658.67,-674.9 2523.33,-674.9 2523.33,-674.9 2520.17,-674.9 2517,-671.74 2517,-668.57 2517,-668.57 2517,-662.24 2517,-662.24 2517,-659.07 2520.17,-655.9 2523.33,-655.9 2523.33,-655.9 2658.67,-655.9 2658.67,-655.9 2661.83,-655.9 2665,-659.07 2665,-662.24 2665,-662.24 2665,-668.57 2665,-668.57 2665,-671.74 2661.83,-674.9 2658.67,-674.9"/>
<text text-anchor="middle" x="2591" y="-662.9" font-family="Arial" font-size="10.00" fill="#cfffac">../../network/dist/common.d.ts</text>
</g>
<!-- ../../network/dist/index.d.ts -->
<g id="node8" class="node">
<title>../../network/dist/index.d.ts</title>
<path fill="none" stroke="#c6c5fe" d="M2398.17,-674.9C2398.17,-674.9 2276.83,-674.9 2276.83,-674.9 2273.67,-674.9 2270.5,-671.74 2270.5,-668.57 2270.5,-668.57 2270.5,-662.24 2270.5,-662.24 2270.5,-659.07 2273.67,-655.9 2276.83,-655.9 2276.83,-655.9 2398.17,-655.9 2398.17,-655.9 2401.33,-655.9 2404.5,-659.07 2404.5,-662.24 2404.5,-662.24 2404.5,-668.57 2404.5,-668.57 2404.5,-671.74 2401.33,-674.9 2398.17,-674.9"/>
<text text-anchor="middle" x="2337.5" y="-662.9" font-family="Arial" font-size="10.00" fill="#c6c5fe">../../network/dist/index.d.ts</text>
</g>
<!-- ../../network/dist/index.d.ts&#45;&gt;../../network/dist/messages/index.d.ts -->
<g id="edge7" class="edge">
<title>../../network/dist/index.d.ts&#45;&gt;../../network/dist/messages/index.d.ts</title>
<path fill="none" stroke="#757575" d="M2404.82,-673.9C2433.99,-677.45 2468.66,-681.44 2500,-684.4 2649.47,-698.55 2823.1,-710.06 2929.76,-716.58"/>
<polygon fill="#757575" stroke="#757575" points="2929.68,-720.08 2939.87,-717.19 2930.1,-713.09 2929.68,-720.08"/>
</g>
<!-- ../../network/dist/index.d.ts&#45;&gt;../../network/dist/client.d.ts -->
<g id="edge5" class="edge">
<title>../../network/dist/index.d.ts&#45;&gt;../../network/dist/client.d.ts</title>
<path fill="none" stroke="#757575" d="M2363.68,-655.87C2395.23,-644.14 2451.09,-624.12 2500,-610.4 2510.5,-607.46 2521.79,-604.66 2532.7,-602.15"/>
<polygon fill="#757575" stroke="#757575" points="2533.6,-605.53 2542.58,-599.92 2532.06,-598.71 2533.6,-605.53"/>
</g>
<!-- ../../network/dist/index.d.ts&#45;&gt;../../network/dist/common.d.ts -->
<g id="edge6" class="edge">
<title>../../network/dist/index.d.ts&#45;&gt;../../network/dist/common.d.ts</title>
<path fill="none" stroke="#757575" d="M2404.58,-665.4C2435.84,-665.4 2473.5,-665.4 2506.69,-665.4"/>
<polygon fill="#757575" stroke="#757575" points="2506.84,-668.9 2516.84,-665.4 2506.84,-661.9 2506.84,-668.9"/>
</g>
<!-- ../../network/dist/payloads/index.d.ts -->
<g id="node9" class="node">
<title>../../network/dist/payloads/index.d.ts</title>
<path fill="none" stroke="#c6c5fe" d="M2672.67,-637.9C2672.67,-637.9 2509.33,-637.9 2509.33,-637.9 2506.17,-637.9 2503,-634.74 2503,-631.57 2503,-631.57 2503,-625.24 2503,-625.24 2503,-622.07 2506.17,-618.9 2509.33,-618.9 2509.33,-618.9 2672.67,-618.9 2672.67,-618.9 2675.83,-618.9 2679,-622.07 2679,-625.24 2679,-625.24 2679,-631.57 2679,-631.57 2679,-634.74 2675.83,-637.9 2672.67,-637.9"/>
<text text-anchor="middle" x="2591" y="-625.9" font-family="Arial" font-size="10.00" fill="#c6c5fe">../../network/dist/payloads/index.d.ts</text>
</g>
<!-- ../../network/dist/index.d.ts&#45;&gt;../../network/dist/payloads/index.d.ts -->
<g id="edge8" class="edge">
<title>../../network/dist/index.d.ts&#45;&gt;../../network/dist/payloads/index.d.ts</title>
<path fill="none" stroke="#757575" d="M2403.27,-655.87C2437.31,-650.87 2479.22,-644.7 2514.71,-639.48"/>
<polygon fill="#757575" stroke="#757575" points="2515.63,-642.88 2525.02,-637.96 2514.61,-635.96 2515.63,-642.88"/>
</g>
<!-- ../../network/dist/server.d.ts -->
<g id="node10" class="node">
<title>../../network/dist/server.d.ts</title>
<path fill="none" stroke="#c6c5fe" d="M2653.17,-750.9C2653.17,-750.9 2528.83,-750.9 2528.83,-750.9 2525.67,-750.9 2522.5,-747.74 2522.5,-744.57 2522.5,-744.57 2522.5,-738.24 2522.5,-738.24 2522.5,-735.07 2525.67,-731.9 2528.83,-731.9 2528.83,-731.9 2653.17,-731.9 2653.17,-731.9 2656.33,-731.9 2659.5,-735.07 2659.5,-738.24 2659.5,-738.24 2659.5,-744.57 2659.5,-744.57 2659.5,-747.74 2656.33,-750.9 2653.17,-750.9"/>
<text text-anchor="middle" x="2591" y="-738.9" font-family="Arial" font-size="10.00" fill="#c6c5fe">../../network/dist/server.d.ts</text>
</g>
<!-- ../../network/dist/index.d.ts&#45;&gt;../../network/dist/server.d.ts -->
<g id="edge9" class="edge">
<title>../../network/dist/index.d.ts&#45;&gt;../../network/dist/server.d.ts</title>
<path fill="none" stroke="#757575" d="M2366.66,-674.95C2398.79,-685.73 2452.95,-703.56 2500,-717.4 2513.86,-721.48 2529,-725.63 2542.85,-729.31"/>
<polygon fill="#757575" stroke="#757575" points="2542.1,-732.74 2552.66,-731.9 2543.88,-725.97 2542.1,-732.74"/>
</g>
<!-- ../../network/dist/payloads/env.d.ts -->
<g id="node18" class="node">
<title>../../network/dist/payloads/env.d.ts</title>
<path fill="none" stroke="#cfffac" d="M2887.67,-637.9C2887.67,-637.9 2733.33,-637.9 2733.33,-637.9 2730.17,-637.9 2727,-634.74 2727,-631.57 2727,-631.57 2727,-625.24 2727,-625.24 2727,-622.07 2730.17,-618.9 2733.33,-618.9 2733.33,-618.9 2887.67,-618.9 2887.67,-618.9 2890.83,-618.9 2894,-622.07 2894,-625.24 2894,-625.24 2894,-631.57 2894,-631.57 2894,-634.74 2890.83,-637.9 2887.67,-637.9"/>
<text text-anchor="middle" x="2810.5" y="-625.9" font-family="Arial" font-size="10.00" fill="#cfffac">../../network/dist/payloads/env.d.ts</text>
</g>
<!-- ../../network/dist/payloads/index.d.ts&#45;&gt;../../network/dist/payloads/env.d.ts -->
<g id="edge23" class="edge">
<title>../../network/dist/payloads/index.d.ts&#45;&gt;../../network/dist/payloads/env.d.ts</title>
<path fill="none" stroke="#757575" d="M2679.21,-628.4C2691.49,-628.4 2704.15,-628.4 2716.54,-628.4"/>
<polygon fill="#757575" stroke="#757575" points="2716.86,-631.9 2726.86,-628.4 2716.86,-624.9 2716.86,-631.9"/>
</g>
<!-- ../../network/dist/payloads/room.d.ts -->
<g id="node19" class="node">
<title>../../network/dist/payloads/room.d.ts</title>
<path fill="none" stroke="#cfffac" d="M2891.17,-674.9C2891.17,-674.9 2729.83,-674.9 2729.83,-674.9 2726.67,-674.9 2723.5,-671.74 2723.5,-668.57 2723.5,-668.57 2723.5,-662.24 2723.5,-662.24 2723.5,-659.07 2726.67,-655.9 2729.83,-655.9 2729.83,-655.9 2891.17,-655.9 2891.17,-655.9 2894.33,-655.9 2897.5,-659.07 2897.5,-662.24 2897.5,-662.24 2897.5,-668.57 2897.5,-668.57 2897.5,-671.74 2894.33,-674.9 2891.17,-674.9"/>
<text text-anchor="middle" x="2810.5" y="-662.9" font-family="Arial" font-size="10.00" fill="#cfffac">../../network/dist/payloads/room.d.ts</text>
</g>
<!-- ../../network/dist/payloads/index.d.ts&#45;&gt;../../network/dist/payloads/room.d.ts -->
<g id="edge24" class="edge">
<title>../../network/dist/payloads/index.d.ts&#45;&gt;../../network/dist/payloads/room.d.ts</title>
<path fill="none" stroke="#757575" d="M2648.01,-637.93C2677.07,-642.88 2712.77,-648.95 2743.2,-654.12"/>
<polygon fill="#757575" stroke="#757575" points="2742.86,-657.62 2753.3,-655.84 2744.03,-650.71 2742.86,-657.62"/>
</g>
<!-- ../../network/dist/server.d.ts&#45;&gt;../../network/dist/client&#45;connection.d.ts -->
<g id="edge25" class="edge">
<title>../../network/dist/server.d.ts&#45;&gt;../../network/dist/client&#45;connection.d.ts</title>
<path fill="none" stroke="#757575" d="M2646.6,-750.94C2676.47,-756.16 2713.64,-762.66 2744.94,-768.12"/>
<polygon fill="#757575" stroke="#757575" points="2744.42,-771.59 2754.87,-769.86 2745.63,-764.69 2744.42,-771.59"/>
</g>
<!-- ../../network/dist/server.d.ts&#45;&gt;../../network/dist/messages/index.d.ts -->
<g id="edge26" class="edge">
<title>../../network/dist/server.d.ts&#45;&gt;../../network/dist/messages/index.d.ts</title>
<path fill="none" stroke="#757575" d="M2659.96,-738.46C2732.15,-735.32 2847.05,-730.34 2929.67,-726.76"/>
<polygon fill="#757575" stroke="#757575" points="2930,-730.24 2939.84,-726.31 2929.69,-723.25 2930,-730.24"/>
</g>
<!-- ../../network/dist/messages/ClientAcknowledgementMessage.d.ts&#45;&gt;../../network/dist/messages/NetworkMessage.d.ts -->
<g id="edge10" class="edge">
<title>../../network/dist/messages/ClientAcknowledgementMessage.d.ts&#45;&gt;../../network/dist/messages/NetworkMessage.d.ts</title>
<path fill="none" stroke="#757575" d="M3427.75,-620.9C3439.82,-623.39 3451.77,-626.51 3463,-630.4 3514.66,-648.33 3567.73,-685.4 3595.6,-706.6"/>
<polygon fill="#757575" stroke="#757575" points="3593.68,-709.54 3603.73,-712.88 3597.96,-704 3593.68,-709.54"/>
</g>
<!-- ../../network/dist/messages/NetworkMessage.d.ts&#45;&gt;../../network/dist/messages/MessageTypes.d.ts -->
<g id="edge14" class="edge">
<title>../../network/dist/messages/NetworkMessage.d.ts&#45;&gt;../../network/dist/messages/MessageTypes.d.ts</title>
<path fill="none" stroke="#757575" d="M3662.5,-731.97C3707.78,-741.59 3777.68,-756.45 3826.18,-766.75"/>
<polygon fill="#757575" stroke="#757575" points="3825.68,-770.22 3836.19,-768.88 3827.13,-763.38 3825.68,-770.22"/>
</g>
<!-- ../../network/dist/messages/ClientConnectedMessage.d.ts&#45;&gt;../../network/dist/messages/NetworkMessage.d.ts -->
<g id="edge11" class="edge">
<title>../../network/dist/messages/ClientConnectedMessage.d.ts&#45;&gt;../../network/dist/messages/NetworkMessage.d.ts</title>
<path fill="none" stroke="#757575" d="M3392.73,-749.86C3415.46,-747.15 3440.2,-744.18 3463,-741.4 3484.61,-738.77 3507.93,-735.88 3529.68,-733.18"/>
<polygon fill="#757575" stroke="#757575" points="3530.39,-736.61 3539.88,-731.9 3529.53,-729.67 3530.39,-736.61"/>
</g>
<!-- ../../network/dist/messages/ClientDisconnectedMessage.d.ts&#45;&gt;../../network/dist/messages/NetworkMessage.d.ts -->
<g id="edge12" class="edge">
<title>../../network/dist/messages/ClientDisconnectedMessage.d.ts&#45;&gt;../../network/dist/messages/NetworkMessage.d.ts</title>
<path fill="none" stroke="#757575" d="M3453.09,-722.4C3464.94,-722.4 3476.88,-722.4 3488.62,-722.4"/>
<polygon fill="#757575" stroke="#757575" points="3488.87,-725.9 3498.87,-722.4 3488.87,-718.9 3488.87,-725.9"/>
</g>
<!-- ../../network/dist/messages/ConnectionHandshakeMessage.d.ts&#45;&gt;../../network/dist/messages/NetworkMessage.d.ts -->
<g id="edge13" class="edge">
<title>../../network/dist/messages/ConnectionHandshakeMessage.d.ts&#45;&gt;../../network/dist/messages/NetworkMessage.d.ts</title>
<path fill="none" stroke="#757575" d="M3390.16,-694.93C3432.12,-700.05 3483.98,-706.37 3527.37,-711.66"/>
<polygon fill="#757575" stroke="#757575" points="3526.99,-715.14 3537.34,-712.87 3527.84,-708.19 3526.99,-715.14"/>
</g>
<!-- ../../network/dist/messages/ServerStateUpdateMessage.d.ts&#45;&gt;../../network/dist/messages/NetworkMessage.d.ts -->
<g id="edge15" class="edge">
<title>../../network/dist/messages/ServerStateUpdateMessage.d.ts&#45;&gt;../../network/dist/messages/NetworkMessage.d.ts</title>
<path fill="none" stroke="#757575" d="M3412.87,-657.95C3429.73,-660.44 3446.94,-663.55 3463,-667.4 3506.22,-677.78 3554.14,-696.28 3584.52,-708.94"/>
<polygon fill="#757575" stroke="#757575" points="3583.17,-712.16 3593.74,-712.82 3585.89,-705.71 3583.17,-712.16"/>
</g>
<!-- ../../renderer/dist/canvas.d.ts -->
<g id="node20" class="node">
<title>../../renderer/dist/canvas.d.ts</title>
<path fill="none" stroke="#c6c5fe" d="M3096.17,-456.9C3096.17,-456.9 2965.83,-456.9 2965.83,-456.9 2962.67,-456.9 2959.5,-453.74 2959.5,-450.57 2959.5,-450.57 2959.5,-444.24 2959.5,-444.24 2959.5,-441.07 2962.67,-437.9 2965.83,-437.9 2965.83,-437.9 3096.17,-437.9 3096.17,-437.9 3099.33,-437.9 3102.5,-441.07 3102.5,-444.24 3102.5,-444.24 3102.5,-450.57 3102.5,-450.57 3102.5,-453.74 3099.33,-456.9 3096.17,-456.9"/>
<text text-anchor="middle" x="3031" y="-444.9" font-family="Arial" font-size="10.00" fill="#c6c5fe">../../renderer/dist/canvas.d.ts</text>
</g>
<!-- ../../renderer/dist/canvas.d.ts&#45;&gt;../../core/dist/index.d.ts -->
<g id="edge27" class="edge">
<title>../../renderer/dist/canvas.d.ts&#45;&gt;../../core/dist/index.d.ts</title>
<path fill="none" stroke="#757575" d="M3088.93,-437.89C3100.36,-435.32 3112.18,-432.18 3123,-428.4 3183.84,-407.17 3250.12,-370.25 3285.11,-349.56"/>
<polygon fill="#757575" stroke="#757575" points="3287.33,-352.32 3294.12,-344.19 3283.74,-346.31 3287.33,-352.32"/>
</g>
<!-- ../../renderer/dist/drawables/index.d.ts -->
<g id="node21" class="node">
<title>../../renderer/dist/drawables/index.d.ts</title>
<path fill="none" stroke="#c6c5fe" d="M2675.67,-419.9C2675.67,-419.9 2506.33,-419.9 2506.33,-419.9 2503.17,-419.9 2500,-416.74 2500,-413.57 2500,-413.57 2500,-407.24 2500,-407.24 2500,-404.07 2503.17,-400.9 2506.33,-400.9 2506.33,-400.9 2675.67,-400.9 2675.67,-400.9 2678.83,-400.9 2682,-404.07 2682,-407.24 2682,-407.24 2682,-413.57 2682,-413.57 2682,-416.74 2678.83,-419.9 2675.67,-419.9"/>
<text text-anchor="middle" x="2591" y="-407.9" font-family="Arial" font-size="10.00" fill="#c6c5fe">../../renderer/dist/drawables/index.d.ts</text>
</g>
<!-- ../../renderer/dist/drawables/rect.d.ts -->
<g id="node22" class="node">
<title>../../renderer/dist/drawables/rect.d.ts</title>
<path fill="none" stroke="#c6c5fe" d="M2891.67,-494.9C2891.67,-494.9 2729.33,-494.9 2729.33,-494.9 2726.17,-494.9 2723,-491.74 2723,-488.57 2723,-488.57 2723,-482.24 2723,-482.24 2723,-479.07 2726.17,-475.9 2729.33,-475.9 2729.33,-475.9 2891.67,-475.9 2891.67,-475.9 2894.83,-475.9 2898,-479.07 2898,-482.24 2898,-482.24 2898,-488.57 2898,-488.57 2898,-491.74 2894.83,-494.9 2891.67,-494.9"/>
<text text-anchor="middle" x="2810.5" y="-482.9" font-family="Arial" font-size="10.00" fill="#c6c5fe">../../renderer/dist/drawables/rect.d.ts</text>
</g>
<!-- ../../renderer/dist/drawables/index.d.ts&#45;&gt;../../renderer/dist/drawables/rect.d.ts -->
<g id="edge28" class="edge">
<title>../../renderer/dist/drawables/index.d.ts&#45;&gt;../../renderer/dist/drawables/rect.d.ts</title>
<path fill="none" stroke="#757575" d="M2610.3,-420.03C2634.39,-432.35 2678.35,-453.64 2718,-466.4 2726.3,-469.08 2735.15,-471.46 2743.96,-473.57"/>
<polygon fill="#757575" stroke="#757575" points="2743.32,-477.01 2753.84,-475.83 2744.87,-470.19 2743.32,-477.01"/>
</g>
<!-- ../../renderer/dist/drawables/render.d.ts -->
<g id="node23" class="node">
<title>../../renderer/dist/drawables/render.d.ts</title>
<path fill="none" stroke="#c6c5fe" d="M2896.67,-457.9C2896.67,-457.9 2724.33,-457.9 2724.33,-457.9 2721.17,-457.9 2718,-454.74 2718,-451.57 2718,-451.57 2718,-445.24 2718,-445.24 2718,-442.07 2721.17,-438.9 2724.33,-438.9 2724.33,-438.9 2896.67,-438.9 2896.67,-438.9 2899.83,-438.9 2903,-442.07 2903,-445.24 2903,-445.24 2903,-451.57 2903,-451.57 2903,-454.74 2899.83,-457.9 2896.67,-457.9"/>
<text text-anchor="middle" x="2810.5" y="-445.9" font-family="Arial" font-size="10.00" fill="#c6c5fe">../../renderer/dist/drawables/render.d.ts</text>
</g>
<!-- ../../renderer/dist/drawables/index.d.ts&#45;&gt;../../renderer/dist/drawables/render.d.ts -->
<g id="edge29" class="edge">
<title>../../renderer/dist/drawables/index.d.ts&#45;&gt;../../renderer/dist/drawables/render.d.ts</title>
<path fill="none" stroke="#757575" d="M2646.6,-419.94C2676.47,-425.16 2713.64,-431.66 2744.94,-437.12"/>
<polygon fill="#757575" stroke="#757575" points="2744.42,-440.59 2754.87,-438.86 2745.63,-433.69 2744.42,-440.59"/>
</g>
<!-- ../../renderer/dist/drawables/sprite.d.ts -->
<g id="node24" class="node">
<title>../../renderer/dist/drawables/sprite.d.ts</title>
<path fill="none" stroke="#c6c5fe" d="M2895.17,-381.9C2895.17,-381.9 2725.83,-381.9 2725.83,-381.9 2722.67,-381.9 2719.5,-378.74 2719.5,-375.57 2719.5,-375.57 2719.5,-369.24 2719.5,-369.24 2719.5,-366.07 2722.67,-362.9 2725.83,-362.9 2725.83,-362.9 2895.17,-362.9 2895.17,-362.9 2898.33,-362.9 2901.5,-366.07 2901.5,-369.24 2901.5,-369.24 2901.5,-375.57 2901.5,-375.57 2901.5,-378.74 2898.33,-381.9 2895.17,-381.9"/>
<text text-anchor="middle" x="2810.5" y="-369.9" font-family="Arial" font-size="10.00" fill="#c6c5fe">../../renderer/dist/drawables/sprite.d.ts</text>
</g>
<!-- ../../renderer/dist/drawables/index.d.ts&#45;&gt;../../renderer/dist/drawables/sprite.d.ts -->
<g id="edge30" class="edge">
<title>../../renderer/dist/drawables/index.d.ts&#45;&gt;../../renderer/dist/drawables/sprite.d.ts</title>
<path fill="none" stroke="#757575" d="M2646.6,-400.86C2676.47,-395.65 2713.64,-389.15 2744.94,-383.68"/>
<polygon fill="#757575" stroke="#757575" points="2745.63,-387.12 2754.87,-381.95 2744.42,-380.22 2745.63,-387.12"/>
</g>
<!-- ../../renderer/dist/drawables/types.d.ts -->
<g id="node25" class="node">
<title>../../renderer/dist/drawables/types.d.ts</title>
<path fill="none" stroke="#c6c5fe" d="M3115.67,-419.9C3115.67,-419.9 2946.33,-419.9 2946.33,-419.9 2943.17,-419.9 2940,-416.74 2940,-413.57 2940,-413.57 2940,-407.24 2940,-407.24 2940,-404.07 2943.17,-400.9 2946.33,-400.9 2946.33,-400.9 3115.67,-400.9 3115.67,-400.9 3118.83,-400.9 3122,-404.07 3122,-407.24 3122,-407.24 3122,-413.57 3122,-413.57 3122,-416.74 3118.83,-419.9 3115.67,-419.9"/>
<text text-anchor="middle" x="3031" y="-407.9" font-family="Arial" font-size="10.00" fill="#c6c5fe">../../renderer/dist/drawables/types.d.ts</text>
</g>
<!-- ../../renderer/dist/drawables/index.d.ts&#45;&gt;../../renderer/dist/drawables/types.d.ts -->
<g id="edge31" class="edge">
<title>../../renderer/dist/drawables/index.d.ts&#45;&gt;../../renderer/dist/drawables/types.d.ts</title>
<path fill="none" stroke="#757575" d="M2682.22,-410.4C2754.22,-410.4 2855,-410.4 2929.55,-410.4"/>
<polygon fill="#757575" stroke="#757575" points="2929.89,-413.9 2939.89,-410.4 2929.89,-406.9 2929.89,-413.9"/>
</g>
<!-- ../../renderer/dist/drawables/rect.d.ts&#45;&gt;../../core/dist/index.d.ts -->
<g id="edge32" class="edge">
<title>../../renderer/dist/drawables/rect.d.ts&#45;&gt;../../core/dist/index.d.ts</title>
<path fill="none" stroke="#757575" d="M2898.27,-492.19C2962.18,-494.27 3050.26,-490.94 3123,-465.4 3194.07,-440.45 3262.66,-380.37 3293.3,-351.05"/>
<polygon fill="#757575" stroke="#757575" points="3295.85,-353.46 3300.58,-343.98 3290.97,-348.44 3295.85,-353.46"/>
</g>
<!-- ../../renderer/dist/drawables/rect.d.ts&#45;&gt;../../renderer/dist/canvas.d.ts -->
<g id="edge33" class="edge">
<title>../../renderer/dist/drawables/rect.d.ts&#45;&gt;../../renderer/dist/canvas.d.ts</title>
<path fill="none" stroke="#757575" d="M2866.35,-475.86C2896.35,-470.65 2933.7,-464.15 2965.14,-458.68"/>
<polygon fill="#757575" stroke="#757575" points="2965.87,-462.11 2975.12,-456.95 2964.67,-455.21 2965.87,-462.11"/>
</g>
<!-- ../../renderer/dist/drawables/rect.d.ts&#45;&gt;../../renderer/dist/drawables/types.d.ts -->
<g id="edge34" class="edge">
<title>../../renderer/dist/drawables/rect.d.ts&#45;&gt;../../renderer/dist/drawables/types.d.ts</title>
<path fill="none" stroke="#757575" d="M2880.61,-475.82C2888.42,-473.36 2896.06,-470.27 2903,-466.4 2923.32,-455.07 2918.63,-439.63 2939,-428.4 2942.3,-426.59 2945.75,-424.95 2949.3,-423.48"/>
<polygon fill="#757575" stroke="#757575" points="2950.73,-426.68 2958.91,-419.95 2948.31,-420.11 2950.73,-426.68"/>
</g>
<!-- ../../renderer/dist/drawables/render.d.ts&#45;&gt;../../renderer/dist/canvas.d.ts -->
<g id="edge35" class="edge">
<title>../../renderer/dist/drawables/render.d.ts&#45;&gt;../../renderer/dist/canvas.d.ts</title>
<path fill="none" stroke="#757575" d="M2903.21,-447.98C2918.49,-447.91 2934.24,-447.84 2949.22,-447.77"/>
<polygon fill="#757575" stroke="#757575" points="2949.47,-451.27 2959.45,-447.73 2949.43,-444.27 2949.47,-451.27"/>
</g>
<!-- ../../renderer/dist/drawables/render.d.ts&#45;&gt;../../renderer/dist/drawables/types.d.ts -->
<g id="edge36" class="edge">
<title>../../renderer/dist/drawables/render.d.ts&#45;&gt;../../renderer/dist/drawables/types.d.ts</title>
<path fill="none" stroke="#757575" d="M2866.35,-438.86C2896.35,-433.65 2933.7,-427.15 2965.14,-421.68"/>
<polygon fill="#757575" stroke="#757575" points="2965.87,-425.11 2975.12,-419.95 2964.67,-418.21 2965.87,-425.11"/>
</g>
<!-- ../../renderer/dist/drawables/sprite.d.ts&#45;&gt;../../core/dist/index.d.ts -->
<g id="edge37" class="edge">
<title>../../renderer/dist/drawables/sprite.d.ts&#45;&gt;../../core/dist/index.d.ts</title>
<path fill="none" stroke="#757575" d="M2901.77,-365.52C2999.61,-358.06 3153.53,-346.33 3241.76,-339.6"/>
<polygon fill="#757575" stroke="#757575" points="3242.22,-343.08 3251.93,-338.83 3241.69,-336.1 3242.22,-343.08"/>
</g>
<!-- ../../renderer/dist/drawables/sprite.d.ts&#45;&gt;../../renderer/dist/canvas.d.ts -->
<g id="edge38" class="edge">
<title>../../renderer/dist/drawables/sprite.d.ts&#45;&gt;../../renderer/dist/canvas.d.ts</title>
<path fill="none" stroke="#757575" d="M2830.03,-382.01C2854.43,-394.32 2898.94,-415.58 2939,-428.4 2947.38,-431.08 2956.31,-433.49 2965.18,-435.6"/>
<polygon fill="#757575" stroke="#757575" points="2964.62,-439.06 2975.14,-437.87 2966.17,-432.24 2964.62,-439.06"/>
</g>
<!-- ../../renderer/dist/drawables/sprite.d.ts&#45;&gt;../../renderer/dist/drawables/types.d.ts -->
<g id="edge39" class="edge">
<title>../../renderer/dist/drawables/sprite.d.ts&#45;&gt;../../renderer/dist/drawables/types.d.ts</title>
<path fill="none" stroke="#757575" d="M2866.35,-381.94C2896.35,-387.16 2933.7,-393.66 2965.14,-399.12"/>
<polygon fill="#757575" stroke="#757575" points="2964.67,-402.59 2975.12,-400.86 2965.87,-395.7 2964.67,-402.59"/>
</g>
<!-- ../../renderer/dist/drawables/types.d.ts&#45;&gt;../../core/dist/index.d.ts -->
<g id="edge40" class="edge">
<title>../../renderer/dist/drawables/types.d.ts&#45;&gt;../../core/dist/index.d.ts</title>
<path fill="none" stroke="#757575" d="M3068.78,-400.82C3085.36,-396.47 3105.18,-391.23 3123,-386.4 3172.26,-373.06 3228.69,-357.3 3266.57,-346.66"/>
<polygon fill="#757575" stroke="#757575" points="3267.58,-350.01 3276.26,-343.93 3265.68,-343.27 3267.58,-350.01"/>
</g>
<!-- ../../runtime/dist/components/index.d.ts -->
<g id="node26" class="node">
<title>../../runtime/dist/components/index.d.ts</title>
<path fill="none" stroke="#ff6c60" d="M1881.67,-267.9C1881.67,-267.9 1706.33,-267.9 1706.33,-267.9 1703.17,-267.9 1700,-264.74 1700,-261.57 1700,-261.57 1700,-255.24 1700,-255.24 1700,-252.07 1703.17,-248.9 1706.33,-248.9 1706.33,-248.9 1881.67,-248.9 1881.67,-248.9 1884.83,-248.9 1888,-252.07 1888,-255.24 1888,-255.24 1888,-261.57 1888,-261.57 1888,-264.74 1884.83,-267.9 1881.67,-267.9"/>
<text text-anchor="middle" x="1794" y="-255.9" font-family="Arial" font-size="10.00" fill="#ff6c60">../../runtime/dist/components/index.d.ts</text>
</g>
<!-- ../../runtime/dist/components/stateful&#45;components.d.ts -->
<g id="node27" class="node">
<title>../../runtime/dist/components/stateful&#45;components.d.ts</title>
<path fill="none" stroke="#c6c5fe" d="M2457.67,-267.9C2457.67,-267.9 2217.33,-267.9 2217.33,-267.9 2214.17,-267.9 2211,-264.74 2211,-261.57 2211,-261.57 2211,-255.24 2211,-255.24 2211,-252.07 2214.17,-248.9 2217.33,-248.9 2217.33,-248.9 2457.67,-248.9 2457.67,-248.9 2460.83,-248.9 2464,-252.07 2464,-255.24 2464,-255.24 2464,-261.57 2464,-261.57 2464,-264.74 2460.83,-267.9 2457.67,-267.9"/>
<text text-anchor="middle" x="2337.5" y="-255.9" font-family="Arial" font-size="10.00" fill="#c6c5fe">../../runtime/dist/components/stateful&#45;components.d.ts</text>
</g>
<!-- ../../runtime/dist/components/index.d.ts&#45;&gt;../../runtime/dist/components/stateful&#45;components.d.ts -->
<g id="edge41" class="edge">
<title>../../runtime/dist/components/index.d.ts&#45;&gt;../../runtime/dist/components/stateful&#45;components.d.ts</title>
<path fill="none" stroke="#757575" d="M1888.09,-258.4C1974.17,-258.4 2103.15,-258.4 2200.72,-258.4"/>
<polygon fill="#757575" stroke="#757575" points="2200.95,-261.9 2210.95,-258.4 2200.95,-254.9 2200.95,-261.9"/>
</g>
<!-- ../../runtime/dist/components/status.d.ts -->
<g id="node28" class="node">
<title>../../runtime/dist/components/status.d.ts</title>
<path fill="none" stroke="#c6c5fe" d="M2138.67,-229.9C2138.67,-229.9 1960.33,-229.9 1960.33,-229.9 1957.17,-229.9 1954,-226.74 1954,-223.57 1954,-223.57 1954,-217.24 1954,-217.24 1954,-214.07 1957.17,-210.9 1960.33,-210.9 1960.33,-210.9 2138.67,-210.9 2138.67,-210.9 2141.83,-210.9 2145,-214.07 2145,-217.24 2145,-217.24 2145,-223.57 2145,-223.57 2145,-226.74 2141.83,-229.9 2138.67,-229.9"/>
<text text-anchor="middle" x="2049.5" y="-217.9" font-family="Arial" font-size="10.00" fill="#c6c5fe">../../runtime/dist/components/status.d.ts</text>
</g>
<!-- ../../runtime/dist/components/index.d.ts&#45;&gt;../../runtime/dist/components/status.d.ts -->
<g id="edge42" class="edge">
<title>../../runtime/dist/components/index.d.ts&#45;&gt;../../runtime/dist/components/status.d.ts</title>
<path fill="none" stroke="#757575" d="M1858.64,-248.86C1893.9,-243.58 1937.9,-236.98 1974.67,-231.47"/>
<polygon fill="#757575" stroke="#757575" points="1975.46,-234.89 1984.83,-229.95 1974.42,-227.97 1975.46,-234.89"/>
</g>
<!-- ../../runtime/dist/components/transform.d.ts -->
<g id="node29" class="node">
<title>../../runtime/dist/components/transform.d.ts</title>
<path fill="none" stroke="#ff6c60" d="M2434.17,-305.9C2434.17,-305.9 2240.83,-305.9 2240.83,-305.9 2237.67,-305.9 2234.5,-302.74 2234.5,-299.57 2234.5,-299.57 2234.5,-293.24 2234.5,-293.24 2234.5,-290.07 2237.67,-286.9 2240.83,-286.9 2240.83,-286.9 2434.17,-286.9 2434.17,-286.9 2437.33,-286.9 2440.5,-290.07 2440.5,-293.24 2440.5,-293.24 2440.5,-299.57 2440.5,-299.57 2440.5,-302.74 2437.33,-305.9 2434.17,-305.9"/>
<text text-anchor="middle" x="2337.5" y="-293.9" font-family="Arial" font-size="10.00" fill="#ff6c60">../../runtime/dist/components/transform.d.ts</text>
</g>
<!-- ../../runtime/dist/components/index.d.ts&#45;&gt;../../runtime/dist/components/transform.d.ts -->
<g id="edge43" class="edge">
<title>../../runtime/dist/components/index.d.ts&#45;&gt;../../runtime/dist/components/transform.d.ts</title>
<path fill="none" stroke="#757575" d="M1876.83,-267.91C1892.48,-269.55 1908.73,-271.13 1924,-272.4 2025.39,-280.85 2141.06,-287.3 2224.05,-291.38"/>
<polygon fill="#757575" stroke="#757575" points="2224.11,-294.89 2234.26,-291.88 2224.45,-287.9 2224.11,-294.89"/>
</g>
<!-- ../../runtime/dist/state/index.d.ts -->
<g id="node30" class="node">
<title>../../runtime/dist/state/index.d.ts</title>
<path fill="none" stroke="#c6c5fe" d="M2662.67,-267.9C2662.67,-267.9 2519.33,-267.9 2519.33,-267.9 2516.17,-267.9 2513,-264.74 2513,-261.57 2513,-261.57 2513,-255.24 2513,-255.24 2513,-252.07 2516.17,-248.9 2519.33,-248.9 2519.33,-248.9 2662.67,-248.9 2662.67,-248.9 2665.83,-248.9 2669,-252.07 2669,-255.24 2669,-255.24 2669,-261.57 2669,-261.57 2669,-264.74 2665.83,-267.9 2662.67,-267.9"/>
<text text-anchor="middle" x="2591" y="-255.9" font-family="Arial" font-size="10.00" fill="#c6c5fe">../../runtime/dist/state/index.d.ts</text>
</g>
<!-- ../../runtime/dist/components/stateful&#45;components.d.ts&#45;&gt;../../runtime/dist/state/index.d.ts -->
<g id="edge44" class="edge">
<title>../../runtime/dist/components/stateful&#45;components.d.ts&#45;&gt;../../runtime/dist/state/index.d.ts</title>
<path fill="none" stroke="#757575" d="M2464.25,-258.4C2477.2,-258.4 2490.15,-258.4 2502.56,-258.4"/>
<polygon fill="#757575" stroke="#757575" points="2502.83,-261.9 2512.83,-258.4 2502.83,-254.9 2502.83,-261.9"/>
</g>
<!-- ../../runtime/dist/components/status.d.ts&#45;&gt;../../runtime/dist/components/stateful&#45;components.d.ts -->
<g id="edge45" class="edge">
<title>../../runtime/dist/components/status.d.ts&#45;&gt;../../runtime/dist/components/stateful&#45;components.d.ts</title>
<path fill="none" stroke="#757575" d="M2122.3,-229.94C2162.5,-235.28 2212.79,-241.97 2254.53,-247.51"/>
<polygon fill="#757575" stroke="#757575" points="2254.3,-251.01 2264.67,-248.86 2255.22,-244.07 2254.3,-251.01"/>
</g>
<!-- ../../runtime/dist/components/status.d.ts&#45;&gt;../../runtime/dist/state/index.d.ts -->
<g id="edge46" class="edge">
<title>../../runtime/dist/components/status.d.ts&#45;&gt;../../runtime/dist/state/index.d.ts</title>
<path fill="none" stroke="#757575" d="M2145.13,-221.96C2229.07,-224.01 2354.93,-228.7 2464,-239.4 2483.97,-241.36 2505.6,-244.32 2525.21,-247.32"/>
<polygon fill="#757575" stroke="#757575" points="2524.85,-250.8 2535.27,-248.89 2525.92,-243.89 2524.85,-250.8"/>
</g>
<!-- ../../runtime/dist/components/transform.d.ts&#45;&gt;../../core/dist/index.d.ts -->
<g id="edge47" class="edge">
<title>../../runtime/dist/components/transform.d.ts&#45;&gt;../../core/dist/index.d.ts</title>
<path fill="none" stroke="#757575" d="M2440.74,-298.09C2590.53,-300.89 2878.41,-307.51 3123,-320.4 3162.35,-322.48 3206.3,-325.72 3241.7,-328.56"/>
<polygon fill="#757575" stroke="#757575" points="3241.67,-332.07 3251.92,-329.39 3242.24,-325.09 3241.67,-332.07"/>
</g>
<!-- ../../runtime/dist/components/transform.d.ts&#45;&gt;../../runtime/dist/state/index.d.ts -->
<g id="edge49" class="edge">
<title>../../runtime/dist/components/transform.d.ts&#45;&gt;../../runtime/dist/state/index.d.ts</title>
<path fill="none" stroke="#757575" d="M2401.64,-286.86C2436.62,-281.58 2480.28,-274.98 2516.75,-269.47"/>
<polygon fill="#757575" stroke="#757575" points="2517.47,-272.9 2526.83,-267.95 2516.42,-265.98 2517.47,-272.9"/>
</g>
<!-- ../../runtime/dist/entities/index.d.ts -->
<g id="node31" class="node">
<title>../../runtime/dist/entities/index.d.ts</title>
<path fill="none" stroke="#ff6c60" d="M1207.67,-277.9C1207.67,-277.9 1054.33,-277.9 1054.33,-277.9 1051.17,-277.9 1048,-274.74 1048,-271.57 1048,-271.57 1048,-265.24 1048,-265.24 1048,-262.07 1051.17,-258.9 1054.33,-258.9 1054.33,-258.9 1207.67,-258.9 1207.67,-258.9 1210.83,-258.9 1214,-262.07 1214,-265.24 1214,-265.24 1214,-271.57 1214,-271.57 1214,-274.74 1210.83,-277.9 1207.67,-277.9"/>
<text text-anchor="middle" x="1131" y="-265.9" font-family="Arial" font-size="10.00" fill="#ff6c60">../../runtime/dist/entities/index.d.ts</text>
</g>
<!-- ../../runtime/dist/components/transform.d.ts&#45;&gt;../../runtime/dist/entities/index.d.ts -->
<g id="edge48" class="edge">
<title>../../runtime/dist/components/transform.d.ts&#45;&gt;../../runtime/dist/entities/index.d.ts</title>
<path fill="none" stroke="#757575" d="M2234.36,-296.84C2150.88,-297.04 2029.8,-296.94 1924,-295.4 1624.37,-291.04 1549.27,-292.8 1250,-277.4 1241.67,-276.97 1233.01,-276.45 1224.34,-275.88"/>
<polygon fill="#757575" stroke="#757575" points="1224.39,-272.38 1214.17,-275.19 1223.91,-279.36 1224.39,-272.38"/>
</g>
<!-- ../../runtime/dist/state/game&#45;state.d.ts -->
<g id="node46" class="node">
<title>../../runtime/dist/state/game&#45;state.d.ts</title>
<path fill="none" stroke="#c6c5fe" d="M2895.17,-267.9C2895.17,-267.9 2725.83,-267.9 2725.83,-267.9 2722.67,-267.9 2719.5,-264.74 2719.5,-261.57 2719.5,-261.57 2719.5,-255.24 2719.5,-255.24 2719.5,-252.07 2722.67,-248.9 2725.83,-248.9 2725.83,-248.9 2895.17,-248.9 2895.17,-248.9 2898.33,-248.9 2901.5,-252.07 2901.5,-255.24 2901.5,-255.24 2901.5,-261.57 2901.5,-261.57 2901.5,-264.74 2898.33,-267.9 2895.17,-267.9"/>
<text text-anchor="middle" x="2810.5" y="-255.9" font-family="Arial" font-size="10.00" fill="#c6c5fe">../../runtime/dist/state/game&#45;state.d.ts</text>
</g>
<!-- ../../runtime/dist/state/index.d.ts&#45;&gt;../../runtime/dist/state/game&#45;state.d.ts -->
<g id="edge83" class="edge">
<title>../../runtime/dist/state/index.d.ts&#45;&gt;../../runtime/dist/state/game&#45;state.d.ts</title>
<path fill="none" stroke="#757575" d="M2669.29,-258.4C2682.24,-258.4 2695.83,-258.4 2709.24,-258.4"/>
<polygon fill="#757575" stroke="#757575" points="2709.46,-261.9 2719.46,-258.4 2709.46,-254.9 2709.46,-261.9"/>
</g>
<!-- ../../runtime/dist/state/player&#45;state.d.ts -->
<g id="node47" class="node">
<title>../../runtime/dist/state/player&#45;state.d.ts</title>
<path fill="none" stroke="#c6c5fe" d="M3116.67,-267.9C3116.67,-267.9 2945.33,-267.9 2945.33,-267.9 2942.17,-267.9 2939,-264.74 2939,-261.57 2939,-261.57 2939,-255.24 2939,-255.24 2939,-252.07 2942.17,-248.9 2945.33,-248.9 2945.33,-248.9 3116.67,-248.9 3116.67,-248.9 3119.83,-248.9 3123,-252.07 3123,-255.24 3123,-255.24 3123,-261.57 3123,-261.57 3123,-264.74 3119.83,-267.9 3116.67,-267.9"/>
<text text-anchor="middle" x="3031" y="-255.9" font-family="Arial" font-size="10.00" fill="#c6c5fe">../../runtime/dist/state/player&#45;state.d.ts</text>
</g>
<!-- ../../runtime/dist/state/index.d.ts&#45;&gt;../../runtime/dist/state/player&#45;state.d.ts -->
<g id="edge84" class="edge">
<title>../../runtime/dist/state/index.d.ts&#45;&gt;../../runtime/dist/state/player&#45;state.d.ts</title>
<path fill="none" stroke="#757575" d="M2643.3,-248.89C2666.09,-245.12 2693.29,-241.26 2718,-239.4 2799.99,-233.26 2821,-233.3 2903,-239.4 2924.4,-240.99 2947.66,-244.08 2968.36,-247.3"/>
<polygon fill="#757575" stroke="#757575" points="2967.86,-250.77 2978.29,-248.89 2968.97,-243.85 2967.86,-250.77"/>
</g>
<!-- ../../runtime/dist/entities/entity.d.ts -->
<g id="node38" class="node">
<title>../../runtime/dist/entities/entity.d.ts</title>
<path fill="none" stroke="#ff6c60" d="M1657.67,-267.9C1657.67,-267.9 1504.33,-267.9 1504.33,-267.9 1501.17,-267.9 1498,-264.74 1498,-261.57 1498,-261.57 1498,-255.24 1498,-255.24 1498,-252.07 1501.17,-248.9 1504.33,-248.9 1504.33,-248.9 1657.67,-248.9 1657.67,-248.9 1660.83,-248.9 1664,-252.07 1664,-255.24 1664,-255.24 1664,-261.57 1664,-261.57 1664,-264.74 1660.83,-267.9 1657.67,-267.9"/>
<text text-anchor="middle" x="1581" y="-255.9" font-family="Arial" font-size="10.00" fill="#ff6c60">../../runtime/dist/entities/entity.d.ts</text>
</g>
<!-- ../../runtime/dist/entities/index.d.ts&#45;&gt;../../runtime/dist/entities/entity.d.ts -->
<g id="edge66" class="edge">
<title>../../runtime/dist/entities/index.d.ts&#45;&gt;../../runtime/dist/entities/entity.d.ts</title>
<path fill="none" stroke="#757575" d="M1214.17,-266.57C1291.57,-264.84 1407.34,-262.26 1487.84,-260.46"/>
<polygon fill="#757575" stroke="#757575" points="1488.05,-263.96 1497.97,-260.23 1487.9,-256.96 1488.05,-263.96"/>
</g>
<!-- ../../runtime/dist/entities/player&#45;character.d.ts -->
<g id="node39" class="node">
<title>../../runtime/dist/entities/player&#45;character.d.ts</title>
<path fill="none" stroke="#c6c5fe" d="M1455.67,-210.9C1455.67,-210.9 1256.33,-210.9 1256.33,-210.9 1253.17,-210.9 1250,-207.74 1250,-204.57 1250,-204.57 1250,-198.24 1250,-198.24 1250,-195.07 1253.17,-191.9 1256.33,-191.9 1256.33,-191.9 1455.67,-191.9 1455.67,-191.9 1458.83,-191.9 1462,-195.07 1462,-198.24 1462,-198.24 1462,-204.57 1462,-204.57 1462,-207.74 1458.83,-210.9 1455.67,-210.9"/>
<text text-anchor="middle" x="1356" y="-198.9" font-family="Arial" font-size="10.00" fill="#c6c5fe">../../runtime/dist/entities/player&#45;character.d.ts</text>
</g>
<!-- ../../runtime/dist/entities/index.d.ts&#45;&gt;../../runtime/dist/entities/player&#45;character.d.ts -->
<g id="edge67" class="edge">
<title>../../runtime/dist/entities/index.d.ts&#45;&gt;../../runtime/dist/entities/player&#45;character.d.ts</title>
<path fill="none" stroke="#757575" d="M1163.95,-258.8C1203.28,-246.99 1270.16,-226.89 1313.45,-213.89"/>
<polygon fill="#757575" stroke="#757575" points="1314.54,-217.21 1323.11,-210.98 1312.52,-210.51 1314.54,-217.21"/>
</g>
<!-- ../../runtime/dist/controllers/controller.d.ts -->
<g id="node32" class="node">
<title>../../runtime/dist/controllers/controller.d.ts</title>
<path fill="none" stroke="#ff6c60" d="M1005.67,-533.9C1005.67,-533.9 822.33,-533.9 822.33,-533.9 819.17,-533.9 816,-530.74 816,-527.57 816,-527.57 816,-521.24 816,-521.24 816,-518.07 819.17,-514.9 822.33,-514.9 822.33,-514.9 1005.67,-514.9 1005.67,-514.9 1008.83,-514.9 1012,-518.07 1012,-521.24 1012,-521.24 1012,-527.57 1012,-527.57 1012,-530.74 1008.83,-533.9 1005.67,-533.9"/>
<text text-anchor="middle" x="914" y="-521.9" font-family="Arial" font-size="10.00" fill="#ff6c60">../../runtime/dist/controllers/controller.d.ts</text>
</g>
<!-- ../../runtime/dist/controllers/controller.d.ts&#45;&gt;../../runtime/dist/entities/index.d.ts -->
<g id="edge50" class="edge">
<title>../../runtime/dist/controllers/controller.d.ts&#45;&gt;../../runtime/dist/entities/index.d.ts</title>
<path fill="none" stroke="#757575" d="M923.17,-514.68C955.29,-476.43 1073.28,-335.94 1115.14,-286.09"/>
<polygon fill="#757575" stroke="#757575" points="1118.08,-288.04 1121.83,-278.14 1112.71,-283.54 1118.08,-288.04"/>
</g>
<!-- ../../runtime/dist/controllers/index.d.ts -->
<g id="node33" class="node">
<title>../../runtime/dist/controllers/index.d.ts</title>
<path fill="none" stroke="#ff6c60" d="M1877.17,-533.9C1877.17,-533.9 1710.83,-533.9 1710.83,-533.9 1707.67,-533.9 1704.5,-530.74 1704.5,-527.57 1704.5,-527.57 1704.5,-521.24 1704.5,-521.24 1704.5,-518.07 1707.67,-514.9 1710.83,-514.9 1710.83,-514.9 1877.17,-514.9 1877.17,-514.9 1880.33,-514.9 1883.5,-518.07 1883.5,-521.24 1883.5,-521.24 1883.5,-527.57 1883.5,-527.57 1883.5,-530.74 1880.33,-533.9 1877.17,-533.9"/>
<text text-anchor="middle" x="1794" y="-521.9" font-family="Arial" font-size="10.00" fill="#ff6c60">../../runtime/dist/controllers/index.d.ts</text>
</g>
<!-- ../../runtime/dist/controllers/index.d.ts&#45;&gt;../../runtime/dist/controllers/controller.d.ts -->
<g id="edge51" class="edge">
<title>../../runtime/dist/controllers/index.d.ts&#45;&gt;../../runtime/dist/controllers/controller.d.ts</title>
<path fill="none" stroke="#757575" d="M1704.46,-524.4C1542.17,-524.4 1197.66,-524.4 1022.33,-524.4"/>
<polygon fill="#757575" stroke="#757575" points="1022.32,-520.9 1012.32,-524.4 1022.32,-527.9 1022.32,-520.9"/>
</g>
<!-- ../../runtime/dist/controllers/movement&#45;test&#45;controller.d.ts -->
<g id="node34" class="node">
<title>../../runtime/dist/controllers/movement&#45;test&#45;controller.d.ts</title>
<path fill="none" stroke="#c6c5fe" d="M773.67,-495.9C773.67,-495.9 522.33,-495.9 522.33,-495.9 519.17,-495.9 516,-492.74 516,-489.57 516,-489.57 516,-483.24 516,-483.24 516,-480.07 519.17,-476.9 522.33,-476.9 522.33,-476.9 773.67,-476.9 773.67,-476.9 776.83,-476.9 780,-480.07 780,-483.24 780,-483.24 780,-489.57 780,-489.57 780,-492.74 776.83,-495.9 773.67,-495.9"/>
<text text-anchor="middle" x="648" y="-483.9" font-family="Arial" font-size="10.00" fill="#c6c5fe">../../runtime/dist/controllers/movement&#45;test&#45;controller.d.ts</text>
</g>
<!-- ../../runtime/dist/controllers/index.d.ts&#45;&gt;../../runtime/dist/controllers/movement&#45;test&#45;controller.d.ts -->
<g id="edge52" class="edge">
<title>../../runtime/dist/controllers/index.d.ts&#45;&gt;../../runtime/dist/controllers/movement&#45;test&#45;controller.d.ts</title>
<path fill="none" stroke="#757575" d="M1725.56,-514.86C1640.02,-503.61 1487.88,-486.4 1357,-486.4 1130,-486.4 1130,-486.4 1130,-486.4 1015.67,-486.4 886.06,-486.4 790.21,-486.4"/>
<polygon fill="#757575" stroke="#757575" points="790.17,-482.9 780.17,-486.4 790.17,-489.9 790.17,-482.9"/>
</g>
<!-- ../../runtime/dist/controllers/rect&#45;controller.d.ts -->
<g id="node35" class="node">
<title>../../runtime/dist/controllers/rect&#45;controller.d.ts</title>
<path fill="none" stroke="#c6c5fe" d="M2150.67,-533.9C2150.67,-533.9 1948.33,-533.9 1948.33,-533.9 1945.17,-533.9 1942,-530.74 1942,-527.57 1942,-527.57 1942,-521.24 1942,-521.24 1942,-518.07 1945.17,-514.9 1948.33,-514.9 1948.33,-514.9 2150.67,-514.9 2150.67,-514.9 2153.83,-514.9 2157,-518.07 2157,-521.24 2157,-521.24 2157,-527.57 2157,-527.57 2157,-530.74 2153.83,-533.9 2150.67,-533.9"/>
<text text-anchor="middle" x="2049.5" y="-521.9" font-family="Arial" font-size="10.00" fill="#c6c5fe">../../runtime/dist/controllers/rect&#45;controller.d.ts</text>
</g>
<!-- ../../runtime/dist/controllers/index.d.ts&#45;&gt;../../runtime/dist/controllers/rect&#45;controller.d.ts -->
<g id="edge53" class="edge">
<title>../../runtime/dist/controllers/index.d.ts&#45;&gt;../../runtime/dist/controllers/rect&#45;controller.d.ts</title>
<path fill="none" stroke="#757575" d="M1883.66,-524.4C1899.01,-524.4 1915.17,-524.4 1931.13,-524.4"/>
<polygon fill="#757575" stroke="#757575" points="1931.58,-527.9 1941.58,-524.4 1931.58,-520.9 1931.58,-527.9"/>
</g>
<!-- ../../runtime/dist/controllers/server&#45;state&#45;controller.d.ts -->
<g id="node36" class="node">
<title>../../runtime/dist/controllers/server&#45;state&#45;controller.d.ts</title>
<path fill="none" stroke="#ff6c60" d="M2168.67,-457.9C2168.67,-457.9 1930.33,-457.9 1930.33,-457.9 1927.17,-457.9 1924,-454.74 1924,-451.57 1924,-451.57 1924,-445.24 1924,-445.24 1924,-442.07 1927.17,-438.9 1930.33,-438.9 1930.33,-438.9 2168.67,-438.9 2168.67,-438.9 2171.83,-438.9 2175,-442.07 2175,-445.24 2175,-445.24 2175,-451.57 2175,-451.57 2175,-454.74 2171.83,-457.9 2168.67,-457.9"/>
<text text-anchor="middle" x="2049.5" y="-445.9" font-family="Arial" font-size="10.00" fill="#ff6c60">../../runtime/dist/controllers/server&#45;state&#45;controller.d.ts</text>
</g>
<!-- ../../runtime/dist/controllers/index.d.ts&#45;&gt;../../runtime/dist/controllers/server&#45;state&#45;controller.d.ts -->
<g id="edge54" class="edge">
<title>../../runtime/dist/controllers/index.d.ts&#45;&gt;../../runtime/dist/controllers/server&#45;state&#45;controller.d.ts</title>
<path fill="none" stroke="#757575" d="M1826.85,-514.85C1872.48,-501.17 1956.5,-475.99 2006.96,-460.86"/>
<polygon fill="#757575" stroke="#757575" points="2008.01,-464.2 2016.58,-457.97 2006,-457.49 2008.01,-464.2"/>
</g>
<!-- ../../runtime/dist/controllers/movement&#45;test&#45;controller.d.ts&#45;&gt;../../runtime/dist/controllers/controller.d.ts -->
<g id="edge55" class="edge">
<title>../../runtime/dist/controllers/movement&#45;test&#45;controller.d.ts&#45;&gt;../../runtime/dist/controllers/controller.d.ts</title>
<path fill="none" stroke="#757575" d="M715.28,-495.94C752.15,-501.25 798.21,-507.88 836.6,-513.41"/>
<polygon fill="#757575" stroke="#757575" points="836.3,-516.9 846.7,-514.86 837.3,-509.97 836.3,-516.9"/>
</g>
<!-- ../../runtime/dist/interop&#45;interfaces.d.ts -->
<g id="node37" class="node">
<title>../../runtime/dist/interop&#45;interfaces.d.ts</title>
<path fill="none" stroke="#c6c5fe" d="M1879.17,-400.9C1879.17,-400.9 1708.83,-400.9 1708.83,-400.9 1705.67,-400.9 1702.5,-397.74 1702.5,-394.57 1702.5,-394.57 1702.5,-388.24 1702.5,-388.24 1702.5,-385.07 1705.67,-381.9 1708.83,-381.9 1708.83,-381.9 1879.17,-381.9 1879.17,-381.9 1882.33,-381.9 1885.5,-385.07 1885.5,-388.24 1885.5,-388.24 1885.5,-394.57 1885.5,-394.57 1885.5,-397.74 1882.33,-400.9 1879.17,-400.9"/>
<text text-anchor="middle" x="1794" y="-388.9" font-family="Arial" font-size="10.00" fill="#c6c5fe">../../runtime/dist/interop&#45;interfaces.d.ts</text>
</g>
<!-- ../../runtime/dist/controllers/movement&#45;test&#45;controller.d.ts&#45;&gt;../../runtime/dist/interop&#45;interfaces.d.ts -->
<g id="edge56" class="edge">
<title>../../runtime/dist/controllers/movement&#45;test&#45;controller.d.ts&#45;&gt;../../runtime/dist/interop&#45;interfaces.d.ts</title>
<path fill="none" stroke="#757575" d="M712.17,-476.89C852.87,-456.25 1202.94,-407.86 1498,-391.4 1562.52,-387.8 1635.1,-387.75 1692.12,-388.63"/>
<polygon fill="#757575" stroke="#757575" points="1692.17,-392.13 1702.22,-388.79 1692.28,-385.13 1692.17,-392.13"/>
</g>
<!-- ../../runtime/dist/controllers/rect&#45;controller.d.ts&#45;&gt;../../core/dist/index.d.ts -->
<g id="edge57" class="edge">
<title>../../runtime/dist/controllers/rect&#45;controller.d.ts&#45;&gt;../../core/dist/index.d.ts</title>
<path fill="none" stroke="#757575" d="M2157.21,-524.09C2266.05,-523.8 2439.79,-523.4 2590,-523.4 2590,-523.4 2590,-523.4 2811.5,-523.4 2950.59,-523.4 2994.91,-547.61 3123,-493.4 3199.34,-461.1 3267.63,-386.09 3296.03,-351.92"/>
<polygon fill="#757575" stroke="#757575" points="3298.75,-354.12 3302.37,-344.17 3293.33,-349.69 3298.75,-354.12"/>
</g>
<!-- ../../runtime/dist/controllers/rect&#45;controller.d.ts&#45;&gt;../../runtime/dist/controllers/controller.d.ts -->
<g id="edge58" class="edge">
<title>../../runtime/dist/controllers/rect&#45;controller.d.ts&#45;&gt;../../runtime/dist/controllers/controller.d.ts</title>
<path fill="none" stroke="#757575" d="M2036.06,-533.92C2010.17,-553.12 1947.92,-596.22 1888,-614.4 1757.46,-654.02 1718.42,-638.4 1582,-638.4 1355,-638.4 1355,-638.4 1355,-638.4 1218.14,-638.4 1177.19,-659.59 1048,-614.4 1001.86,-598.26 956.54,-562.02 932.55,-540.77"/>
<polygon fill="#757575" stroke="#757575" points="934.76,-538.05 924.99,-533.94 930.07,-543.25 934.76,-538.05"/>
</g>
<!-- ../../runtime/dist/controllers/server&#45;state&#45;controller.d.ts&#45;&gt;../../network/dist/index.d.ts -->
<g id="edge59" class="edge">
<title>../../runtime/dist/controllers/server&#45;state&#45;controller.d.ts&#45;&gt;../../network/dist/index.d.ts</title>
<path fill="none" stroke="#757575" d="M2139.96,-457.91C2152.23,-461.4 2164.28,-466.09 2175,-472.4 2249.46,-516.25 2305.26,-607.55 2326.79,-646.8"/>
<polygon fill="#757575" stroke="#757575" points="2323.81,-648.65 2331.63,-655.81 2329.98,-645.34 2323.81,-648.65"/>
</g>
<!-- ../../runtime/dist/controllers/server&#45;state&#45;controller.d.ts&#45;&gt;../../runtime/dist/state/index.d.ts -->
<g id="edge62" class="edge">
<title>../../runtime/dist/controllers/server&#45;state&#45;controller.d.ts&#45;&gt;../../runtime/dist/state/index.d.ts</title>
<path fill="none" stroke="#757575" d="M2083.87,-438.88C2154.71,-418.39 2325,-367.65 2464,-314.4 2497.9,-301.42 2535.84,-284.17 2561.15,-272.26"/>
<polygon fill="#757575" stroke="#757575" points="2562.65,-275.42 2570.19,-267.98 2559.66,-269.1 2562.65,-275.42"/>
</g>
<!-- ../../runtime/dist/controllers/server&#45;state&#45;controller.d.ts&#45;&gt;../../runtime/dist/entities/index.d.ts -->
<g id="edge61" class="edge">
<title>../../runtime/dist/controllers/server&#45;state&#45;controller.d.ts&#45;&gt;../../runtime/dist/entities/index.d.ts</title>
<path fill="none" stroke="#757575" d="M2032.81,-438.7C2004.88,-421.95 1944.17,-387.92 1888,-372.4 1613.4,-296.53 1528.06,-372.41 1250,-310.4 1219.73,-303.65 1186.56,-291.39 1163.12,-281.85"/>
<polygon fill="#757575" stroke="#757575" points="1164.29,-278.54 1153.71,-277.95 1161.61,-285.01 1164.29,-278.54"/>
</g>
<!-- ../../runtime/dist/controllers/server&#45;state&#45;controller.d.ts&#45;&gt;../../runtime/dist/controllers/controller.d.ts -->
<g id="edge60" class="edge">
<title>../../runtime/dist/controllers/server&#45;state&#45;controller.d.ts&#45;&gt;../../runtime/dist/controllers/controller.d.ts</title>
<path fill="none" stroke="#757575" d="M2020.22,-457.92C1993.91,-467.54 1954.31,-484.03 1924,-505.4 1905.25,-518.63 1908.21,-531.54 1888,-542.4 1766.08,-607.94 1720.42,-600.4 1582,-600.4 1355,-600.4 1355,-600.4 1355,-600.4 1207.18,-600.4 1035.44,-558.23 957.44,-536.72"/>
<polygon fill="#757575" stroke="#757575" points="958.08,-533.26 947.51,-533.95 956.2,-540.01 958.08,-533.26"/>
</g>
<!-- ../../runtime/dist/interop&#45;interfaces.d.ts&#45;&gt;../../core/dist/index.d.ts -->
<g id="edge77" class="edge">
<title>../../runtime/dist/interop&#45;interfaces.d.ts&#45;&gt;../../core/dist/index.d.ts</title>
<path fill="none" stroke="#757575" d="M1874.7,-381.89C2017.74,-365.68 2327.61,-334.4 2590,-334.4 2590,-334.4 2590,-334.4 2811.5,-334.4 2965.14,-334.4 3145.43,-334.4 3241.51,-334.4"/>
<polygon fill="#757575" stroke="#757575" points="3241.67,-337.9 3251.67,-334.4 3241.67,-330.9 3241.67,-337.9"/>
</g>
<!-- ../../runtime/dist/interop&#45;interfaces.d.ts&#45;&gt;../../renderer/dist/drawables/index.d.ts -->
<g id="edge78" class="edge">
<title>../../runtime/dist/interop&#45;interfaces.d.ts&#45;&gt;../../renderer/dist/drawables/index.d.ts</title>
<path fill="none" stroke="#757575" d="M1885.81,-393.57C2035.71,-397.16 2333.8,-404.28 2489.7,-408.01"/>
<polygon fill="#757575" stroke="#757575" points="2489.68,-411.51 2499.76,-408.25 2489.85,-404.51 2489.68,-411.51"/>
</g>
<!-- ../../runtime/dist/entities/entity.d.ts&#45;&gt;../../core/dist/index.d.ts -->
<g id="edge63" class="edge">
<title>../../runtime/dist/entities/entity.d.ts&#45;&gt;../../core/dist/index.d.ts</title>
<path fill="none" stroke="#757575" d="M1628.23,-248.9C1693.73,-235.84 1817.45,-212.7 1924,-201.4 2106.51,-182.06 2152.97,-182.4 2336.5,-182.4 2336.5,-182.4 2336.5,-182.4 2811.5,-182.4 2952.24,-182.4 2989.65,-194.39 3123,-239.4 3184.5,-260.16 3251.01,-298.07 3285.74,-319.18"/>
<polygon fill="#757575" stroke="#757575" points="3284.31,-322.41 3294.67,-324.66 3287.98,-316.44 3284.31,-322.41"/>
</g>
<!-- ../../runtime/dist/entities/entity.d.ts&#45;&gt;../../runtime/dist/components/index.d.ts -->
<g id="edge64" class="edge">
<title>../../runtime/dist/entities/entity.d.ts&#45;&gt;../../runtime/dist/components/index.d.ts</title>
<path fill="none" stroke="#757575" d="M1664.18,-258.4C1672.58,-258.4 1681.19,-258.4 1689.78,-258.4"/>
<polygon fill="#757575" stroke="#757575" points="1689.84,-261.9 1699.84,-258.4 1689.84,-254.9 1689.84,-261.9"/>
</g>
<!-- ../../runtime/dist/entities/entity.d.ts&#45;&gt;../../runtime/dist/controllers/index.d.ts -->
<g id="edge65" class="edge">
<title>../../runtime/dist/entities/entity.d.ts&#45;&gt;../../runtime/dist/controllers/index.d.ts</title>
<path fill="none" stroke="#757575" d="M1589.4,-267.99C1607.91,-291.93 1657.76,-356.27 1700,-409.4 1727.51,-444 1760.07,-484.07 1778.46,-506.61"/>
<polygon fill="#757575" stroke="#757575" points="1775.95,-509.07 1784.98,-514.6 1781.37,-504.64 1775.95,-509.07"/>
</g>
<!-- ../../runtime/dist/entities/player&#45;character.d.ts&#45;&gt;../../core/dist/index.d.ts -->
<g id="edge68" class="edge">
<title>../../runtime/dist/entities/player&#45;character.d.ts&#45;&gt;../../core/dist/index.d.ts</title>
<path fill="none" stroke="#757575" d="M1400.69,-191.86C1478.94,-175.64 1648.34,-144.4 1793,-144.4 1793,-144.4 1793,-144.4 2811.5,-144.4 2951.2,-144.4 2994.43,-131.78 3123,-186.4 3196.11,-217.46 3264.67,-285.09 3294.43,-317.03"/>
<polygon fill="#757575" stroke="#757575" points="3292.12,-319.69 3301.46,-324.69 3297.28,-314.96 3292.12,-319.69"/>
</g>
<!-- ../../runtime/dist/entities/player&#45;character.d.ts&#45;&gt;../../runtime/dist/components/status.d.ts -->
<g id="edge69" class="edge">
<title>../../runtime/dist/entities/player&#45;character.d.ts&#45;&gt;../../runtime/dist/components/status.d.ts</title>
<path fill="none" stroke="#757575" d="M1462.02,-204.29C1592.34,-207.87 1813.23,-213.94 1943.52,-217.52"/>
<polygon fill="#757575" stroke="#757575" points="1943.81,-221.03 1953.9,-217.8 1944,-214.03 1943.81,-221.03"/>
</g>
<!-- ../../runtime/dist/entities/player&#45;character.d.ts&#45;&gt;../../runtime/dist/entities/entity.d.ts -->
<g id="edge70" class="edge">
<title>../../runtime/dist/entities/player&#45;character.d.ts&#45;&gt;../../runtime/dist/entities/entity.d.ts</title>
<path fill="none" stroke="#757575" d="M1394.33,-210.94C1432.35,-220.66 1491.45,-235.77 1532.73,-246.32"/>
<polygon fill="#757575" stroke="#757575" points="1532,-249.75 1542.55,-248.83 1533.73,-242.96 1532,-249.75"/>
</g>
<!-- ../../runtime/dist/game&#45;loop.d.ts -->
<g id="node40" class="node">
<title>../../runtime/dist/game&#45;loop.d.ts</title>
<path fill="none" stroke="#cfffac" d="M984.17,-343.9C984.17,-343.9 843.83,-343.9 843.83,-343.9 840.67,-343.9 837.5,-340.74 837.5,-337.57 837.5,-337.57 837.5,-331.24 837.5,-331.24 837.5,-328.07 840.67,-324.9 843.83,-324.9 843.83,-324.9 984.17,-324.9 984.17,-324.9 987.33,-324.9 990.5,-328.07 990.5,-331.24 990.5,-331.24 990.5,-337.57 990.5,-337.57 990.5,-340.74 987.33,-343.9 984.17,-343.9"/>
<text text-anchor="middle" x="914" y="-331.9" font-family="Arial" font-size="10.00" fill="#cfffac">../../runtime/dist/game&#45;loop.d.ts</text>
</g>
<!-- ../../runtime/dist/index.d.ts -->
<g id="node41" class="node">
<title>../../runtime/dist/index.d.ts</title>
<path fill="none" stroke="#c6c5fe" d="M707.17,-362.9C707.17,-362.9 588.83,-362.9 588.83,-362.9 585.67,-362.9 582.5,-359.74 582.5,-356.57 582.5,-356.57 582.5,-350.24 582.5,-350.24 582.5,-347.07 585.67,-343.9 588.83,-343.9 588.83,-343.9 707.17,-343.9 707.17,-343.9 710.33,-343.9 713.5,-347.07 713.5,-350.24 713.5,-350.24 713.5,-356.57 713.5,-356.57 713.5,-359.74 710.33,-362.9 707.17,-362.9"/>
<text text-anchor="middle" x="648" y="-350.9" font-family="Arial" font-size="10.00" fill="#c6c5fe">../../runtime/dist/index.d.ts</text>
</g>
<!-- ../../runtime/dist/index.d.ts&#45;&gt;../../runtime/dist/controllers/index.d.ts -->
<g id="edge71" class="edge">
<title>../../runtime/dist/index.d.ts&#45;&gt;../../runtime/dist/controllers/index.d.ts</title>
<path fill="none" stroke="#757575" d="M677.08,-362.95C750.54,-387.04 954.87,-448.4 1130,-448.4 1130,-448.4 1130,-448.4 1357,-448.4 1494.6,-448.4 1529.17,-460.95 1664,-488.4 1694.57,-494.63 1728.54,-504.22 1753.94,-511.94"/>
<polygon fill="#757575" stroke="#757575" points="1752.99,-515.3 1763.57,-514.9 1755.04,-508.61 1752.99,-515.3"/>
</g>
<!-- ../../runtime/dist/index.d.ts&#45;&gt;../../runtime/dist/game&#45;loop.d.ts -->
<g id="edge72" class="edge">
<title>../../runtime/dist/index.d.ts&#45;&gt;../../runtime/dist/game&#45;loop.d.ts</title>
<path fill="none" stroke="#757575" d="M713.58,-348.75C747.77,-346.29 790.2,-343.24 827.12,-340.58"/>
<polygon fill="#757575" stroke="#757575" points="827.66,-344.05 837.38,-339.85 827.15,-337.07 827.66,-344.05"/>
</g>
<!-- ../../runtime/dist/runtime.d.ts -->
<g id="node42" class="node">
<title>../../runtime/dist/runtime.d.ts</title>
<path fill="none" stroke="#c6c5fe" d="M1644.67,-419.9C1644.67,-419.9 1517.33,-419.9 1517.33,-419.9 1514.17,-419.9 1511,-416.74 1511,-413.57 1511,-413.57 1511,-407.24 1511,-407.24 1511,-404.07 1514.17,-400.9 1517.33,-400.9 1517.33,-400.9 1644.67,-400.9 1644.67,-400.9 1647.83,-400.9 1651,-404.07 1651,-407.24 1651,-407.24 1651,-413.57 1651,-413.57 1651,-416.74 1647.83,-419.9 1644.67,-419.9"/>
<text text-anchor="middle" x="1581" y="-407.9" font-family="Arial" font-size="10.00" fill="#c6c5fe">../../runtime/dist/runtime.d.ts</text>
</g>
<!-- ../../runtime/dist/index.d.ts&#45;&gt;../../runtime/dist/runtime.d.ts -->
<g id="edge73" class="edge">
<title>../../runtime/dist/index.d.ts&#45;&gt;../../runtime/dist/runtime.d.ts</title>
<path fill="none" stroke="#757575" d="M713.73,-357.37C879.58,-367.52 1319.41,-394.45 1500.44,-405.53"/>
<polygon fill="#757575" stroke="#757575" points="1500.49,-409.04 1510.69,-406.16 1500.92,-402.05 1500.49,-409.04"/>
</g>
<!-- ../../runtime/dist/time.d.ts -->
<g id="node43" class="node">
<title>../../runtime/dist/time.d.ts</title>
<path fill="none" stroke="#cfffac" d="M971.17,-306.9C971.17,-306.9 856.83,-306.9 856.83,-306.9 853.67,-306.9 850.5,-303.74 850.5,-300.57 850.5,-300.57 850.5,-294.24 850.5,-294.24 850.5,-291.07 853.67,-287.9 856.83,-287.9 856.83,-287.9 971.17,-287.9 971.17,-287.9 974.33,-287.9 977.5,-291.07 977.5,-294.24 977.5,-294.24 977.5,-300.57 977.5,-300.57 977.5,-303.74 974.33,-306.9 971.17,-306.9"/>
<text text-anchor="middle" x="914" y="-294.9" font-family="Arial" font-size="10.00" fill="#cfffac">../../runtime/dist/time.d.ts</text>
</g>
<!-- ../../runtime/dist/index.d.ts&#45;&gt;../../runtime/dist/time.d.ts -->
<g id="edge74" class="edge">
<title>../../runtime/dist/index.d.ts&#45;&gt;../../runtime/dist/time.d.ts</title>
<path fill="none" stroke="#757575" d="M688.72,-343.89C722.49,-335.92 772.32,-324.42 816,-315.4 826.79,-313.18 838.28,-310.93 849.43,-308.82"/>
<polygon fill="#757575" stroke="#757575" points="850.38,-312.2 859.56,-306.92 849.08,-305.32 850.38,-312.2"/>
</g>
<!-- ../../runtime/dist/utils/index.d.ts -->
<g id="node44" class="node">
<title>../../runtime/dist/utils/index.d.ts</title>
<path fill="none" stroke="#c6c5fe" d="M1200.67,-77.9C1200.67,-77.9 1061.33,-77.9 1061.33,-77.9 1058.17,-77.9 1055,-74.74 1055,-71.57 1055,-71.57 1055,-65.24 1055,-65.24 1055,-62.07 1058.17,-58.9 1061.33,-58.9 1061.33,-58.9 1200.67,-58.9 1200.67,-58.9 1203.83,-58.9 1207,-62.07 1207,-65.24 1207,-65.24 1207,-71.57 1207,-71.57 1207,-74.74 1203.83,-77.9 1200.67,-77.9"/>
<text text-anchor="middle" x="1131" y="-65.9" font-family="Arial" font-size="10.00" fill="#c6c5fe">../../runtime/dist/utils/index.d.ts</text>
</g>
<!-- ../../runtime/dist/index.d.ts&#45;&gt;../../runtime/dist/utils/index.d.ts -->
<g id="edge75" class="edge">
<title>../../runtime/dist/index.d.ts&#45;&gt;../../runtime/dist/utils/index.d.ts</title>
<path fill="none" stroke="#757575" d="M660.55,-343.7C706.4,-305.68 881.15,-165.37 1048,-92.4 1058.09,-87.99 1069.23,-84.12 1079.96,-80.84"/>
<polygon fill="#757575" stroke="#757575" points="1081.04,-84.17 1089.65,-78.01 1079.07,-77.45 1081.04,-84.17"/>
</g>
<!-- ../../runtime/dist/world/world.d.ts -->
<g id="node45" class="node">
<title>../../runtime/dist/world/world.d.ts</title>
<path fill="none" stroke="#c6c5fe" d="M986.67,-259.9C986.67,-259.9 841.33,-259.9 841.33,-259.9 838.17,-259.9 835,-256.74 835,-253.57 835,-253.57 835,-247.24 835,-247.24 835,-244.07 838.17,-240.9 841.33,-240.9 841.33,-240.9 986.67,-240.9 986.67,-240.9 989.83,-240.9 993,-244.07 993,-247.24 993,-247.24 993,-253.57 993,-253.57 993,-256.74 989.83,-259.9 986.67,-259.9"/>
<text text-anchor="middle" x="914" y="-247.9" font-family="Arial" font-size="10.00" fill="#c6c5fe">../../runtime/dist/world/world.d.ts</text>
</g>
<!-- ../../runtime/dist/index.d.ts&#45;&gt;../../runtime/dist/world/world.d.ts -->
<g id="edge76" class="edge">
<title>../../runtime/dist/index.d.ts&#45;&gt;../../runtime/dist/world/world.d.ts</title>
<path fill="none" stroke="#757575" d="M668.17,-343.72C698.84,-328.48 761.1,-298.54 816,-278.4 831.94,-272.55 849.71,-267.12 865.64,-262.63"/>
<polygon fill="#757575" stroke="#757575" points="866.59,-266 875.29,-259.96 864.72,-259.25 866.59,-266"/>
</g>
<!-- ../../runtime/dist/runtime.d.ts&#45;&gt;../../network/dist/index.d.ts -->
<g id="edge79" class="edge">
<title>../../runtime/dist/runtime.d.ts&#45;&gt;../../network/dist/index.d.ts</title>
<path fill="none" stroke="#757575" d="M1639.16,-419.91C1707.05,-431.17 1823.74,-450.41 1924,-466.4 2035.48,-484.19 2074.22,-454.53 2175,-505.4 2242.96,-539.7 2300.18,-613.14 2324.28,-647.27"/>
<polygon fill="#757575" stroke="#757575" points="2321.61,-649.56 2330.18,-655.79 2327.36,-645.57 2321.61,-649.56"/>
</g>
<!-- ../../runtime/dist/runtime.d.ts&#45;&gt;../../runtime/dist/controllers/index.d.ts -->
<g id="edge80" class="edge">
<title>../../runtime/dist/runtime.d.ts&#45;&gt;../../runtime/dist/controllers/index.d.ts</title>
<path fill="none" stroke="#757575" d="M1637.01,-419.99C1646.68,-423.42 1656.14,-428.08 1664,-434.4 1690.02,-455.36 1673.64,-479.86 1700,-500.4 1705.48,-504.67 1711.64,-508.19 1718.11,-511.08"/>
<polygon fill="#757575" stroke="#757575" points="1717.18,-514.48 1727.77,-514.89 1719.75,-507.97 1717.18,-514.48"/>
</g>
<!-- ../../runtime/dist/runtime.d.ts&#45;&gt;../../runtime/dist/interop&#45;interfaces.d.ts -->
<g id="edge81" class="edge">
<title>../../runtime/dist/runtime.d.ts&#45;&gt;../../runtime/dist/interop&#45;interfaces.d.ts</title>
<path fill="none" stroke="#757575" d="M1651.09,-404.18C1664.24,-403 1678.26,-401.74 1692.16,-400.48"/>
<polygon fill="#757575" stroke="#757575" points="1692.61,-403.96 1702.25,-399.57 1691.98,-396.99 1692.61,-403.96"/>
</g>
<!-- ../../runtime/dist/utils/object&#45;types.d.ts -->
<g id="node48" class="node">
<title>../../runtime/dist/utils/object&#45;types.d.ts</title>
<path fill="none" stroke="#cfffac" d="M1878.67,-58.9C1878.67,-58.9 1709.33,-58.9 1709.33,-58.9 1706.17,-58.9 1703,-55.74 1703,-52.57 1703,-52.57 1703,-46.24 1703,-46.24 1703,-43.07 1706.17,-39.9 1709.33,-39.9 1709.33,-39.9 1878.67,-39.9 1878.67,-39.9 1881.83,-39.9 1885,-43.07 1885,-46.24 1885,-46.24 1885,-52.57 1885,-52.57 1885,-55.74 1881.83,-58.9 1878.67,-58.9"/>
<text text-anchor="middle" x="1794" y="-46.9" font-family="Arial" font-size="10.00" fill="#cfffac">../../runtime/dist/utils/object&#45;types.d.ts</text>
</g>
<!-- ../../runtime/dist/utils/index.d.ts&#45;&gt;../../runtime/dist/utils/object&#45;types.d.ts -->
<g id="edge86" class="edge">
<title>../../runtime/dist/utils/index.d.ts&#45;&gt;../../runtime/dist/utils/object&#45;types.d.ts</title>
<path fill="none" stroke="#757575" d="M1207.18,-66.24C1326.48,-62.81 1559.26,-56.12 1692.67,-52.29"/>
<polygon fill="#757575" stroke="#757575" points="1692.99,-55.78 1702.89,-51.99 1692.79,-48.78 1692.99,-55.78"/>
</g>
<!-- ../../runtime/dist/utils/tilemap&#45;parsing.d.ts -->
<g id="node49" class="node">
<title>../../runtime/dist/utils/tilemap&#45;parsing.d.ts</title>
<path fill="none" stroke="#c6c5fe" d="M1447.17,-39.9C1447.17,-39.9 1264.83,-39.9 1264.83,-39.9 1261.67,-39.9 1258.5,-36.74 1258.5,-33.57 1258.5,-33.57 1258.5,-27.24 1258.5,-27.24 1258.5,-24.07 1261.67,-20.9 1264.83,-20.9 1264.83,-20.9 1447.17,-20.9 1447.17,-20.9 1450.33,-20.9 1453.5,-24.07 1453.5,-27.24 1453.5,-27.24 1453.5,-33.57 1453.5,-33.57 1453.5,-36.74 1450.33,-39.9 1447.17,-39.9"/>
<text text-anchor="middle" x="1356" y="-27.9" font-family="Arial" font-size="10.00" fill="#c6c5fe">../../runtime/dist/utils/tilemap&#45;parsing.d.ts</text>
</g>
<!-- ../../runtime/dist/utils/index.d.ts&#45;&gt;../../runtime/dist/utils/tilemap&#45;parsing.d.ts -->
<g id="edge87" class="edge">
<title>../../runtime/dist/utils/index.d.ts&#45;&gt;../../runtime/dist/utils/tilemap&#45;parsing.d.ts</title>
<path fill="none" stroke="#757575" d="M1187.98,-58.86C1218.6,-53.65 1256.72,-47.15 1288.8,-41.68"/>
<polygon fill="#757575" stroke="#757575" points="1289.72,-45.08 1298.99,-39.95 1288.55,-38.18 1289.72,-45.08"/>
</g>
<!-- ../../runtime/dist/utils/types.d.ts -->
<g id="node50" class="node">
<title>../../runtime/dist/utils/types.d.ts</title>
<path fill="none" stroke="#c6c5fe" d="M1651.17,-39.9C1651.17,-39.9 1510.83,-39.9 1510.83,-39.9 1507.67,-39.9 1504.5,-36.74 1504.5,-33.57 1504.5,-33.57 1504.5,-27.24 1504.5,-27.24 1504.5,-24.07 1507.67,-20.9 1510.83,-20.9 1510.83,-20.9 1651.17,-20.9 1651.17,-20.9 1654.33,-20.9 1657.5,-24.07 1657.5,-27.24 1657.5,-27.24 1657.5,-33.57 1657.5,-33.57 1657.5,-36.74 1654.33,-39.9 1651.17,-39.9"/>
<text text-anchor="middle" x="1581" y="-27.9" font-family="Arial" font-size="10.00" fill="#c6c5fe">../../runtime/dist/utils/types.d.ts</text>
</g>
<!-- ../../runtime/dist/utils/index.d.ts&#45;&gt;../../runtime/dist/utils/types.d.ts -->
<g id="edge88" class="edge">
<title>../../runtime/dist/utils/index.d.ts&#45;&gt;../../runtime/dist/utils/types.d.ts</title>
<path fill="none" stroke="#757575" d="M1146.47,-58.73C1167.96,-45.01 1210.08,-20.54 1250,-11.4 1347.04,10.81 1464.09,-5.81 1529.48,-18.83"/>
<polygon fill="#757575" stroke="#757575" points="1529.02,-22.31 1539.52,-20.88 1530.42,-15.45 1529.02,-22.31"/>
</g>
<!-- ../../runtime/dist/world/world.d.ts&#45;&gt;../../core/dist/index.d.ts -->
<g id="edge91" class="edge">
<title>../../runtime/dist/world/world.d.ts&#45;&gt;../../core/dist/index.d.ts</title>
<path fill="none" stroke="#757575" d="M931.55,-240.73C988.4,-208.44 1181.79,-106.4 1355,-106.4 1355,-106.4 1355,-106.4 2811.5,-106.4 2950.77,-106.4 2997.98,-79.04 3123,-140.4 3206.59,-181.43 3273.24,-275.94 3298.76,-315.96"/>
<polygon fill="#757575" stroke="#757575" points="3295.82,-317.86 3304.09,-324.48 3301.76,-314.14 3295.82,-317.86"/>
</g>
<!-- ../../runtime/dist/world/world.d.ts&#45;&gt;../../runtime/dist/entities/index.d.ts -->
<g id="edge92" class="edge">
<title>../../runtime/dist/world/world.d.ts&#45;&gt;../../runtime/dist/entities/index.d.ts</title>
<path fill="none" stroke="#757575" d="M993.23,-256.95C1007.67,-258.16 1022.87,-259.43 1037.68,-260.67"/>
<polygon fill="#757575" stroke="#757575" points="1037.59,-264.18 1047.85,-261.53 1038.18,-257.2 1037.59,-264.18"/>
</g>
<!-- ../../runtime/dist/world/world.d.ts&#45;&gt;../../runtime/dist/utils/index.d.ts -->
<g id="edge93" class="edge">
<title>../../runtime/dist/world/world.d.ts&#45;&gt;../../runtime/dist/utils/index.d.ts</title>
<path fill="none" stroke="#757575" d="M925.63,-240.7C944.3,-223.39 983.67,-185.58 1012,-149.4 1030.47,-125.81 1024.08,-110.44 1048,-92.4 1053.78,-88.04 1060.34,-84.47 1067.17,-81.55"/>
<polygon fill="#757575" stroke="#757575" points="1068.5,-84.79 1076.6,-77.95 1066.01,-78.25 1068.5,-84.79"/>
</g>
<!-- ../../runtime/dist/state/game&#45;state.d.ts&#45;&gt;../../runtime/dist/state/player&#45;state.d.ts -->
<g id="edge82" class="edge">
<title>../../runtime/dist/state/game&#45;state.d.ts&#45;&gt;../../runtime/dist/state/player&#45;state.d.ts</title>
<path fill="none" stroke="#757575" d="M2901.63,-258.4C2910.52,-258.4 2919.57,-258.4 2928.56,-258.4"/>
<polygon fill="#757575" stroke="#757575" points="2928.66,-261.9 2938.66,-258.4 2928.66,-254.9 2928.66,-261.9"/>
</g>
<!-- ../../runtime/dist/state/player&#45;state.d.ts&#45;&gt;../../core/dist/index.d.ts -->
<g id="edge85" class="edge">
<title>../../runtime/dist/state/player&#45;state.d.ts&#45;&gt;../../core/dist/index.d.ts</title>
<path fill="none" stroke="#757575" d="M3068.78,-267.98C3085.36,-272.33 3105.18,-277.58 3123,-282.4 3172.26,-295.75 3228.69,-311.5 3266.57,-322.15"/>
<polygon fill="#757575" stroke="#757575" points="3265.68,-325.53 3276.26,-324.87 3267.58,-318.8 3265.68,-325.53"/>
</g>
<!-- ../../runtime/dist/utils/tilemap&#45;parsing.d.ts&#45;&gt;../../runtime/dist/utils/types.d.ts -->
<g id="edge89" class="edge">
<title>../../runtime/dist/utils/tilemap&#45;parsing.d.ts&#45;&gt;../../runtime/dist/utils/types.d.ts</title>
<path fill="none" stroke="#757575" d="M1453.51,-30.4C1467.02,-30.4 1480.83,-30.4 1494.12,-30.4"/>
<polygon fill="#757575" stroke="#757575" points="1494.17,-33.9 1504.17,-30.4 1494.17,-26.9 1494.17,-33.9"/>
</g>
<!-- ../../runtime/dist/utils/types.d.ts&#45;&gt;../../runtime/dist/utils/object&#45;types.d.ts -->
<g id="edge90" class="edge">
<title>../../runtime/dist/utils/types.d.ts&#45;&gt;../../runtime/dist/utils/object&#45;types.d.ts</title>
<path fill="none" stroke="#757575" d="M1657.58,-37.21C1668.92,-38.23 1680.76,-39.3 1692.53,-40.36"/>
<polygon fill="#757575" stroke="#757575" points="1692.55,-43.87 1702.82,-41.28 1693.18,-36.9 1692.55,-43.87"/>
</g>
<!-- ../../world&#45;configs/dist/index.d.ts -->
<g id="node51" class="node">
<title>../../world&#45;configs/dist/index.d.ts</title>
<path fill="none" stroke="#c6c5fe" d="M240.67,-434.9C240.67,-434.9 96.33,-434.9 96.33,-434.9 93.17,-434.9 90,-431.74 90,-428.57 90,-428.57 90,-422.24 90,-422.24 90,-419.07 93.17,-415.9 96.33,-415.9 96.33,-415.9 240.67,-415.9 240.67,-415.9 243.83,-415.9 247,-419.07 247,-422.24 247,-422.24 247,-428.57 247,-428.57 247,-431.74 243.83,-434.9 240.67,-434.9"/>
<text text-anchor="middle" x="168.5" y="-422.9" font-family="Arial" font-size="10.00" fill="#c6c5fe">../../world&#45;configs/dist/index.d.ts</text>
</g>
<!-- ../../world&#45;configs/dist/sandbox/index.d.ts -->
<g id="node52" class="node">
<title>../../world&#45;configs/dist/sandbox/index.d.ts</title>
<path fill="none" stroke="#c6c5fe" d="M473.67,-419.9C473.67,-419.9 289.33,-419.9 289.33,-419.9 286.17,-419.9 283,-416.74 283,-413.57 283,-413.57 283,-407.24 283,-407.24 283,-404.07 286.17,-400.9 289.33,-400.9 289.33,-400.9 473.67,-400.9 473.67,-400.9 476.83,-400.9 480,-404.07 480,-407.24 480,-407.24 480,-413.57 480,-413.57 480,-416.74 476.83,-419.9 473.67,-419.9"/>
<text text-anchor="middle" x="381.5" y="-407.9" font-family="Arial" font-size="10.00" fill="#c6c5fe">../../world&#45;configs/dist/sandbox/index.d.ts</text>
</g>
<!-- ../../world&#45;configs/dist/index.d.ts&#45;&gt;../../world&#45;configs/dist/sandbox/index.d.ts -->
<g id="edge94" class="edge">
<title>../../world&#45;configs/dist/index.d.ts&#45;&gt;../../world&#45;configs/dist/sandbox/index.d.ts</title>
<path fill="none" stroke="#757575" d="M247.17,-419.88C255.53,-419.29 264.14,-418.67 272.78,-418.06"/>
<polygon fill="#757575" stroke="#757575" points="273.18,-421.54 282.9,-417.34 272.68,-414.56 273.18,-421.54"/>
</g>
<!-- ../../world&#45;configs/dist/sandbox/index.d.ts&#45;&gt;../../runtime/dist/index.d.ts -->
<g id="edge95" class="edge">
<title>../../world&#45;configs/dist/sandbox/index.d.ts&#45;&gt;../../runtime/dist/index.d.ts</title>
<path fill="none" stroke="#757575" d="M426.77,-400.86C472.45,-391.02 543.75,-375.65 592.78,-365.09"/>
<polygon fill="#757575" stroke="#757575" points="593.55,-368.5 602.58,-362.97 592.07,-361.66 593.55,-368.5"/>
</g>
<!-- app.ts -->
<g id="node53" class="node">
<title>app.ts</title>
<path fill="none" stroke="#c6c5fe" d="M47.67,-647.9C47.67,-647.9 6.33,-647.9 6.33,-647.9 3.17,-647.9 0,-644.74 0,-641.57 0,-641.57 0,-635.24 0,-635.24 0,-632.07 3.17,-628.9 6.33,-628.9 6.33,-628.9 47.67,-628.9 47.67,-628.9 50.83,-628.9 54,-632.07 54,-635.24 54,-635.24 54,-641.57 54,-641.57 54,-644.74 50.83,-647.9 47.67,-647.9"/>
<text text-anchor="middle" x="27" y="-635.9" font-family="Arial" font-size="10.00" fill="#c6c5fe">app.ts</text>
</g>
<!-- app.ts&#45;&gt;../../network/dist/index.d.ts -->
<g id="edge96" class="edge">
<title>app.ts&#45;&gt;../../network/dist/index.d.ts</title>
<path fill="none" stroke="#757575" d="M28.86,-648.26C31.77,-675.16 43.86,-750.02 90,-783.4 194.99,-859.36 250.91,-808.4 380.5,-808.4 380.5,-808.4 380.5,-808.4 1795,-808.4 1995.94,-808.4 2225.34,-715.21 2306.3,-679.29"/>
<polygon fill="#757575" stroke="#757575" points="2308.17,-682.29 2315.86,-675.01 2305.31,-675.9 2308.17,-682.29"/>
</g>
<!-- app.ts&#45;&gt;../../runtime/dist/controllers/index.d.ts -->
<g id="edge97" class="edge">
<title>app.ts&#45;&gt;../../runtime/dist/controllers/index.d.ts</title>
<path fill="none" stroke="#757575" d="M35.6,-628.9C46.24,-616.43 66.86,-595.12 90,-586.4 306.31,-504.86 898.83,-562.4 1130,-562.4 1130,-562.4 1130,-562.4 1357,-562.4 1482.89,-562.4 1628.46,-546.48 1715.5,-535.25"/>
<polygon fill="#757575" stroke="#757575" points="1716.1,-538.71 1725.56,-533.94 1715.2,-531.76 1716.1,-538.71"/>
</g>
<!-- app.ts&#45;&gt;../../runtime/dist/index.d.ts -->
<g id="edge98" class="edge">
<title>app.ts&#45;&gt;../../runtime/dist/index.d.ts</title>
<path fill="none" stroke="#757575" d="M30.64,-628.84C37.03,-607.51 55.43,-555.88 90,-529.4 232.16,-420.54 311.06,-487.74 480,-428.4 530.49,-410.67 586.81,-383.82 619.45,-367.51"/>
<polygon fill="#757575" stroke="#757575" points="621.03,-370.64 628.39,-363.01 617.88,-364.38 621.03,-370.64"/>
</g>
<!-- app.ts&#45;&gt;../../world&#45;configs/dist/index.d.ts -->
<g id="edge99" class="edge">
<title>app.ts&#45;&gt;../../world&#45;configs/dist/index.d.ts</title>
<path fill="none" stroke="#757575" d="M29.62,-628.68C34.49,-601.95 51.13,-526.09 90,-477.4 102.68,-461.52 121.53,-448.73 137.46,-439.8"/>
<polygon fill="#757575" stroke="#757575" points="139.27,-442.8 146.44,-435 135.97,-436.63 139.27,-442.8"/>
</g>
<!-- constants.ts -->
<g id="node54" class="node">
<title>constants.ts</title>
<path fill="none" stroke="#cfffac" d="M677.17,-666.9C677.17,-666.9 618.83,-666.9 618.83,-666.9 615.67,-666.9 612.5,-663.74 612.5,-660.57 612.5,-660.57 612.5,-654.24 612.5,-654.24 612.5,-651.07 615.67,-647.9 618.83,-647.9 618.83,-647.9 677.17,-647.9 677.17,-647.9 680.33,-647.9 683.5,-651.07 683.5,-654.24 683.5,-654.24 683.5,-660.57 683.5,-660.57 683.5,-663.74 680.33,-666.9 677.17,-666.9"/>
<text text-anchor="middle" x="648" y="-654.9" font-family="Arial" font-size="10.00" fill="#cfffac">constants.ts</text>
</g>
<!-- app.ts&#45;&gt;constants.ts -->
<g id="edge100" class="edge">
<title>app.ts&#45;&gt;constants.ts</title>
<path fill="none" stroke="#757575" d="M54.2,-639.21C149.9,-642.14 481.25,-652.32 602.28,-656.03"/>
<polygon fill="#757575" stroke="#757575" points="602.22,-659.53 612.32,-656.34 602.43,-652.53 602.22,-659.53"/>
</g>
<!-- controllers/home.ts -->
<g id="node55" class="node">
<title>controllers/home.ts</title>
<path fill="none" stroke="#cfffac" d="M212.17,-628.9C212.17,-628.9 124.83,-628.9 124.83,-628.9 121.67,-628.9 118.5,-625.74 118.5,-622.57 118.5,-622.57 118.5,-616.24 118.5,-616.24 118.5,-613.07 121.67,-609.9 124.83,-609.9 124.83,-609.9 212.17,-609.9 212.17,-609.9 215.33,-609.9 218.5,-613.07 218.5,-616.24 218.5,-616.24 218.5,-622.57 218.5,-622.57 218.5,-625.74 215.33,-628.9 212.17,-628.9"/>
<text text-anchor="middle" x="168.5" y="-616.9" font-family="Arial" font-size="10.00" fill="#cfffac">controllers/home.ts</text>
</g>
<!-- app.ts&#45;&gt;controllers/home.ts -->
<g id="edge101" class="edge">
<title>app.ts&#45;&gt;controllers/home.ts</title>
<path fill="none" stroke="#757575" d="M54.24,-634.83C69.49,-632.75 89.37,-630.04 108.2,-627.48"/>
<polygon fill="#757575" stroke="#757575" points="108.79,-630.93 118.23,-626.11 107.84,-624 108.79,-630.93"/>
</g>
<!-- controllers/play.ts -->
<g id="node56" class="node">
<title>controllers/play.ts</title>
<path fill="none" stroke="#c6c5fe" d="M208.67,-741.9C208.67,-741.9 128.33,-741.9 128.33,-741.9 125.17,-741.9 122,-738.74 122,-735.57 122,-735.57 122,-729.24 122,-729.24 122,-726.07 125.17,-722.9 128.33,-722.9 128.33,-722.9 208.67,-722.9 208.67,-722.9 211.83,-722.9 215,-726.07 215,-729.24 215,-729.24 215,-735.57 215,-735.57 215,-738.74 211.83,-741.9 208.67,-741.9"/>
<text text-anchor="middle" x="168.5" y="-729.9" font-family="Arial" font-size="10.00" fill="#c6c5fe">controllers/play.ts</text>
</g>
<!-- app.ts&#45;&gt;controllers/play.ts -->
<g id="edge102" class="edge">
<title>app.ts&#45;&gt;controllers/play.ts</title>
<path fill="none" stroke="#757575" d="M33.05,-648.06C42.13,-664.42 62.83,-697.47 90,-714.4 96.68,-718.56 104.22,-721.76 111.91,-724.23"/>
<polygon fill="#757575" stroke="#757575" points="111.1,-727.64 121.68,-726.97 112.99,-720.9 111.1,-727.64"/>
</g>
<!-- controllers/room.ts -->
<g id="node57" class="node">
<title>controllers/room.ts</title>
<path fill="none" stroke="#c6c5fe" d="M211.17,-704.9C211.17,-704.9 125.83,-704.9 125.83,-704.9 122.67,-704.9 119.5,-701.74 119.5,-698.57 119.5,-698.57 119.5,-692.24 119.5,-692.24 119.5,-689.07 122.67,-685.9 125.83,-685.9 125.83,-685.9 211.17,-685.9 211.17,-685.9 214.33,-685.9 217.5,-689.07 217.5,-692.24 217.5,-692.24 217.5,-698.57 217.5,-698.57 217.5,-701.74 214.33,-704.9 211.17,-704.9"/>
<text text-anchor="middle" x="168.5" y="-692.9" font-family="Arial" font-size="10.00" fill="#c6c5fe">controllers/room.ts</text>
</g>
<!-- app.ts&#45;&gt;controllers/room.ts -->
<g id="edge103" class="edge">
<title>app.ts&#45;&gt;controllers/room.ts</title>
<path fill="none" stroke="#757575" d="M43.91,-647.95C56.2,-655.05 73.79,-664.65 90,-671.4 100.05,-675.59 111.1,-679.44 121.62,-682.77"/>
<polygon fill="#757575" stroke="#757575" points="120.92,-686.21 131.5,-685.79 122.97,-679.52 120.92,-686.21"/>
</g>
<!-- util/redis&#45;interface.ts -->
<g id="node58" class="node">
<title>util/redis&#45;interface.ts</title>
<path fill="none" stroke="#c6c5fe" d="M427.67,-779.9C427.67,-779.9 335.33,-779.9 335.33,-779.9 332.17,-779.9 329,-776.74 329,-773.57 329,-773.57 329,-767.24 329,-767.24 329,-764.07 332.17,-760.9 335.33,-760.9 335.33,-760.9 427.67,-760.9 427.67,-760.9 430.83,-760.9 434,-764.07 434,-767.24 434,-767.24 434,-773.57 434,-773.57 434,-776.74 430.83,-779.9 427.67,-779.9"/>
<text text-anchor="middle" x="381.5" y="-767.9" font-family="Arial" font-size="10.00" fill="#c6c5fe">util/redis&#45;interface.ts</text>
</g>
<!-- app.ts&#45;&gt;util/redis&#45;interface.ts -->
<g id="edge104" class="edge">
<title>app.ts&#45;&gt;util/redis&#45;interface.ts</title>
<path fill="none" stroke="#757575" d="M30.02,-648.12C35.31,-670.8 51.88,-727.12 90,-751.4 161.27,-796.8 263.36,-791 325.61,-781.52"/>
<polygon fill="#757575" stroke="#757575" points="326.3,-784.95 335.62,-779.91 325.19,-778.04 326.3,-784.95"/>
</g>
<!-- util/workers.ts -->
<g id="node59" class="node">
<title>util/workers.ts</title>
<path fill="none" stroke="#c6c5fe" d="M414.17,-628.9C414.17,-628.9 348.83,-628.9 348.83,-628.9 345.67,-628.9 342.5,-625.74 342.5,-622.57 342.5,-622.57 342.5,-616.24 342.5,-616.24 342.5,-613.07 345.67,-609.9 348.83,-609.9 348.83,-609.9 414.17,-609.9 414.17,-609.9 417.33,-609.9 420.5,-613.07 420.5,-616.24 420.5,-616.24 420.5,-622.57 420.5,-622.57 420.5,-625.74 417.33,-628.9 414.17,-628.9"/>
<text text-anchor="middle" x="381.5" y="-616.9" font-family="Arial" font-size="10.00" fill="#c6c5fe">util/workers.ts</text>
</g>
<!-- app.ts&#45;&gt;util/workers.ts -->
<g id="edge105" class="edge">
<title>app.ts&#45;&gt;util/workers.ts</title>
<path fill="none" stroke="#757575" d="M39.91,-628.6C51.77,-619.53 70.91,-606.67 90,-601.4 174.1,-578.22 276.88,-594.49 334.9,-607.54"/>
<polygon fill="#757575" stroke="#757575" points="334.32,-611 344.85,-609.85 335.9,-604.18 334.32,-611"/>
</g>
<!-- controllers/play.ts&#45;&gt;util/redis&#45;interface.ts -->
<g id="edge107" class="edge">
<title>controllers/play.ts&#45;&gt;util/redis&#45;interface.ts</title>
<path fill="none" stroke="#757575" d="M215.02,-740.6C245.33,-746.06 285.51,-753.3 318.7,-759.27"/>
<polygon fill="#757575" stroke="#757575" points="318.29,-762.76 328.75,-761.08 319.53,-755.87 318.29,-762.76"/>
</g>
<!-- util/cookies.ts -->
<g id="node60" class="node">
<title>util/cookies.ts</title>
<path fill="none" stroke="#cfffac" d="M413.67,-742.9C413.67,-742.9 349.33,-742.9 349.33,-742.9 346.17,-742.9 343,-739.74 343,-736.57 343,-736.57 343,-730.24 343,-730.24 343,-727.07 346.17,-723.9 349.33,-723.9 349.33,-723.9 413.67,-723.9 413.67,-723.9 416.83,-723.9 420,-727.07 420,-730.24 420,-730.24 420,-736.57 420,-736.57 420,-739.74 416.83,-742.9 413.67,-742.9"/>
<text text-anchor="middle" x="381.5" y="-730.9" font-family="Arial" font-size="10.00" fill="#cfffac">util/cookies.ts</text>
</g>
<!-- controllers/play.ts&#45;&gt;util/cookies.ts -->
<g id="edge106" class="edge">
<title>controllers/play.ts&#45;&gt;util/cookies.ts</title>
<path fill="none" stroke="#757575" d="M215.02,-732.62C249.76,-732.78 297.48,-733.01 332.75,-733.18"/>
<polygon fill="#757575" stroke="#757575" points="332.79,-736.68 342.81,-733.22 332.82,-729.68 332.79,-736.68"/>
</g>
<!-- controllers/room.ts&#45;&gt;../../network/dist/index.d.ts -->
<g id="edge108" class="edge">
<title>controllers/room.ts&#45;&gt;../../network/dist/index.d.ts</title>
<path fill="none" stroke="#757575" d="M217.62,-695.4C303.74,-695.4 489.91,-695.4 647,-695.4 647,-695.4 647,-695.4 1795,-695.4 1961.07,-695.4 2155.34,-681.16 2260.13,-672.3"/>
<polygon fill="#757575" stroke="#757575" points="2260.63,-675.77 2270.3,-671.44 2260.03,-668.8 2260.63,-675.77"/>
</g>
<!-- controllers/room.ts&#45;&gt;util/redis&#45;interface.ts -->
<g id="edge110" class="edge">
<title>controllers/room.ts&#45;&gt;util/redis&#45;interface.ts</title>
<path fill="none" stroke="#757575" d="M217.88,-702.75C227.92,-705.49 238.14,-709.25 247,-714.4 267.11,-726.09 262.56,-741.3 283,-752.4 293.98,-758.37 306.57,-762.39 318.98,-765.11"/>
<polygon fill="#757575" stroke="#757575" points="318.38,-768.55 328.86,-767.01 319.7,-761.68 318.38,-768.55"/>
</g>
<!-- controllers/room.ts&#45;&gt;util/workers.ts -->
<g id="edge111" class="edge">
<title>controllers/room.ts&#45;&gt;util/workers.ts</title>
<path fill="none" stroke="#757575" d="M196.22,-685.78C233.8,-672.24 302.35,-647.55 344.42,-632.4"/>
<polygon fill="#757575" stroke="#757575" points="345.77,-635.63 353.99,-628.95 343.4,-629.05 345.77,-635.63"/>
</g>
<!-- controllers/room.ts&#45;&gt;util/cookies.ts -->
<g id="edge109" class="edge">
<title>controllers/room.ts&#45;&gt;util/cookies.ts</title>
<path fill="none" stroke="#757575" d="M217.64,-704.07C252.03,-710.27 298.11,-718.56 332.47,-724.75"/>
<polygon fill="#757575" stroke="#757575" points="332.27,-728.27 342.74,-726.6 333.51,-721.38 332.27,-728.27"/>
</g>
<!-- util/redis&#45;interface.ts&#45;&gt;constants.ts -->
<g id="edge112" class="edge">
<title>util/redis&#45;interface.ts&#45;&gt;constants.ts</title>
<path fill="none" stroke="#757575" d="M434.22,-764.17C449.26,-761.47 465.53,-757.68 480,-752.4 535.9,-732.01 594.99,-693.91 625.67,-672.68"/>
<polygon fill="#757575" stroke="#757575" points="627.72,-675.52 633.9,-666.92 623.7,-669.79 627.72,-675.52"/>
</g>
<!-- util/redis&#45;helpers.ts -->
<g id="node61" class="node">
<title>util/redis&#45;helpers.ts</title>
<path fill="none" stroke="#cfffac" d="M691.17,-779.9C691.17,-779.9 604.83,-779.9 604.83,-779.9 601.67,-779.9 598.5,-776.74 598.5,-773.57 598.5,-773.57 598.5,-767.24 598.5,-767.24 598.5,-764.07 601.67,-760.9 604.83,-760.9 604.83,-760.9 691.17,-760.9 691.17,-760.9 694.33,-760.9 697.5,-764.07 697.5,-767.24 697.5,-767.24 697.5,-773.57 697.5,-773.57 697.5,-776.74 694.33,-779.9 691.17,-779.9"/>
<text text-anchor="middle" x="648" y="-767.9" font-family="Arial" font-size="10.00" fill="#cfffac">util/redis&#45;helpers.ts</text>
</g>
<!-- util/redis&#45;interface.ts&#45;&gt;util/redis&#45;helpers.ts -->
<g id="edge113" class="edge">
<title>util/redis&#45;interface.ts&#45;&gt;util/redis&#45;helpers.ts</title>
<path fill="none" stroke="#757575" d="M434.13,-770.4C478.29,-770.4 541.86,-770.4 588.02,-770.4"/>
<polygon fill="#757575" stroke="#757575" points="588.18,-773.9 598.18,-770.4 588.18,-766.9 588.18,-773.9"/>
</g>
<!-- util/workers.ts&#45;&gt;constants.ts -->
<g id="edge114" class="edge">
<title>util/workers.ts&#45;&gt;constants.ts</title>
<path fill="none" stroke="#757575" d="M420.68,-624.89C468.73,-631.79 551.13,-643.63 602.13,-650.96"/>
<polygon fill="#757575" stroke="#757575" points="601.81,-654.45 612.21,-652.4 602.81,-647.52 601.81,-654.45"/>
</g>
</g>
</svg>
