<?xml version="1.0" encoding="UTF-8" standalone="no"?>
<!DOCTYPE svg PUBLIC "-//W3C//DTD SVG 1.1//EN"
 "http://www.w3.org/Graphics/SVG/1.1/DTD/svg11.dtd">
<!-- Generated by graphviz version 2.44.1 (20200629.0846)
 -->
<!-- Title: G Pages: 1 -->
<svg width="264pt" height="99pt"
 viewBox="0.00 0.00 264.20 99.20" xmlns="http://www.w3.org/2000/svg" xmlns:xlink="http://www.w3.org/1999/xlink">
<g id="graph0" class="graph" transform="scale(1 1) rotate(0) translate(21.6 77.6)">
<title>G</title>
<polygon fill="#111111" stroke="transparent" points="-21.6,21.6 -21.6,-77.6 242.6,-77.6 242.6,21.6 -21.6,21.6"/>
<!-- __tests__/vector2.test.ts -->
<g id="node1" class="node">
<title>__tests__/vector2.test.ts</title>
<path fill="none" stroke="#c6c5fe" d="M118.67,-56C118.67,-56 6.33,-56 6.33,-56 3.17,-56 0,-52.83 0,-49.67 0,-49.67 0,-43.33 0,-43.33 0,-40.17 3.17,-37 6.33,-37 6.33,-37 118.67,-37 118.67,-37 121.83,-37 125,-40.17 125,-43.33 125,-43.33 125,-49.67 125,-49.67 125,-52.83 121.83,-56 118.67,-56"/>
<text text-anchor="middle" x="62.5" y="-44" font-family="Arial" font-size="10.00" fill="#c6c5fe">__tests__/vector2.test.ts</text>
</g>
<!-- vector2.ts -->
<g id="node2" class="node">
<title>vector2.ts</title>
<path fill="none" stroke="#cfffac" d="M214.67,-56C214.67,-56 167.33,-56 167.33,-56 164.17,-56 161,-52.83 161,-49.67 161,-49.67 161,-43.33 161,-43.33 161,-40.17 164.17,-37 167.33,-37 167.33,-37 214.67,-37 214.67,-37 217.83,-37 221,-40.17 221,-43.33 221,-43.33 221,-49.67 221,-49.67 221,-52.83 217.83,-56 214.67,-56"/>
<text text-anchor="middle" x="191" y="-44" font-family="Arial" font-size="10.00" fill="#cfffac">vector2.ts</text>
</g>
<!-- __tests__/vector2.test.ts&#45;&gt;vector2.ts -->
<g id="edge1" class="edge">
<title>__tests__/vector2.test.ts&#45;&gt;vector2.ts</title>
<path fill="none" stroke="#757575" d="M125.27,-46.5C133.9,-46.5 142.57,-46.5 150.64,-46.5"/>
<polygon fill="#757575" stroke="#757575" points="150.83,-50 160.83,-46.5 150.83,-43 150.83,-50"/>
</g>
<!-- index.ts -->
<g id="node3" class="node">
<title>index.ts</title>
<path fill="none" stroke="#c6c5fe" d="M83.17,-19C83.17,-19 41.83,-19 41.83,-19 38.67,-19 35.5,-15.83 35.5,-12.67 35.5,-12.67 35.5,-6.33 35.5,-6.33 35.5,-3.17 38.67,0 41.83,0 41.83,0 83.17,0 83.17,0 86.33,0 89.5,-3.17 89.5,-6.33 89.5,-6.33 89.5,-12.67 89.5,-12.67 89.5,-15.83 86.33,-19 83.17,-19"/>
<text text-anchor="middle" x="62.5" y="-7" font-family="Arial" font-size="10.00" fill="#c6c5fe">index.ts</text>
</g>
<!-- index.ts&#45;&gt;vector2.ts -->
<g id="edge3" class="edge">
<title>index.ts&#45;&gt;vector2.ts</title>
<path fill="none" stroke="#757575" d="M89.71,-17.17C107.42,-22.35 131.1,-29.27 151.01,-35.1"/>
<polygon fill="#757575" stroke="#757575" points="150.15,-38.49 160.73,-37.94 152.11,-31.77 150.15,-38.49"/>
</g>
<!-- now.ts -->
<g id="node4" class="node">
<title>now.ts</title>
<path fill="none" stroke="#cfffac" d="M211.67,-19C211.67,-19 170.33,-19 170.33,-19 167.17,-19 164,-15.83 164,-12.67 164,-12.67 164,-6.33 164,-6.33 164,-3.17 167.17,0 170.33,0 170.33,0 211.67,0 211.67,0 214.83,0 218,-3.17 218,-6.33 218,-6.33 218,-12.67 218,-12.67 218,-15.83 214.83,-19 211.67,-19"/>
<text text-anchor="middle" x="191" y="-7" font-family="Arial" font-size="10.00" fill="#cfffac">now.ts</text>
</g>
<!-- index.ts&#45;&gt;now.ts -->
<g id="edge2" class="edge">
<title>index.ts&#45;&gt;now.ts</title>
<path fill="none" stroke="#757575" d="M89.71,-9.5C108.2,-9.5 133.21,-9.5 153.62,-9.5"/>
<polygon fill="#757575" stroke="#757575" points="153.82,-13 163.82,-9.5 153.82,-6 153.82,-13"/>
</g>
</g>
</svg>
