<?xml version="1.0" encoding="UTF-8" standalone="no"?>
<!DOCTYPE svg PUBLIC "-//W3C//DTD SVG 1.1//EN"
 "http://www.w3.org/Graphics/SVG/1.1/DTD/svg11.dtd">
<!-- Generated by graphviz version 2.44.1 (20200629.0846)
 -->
<!-- Title: G Pages: 1 -->
<svg width="874pt" height="667pt"
 viewBox="0.00 0.00 874.20 667.20" xmlns="http://www.w3.org/2000/svg" xmlns:xlink="http://www.w3.org/1999/xlink">
<g id="graph0" class="graph" transform="scale(1 1) rotate(0) translate(21.6 645.6)">
<title>G</title>
<polygon fill="#111111" stroke="transparent" points="-21.6,21.6 -21.6,-645.6 852.6,-645.6 852.6,21.6 -21.6,21.6"/>
<!-- __mocks__/@dungeon&#45;crawler/network.ts -->
<g id="node1" class="node">
<title>__mocks__/@dungeon&#45;crawler/network.ts</title>
<path fill="none" stroke="#cfffac" d="M197.67,-19C197.67,-19 10.33,-19 10.33,-19 7.17,-19 4,-15.83 4,-12.67 4,-12.67 4,-6.33 4,-6.33 4,-3.17 7.17,0 10.33,0 10.33,0 197.67,0 197.67,0 200.83,0 204,-3.17 204,-6.33 204,-6.33 204,-12.67 204,-12.67 204,-15.83 200.83,-19 197.67,-19"/>
<text text-anchor="middle" x="104" y="-7" font-family="Arial" font-size="10.00" fill="#cfffac">__mocks__/@dungeon&#45;crawler/network.ts</text>
</g>
<!-- __mocks__/ws.ts -->
<g id="node2" class="node">
<title>__mocks__/ws.ts</title>
<path fill="none" stroke="#cfffac" d="M144.67,-56C144.67,-56 63.33,-56 63.33,-56 60.17,-56 57,-52.83 57,-49.67 57,-49.67 57,-43.33 57,-43.33 57,-40.17 60.17,-37 63.33,-37 63.33,-37 144.67,-37 144.67,-37 147.83,-37 151,-40.17 151,-43.33 151,-43.33 151,-49.67 151,-49.67 151,-52.83 147.83,-56 144.67,-56"/>
<text text-anchor="middle" x="104" y="-44" font-family="Arial" font-size="10.00" fill="#cfffac">__mocks__/ws.ts</text>
</g>
<!-- __tests__/client&#45;connection.test.ts -->
<g id="node3" class="node">
<title>__tests__/client&#45;connection.test.ts</title>
<path fill="none" stroke="#c6c5fe" d="M431.67,-169C431.67,-169 277.33,-169 277.33,-169 274.17,-169 271,-165.83 271,-162.67 271,-162.67 271,-156.33 271,-156.33 271,-153.17 274.17,-150 277.33,-150 277.33,-150 431.67,-150 431.67,-150 434.83,-150 438,-153.17 438,-156.33 438,-156.33 438,-162.67 438,-162.67 438,-165.83 434.83,-169 431.67,-169"/>
<text text-anchor="middle" x="354.5" y="-157" font-family="Arial" font-size="10.00" fill="#c6c5fe">__tests__/client&#45;connection.test.ts</text>
</g>
<!-- client&#45;connection.ts -->
<g id="node4" class="node">
<title>client&#45;connection.ts</title>
<path fill="none" stroke="#c6c5fe" d="M621.17,-131C621.17,-131 532.83,-131 532.83,-131 529.67,-131 526.5,-127.83 526.5,-124.67 526.5,-124.67 526.5,-118.33 526.5,-118.33 526.5,-115.17 529.67,-112 532.83,-112 532.83,-112 621.17,-112 621.17,-112 624.33,-112 627.5,-115.17 627.5,-118.33 627.5,-118.33 627.5,-124.67 627.5,-124.67 627.5,-127.83 624.33,-131 621.17,-131"/>
<text text-anchor="middle" x="577" y="-119" font-family="Arial" font-size="10.00" fill="#c6c5fe">client&#45;connection.ts</text>
</g>
<!-- __tests__/client&#45;connection.test.ts&#45;&gt;client&#45;connection.ts -->
<g id="edge1" class="edge">
<title>__tests__/client&#45;connection.test.ts&#45;&gt;client&#45;connection.ts</title>
<path fill="none" stroke="#757575" d="M410.86,-149.96C443,-144.42 483.49,-137.44 516.34,-131.78"/>
<polygon fill="#757575" stroke="#757575" points="517.01,-135.22 526.27,-130.07 515.82,-128.32 517.01,-135.22"/>
</g>
<!-- common.ts -->
<g id="node5" class="node">
<title>common.ts</title>
<path fill="none" stroke="#cfffac" d="M786.17,-150C786.17,-150 733.83,-150 733.83,-150 730.67,-150 727.5,-146.83 727.5,-143.67 727.5,-143.67 727.5,-137.33 727.5,-137.33 727.5,-134.17 730.67,-131 733.83,-131 733.83,-131 786.17,-131 786.17,-131 789.33,-131 792.5,-134.17 792.5,-137.33 792.5,-137.33 792.5,-143.67 792.5,-143.67 792.5,-146.83 789.33,-150 786.17,-150"/>
<text text-anchor="middle" x="760" y="-138" font-family="Arial" font-size="10.00" fill="#cfffac">common.ts</text>
</g>
<!-- __tests__/client&#45;connection.test.ts&#45;&gt;common.ts -->
<g id="edge2" class="edge">
<title>__tests__/client&#45;connection.test.ts&#45;&gt;common.ts</title>
<path fill="none" stroke="#757575" d="M438.13,-155.61C522.87,-151.62 651.3,-145.57 717.02,-142.48"/>
<polygon fill="#757575" stroke="#757575" points="717.57,-145.95 727.4,-141.99 717.24,-138.96 717.57,-145.95"/>
</g>
<!-- client&#45;connection.ts&#45;&gt;common.ts -->
<g id="edge6" class="edge">
<title>client&#45;connection.ts&#45;&gt;common.ts</title>
<path fill="none" stroke="#757575" d="M627.94,-126.74C656.02,-129.69 690.67,-133.33 717.29,-136.12"/>
<polygon fill="#757575" stroke="#757575" points="717.12,-139.62 727.43,-137.19 717.85,-132.66 717.12,-139.62"/>
</g>
<!-- __tests__/client.test.ts -->
<g id="node6" class="node">
<title>__tests__/client.test.ts</title>
<path fill="none" stroke="#c6c5fe" d="M155.67,-245C155.67,-245 52.33,-245 52.33,-245 49.17,-245 46,-241.83 46,-238.67 46,-238.67 46,-232.33 46,-232.33 46,-229.17 49.17,-226 52.33,-226 52.33,-226 155.67,-226 155.67,-226 158.83,-226 162,-229.17 162,-232.33 162,-232.33 162,-238.67 162,-238.67 162,-241.83 158.83,-245 155.67,-245"/>
<text text-anchor="middle" x="104" y="-233" font-family="Arial" font-size="10.00" fill="#c6c5fe">__tests__/client.test.ts</text>
</g>
<!-- client.ts -->
<g id="node7" class="node">
<title>client.ts</title>
<path fill="none" stroke="#c6c5fe" d="M375.17,-245C375.17,-245 333.83,-245 333.83,-245 330.67,-245 327.5,-241.83 327.5,-238.67 327.5,-238.67 327.5,-232.33 327.5,-232.33 327.5,-229.17 330.67,-226 333.83,-226 333.83,-226 375.17,-226 375.17,-226 378.33,-226 381.5,-229.17 381.5,-232.33 381.5,-232.33 381.5,-238.67 381.5,-238.67 381.5,-241.83 378.33,-245 375.17,-245"/>
<text text-anchor="middle" x="354.5" y="-233" font-family="Arial" font-size="10.00" fill="#c6c5fe">client.ts</text>
</g>
<!-- __tests__/client.test.ts&#45;&gt;client.ts -->
<g id="edge3" class="edge">
<title>__tests__/client.test.ts&#45;&gt;client.ts</title>
<path fill="none" stroke="#757575" d="M162.01,-235.5C209.73,-235.5 276.38,-235.5 317.15,-235.5"/>
<polygon fill="#757575" stroke="#757575" points="317.18,-239 327.18,-235.5 317.18,-232 317.18,-239"/>
</g>
<!-- client.ts&#45;&gt;common.ts -->
<g id="edge7" class="edge">
<title>client.ts&#45;&gt;common.ts</title>
<path fill="none" stroke="#757575" d="M381.87,-237.73C434.91,-241.27 557.58,-244.75 653,-211.5 687.22,-199.57 721,-173.89 740.92,-156.9"/>
<polygon fill="#757575" stroke="#757575" points="743.34,-159.44 748.57,-150.22 738.74,-154.16 743.34,-159.44"/>
</g>
<!-- __tests__/server.test.ts -->
<g id="node8" class="node">
<title>__tests__/server.test.ts</title>
<path fill="none" stroke="#c6c5fe" d="M157.67,-93C157.67,-93 50.33,-93 50.33,-93 47.17,-93 44,-89.83 44,-86.67 44,-86.67 44,-80.33 44,-80.33 44,-77.17 47.17,-74 50.33,-74 50.33,-74 157.67,-74 157.67,-74 160.83,-74 164,-77.17 164,-80.33 164,-80.33 164,-86.67 164,-86.67 164,-89.83 160.83,-93 157.67,-93"/>
<text text-anchor="middle" x="104" y="-81" font-family="Arial" font-size="10.00" fill="#c6c5fe">__tests__/server.test.ts</text>
</g>
<!-- __tests__/server.test.ts&#45;&gt;common.ts -->
<g id="edge4" class="edge">
<title>__tests__/server.test.ts&#45;&gt;common.ts</title>
<path fill="none" stroke="#757575" d="M164.1,-75.27C265.76,-63.05 479.55,-45.81 653,-88.5 683.38,-95.98 715.21,-113.02 735.97,-125.57"/>
<polygon fill="#757575" stroke="#757575" points="734.33,-128.67 744.68,-130.97 738.02,-122.72 734.33,-128.67"/>
</g>
<!-- server.ts -->
<g id="node9" class="node">
<title>server.ts</title>
<path fill="none" stroke="#c6c5fe" d="M375.67,-112C375.67,-112 333.33,-112 333.33,-112 330.17,-112 327,-108.83 327,-105.67 327,-105.67 327,-99.33 327,-99.33 327,-96.17 330.17,-93 333.33,-93 333.33,-93 375.67,-93 375.67,-93 378.83,-93 382,-96.17 382,-99.33 382,-99.33 382,-105.67 382,-105.67 382,-108.83 378.83,-112 375.67,-112"/>
<text text-anchor="middle" x="354.5" y="-100" font-family="Arial" font-size="10.00" fill="#c6c5fe">server.ts</text>
</g>
<!-- __tests__/server.test.ts&#45;&gt;server.ts -->
<g id="edge5" class="edge">
<title>__tests__/server.test.ts&#45;&gt;server.ts</title>
<path fill="none" stroke="#757575" d="M164.21,-88.03C211.52,-91.64 276.35,-96.6 316.54,-99.67"/>
<polygon fill="#757575" stroke="#757575" points="316.46,-103.18 326.7,-100.45 316.99,-96.2 316.46,-103.18"/>
</g>
<!-- server.ts&#45;&gt;client&#45;connection.ts -->
<g id="edge33" class="edge">
<title>server.ts&#45;&gt;client&#45;connection.ts</title>
<path fill="none" stroke="#757575" d="M382.1,-104.79C415.15,-107.64 472.52,-112.58 516.31,-116.36"/>
<polygon fill="#757575" stroke="#757575" points="516.02,-119.84 526.28,-117.22 516.62,-112.87 516.02,-119.84"/>
</g>
<!-- server.ts&#45;&gt;common.ts -->
<g id="edge34" class="edge">
<title>server.ts&#45;&gt;common.ts</title>
<path fill="none" stroke="#757575" d="M382.03,-99.48C434.33,-94.19 554.28,-85.34 653,-102.5 679.77,-107.15 708.72,-117.96 729.59,-126.86"/>
<polygon fill="#757575" stroke="#757575" points="728.29,-130.11 738.85,-130.91 731.09,-123.7 728.29,-130.11"/>
</g>
<!-- index.ts -->
<g id="node10" class="node">
<title>index.ts</title>
<path fill="none" stroke="#c6c5fe" d="M124.67,-207C124.67,-207 83.33,-207 83.33,-207 80.17,-207 77,-203.83 77,-200.67 77,-200.67 77,-194.33 77,-194.33 77,-191.17 80.17,-188 83.33,-188 83.33,-188 124.67,-188 124.67,-188 127.83,-188 131,-191.17 131,-194.33 131,-194.33 131,-200.67 131,-200.67 131,-203.83 127.83,-207 124.67,-207"/>
<text text-anchor="middle" x="104" y="-195" font-family="Arial" font-size="10.00" fill="#c6c5fe">index.ts</text>
</g>
<!-- index.ts&#45;&gt;common.ts -->
<g id="edge9" class="edge">
<title>index.ts&#45;&gt;common.ts</title>
<path fill="none" stroke="#757575" d="M131.11,-197.4C210.17,-196.75 453.72,-192.4 653,-163.5 674.42,-160.39 697.98,-155.44 717.44,-150.92"/>
<polygon fill="#757575" stroke="#757575" points="718.28,-154.32 727.21,-148.61 716.67,-147.51 718.28,-154.32"/>
</g>
<!-- index.ts&#45;&gt;client.ts -->
<g id="edge8" class="edge">
<title>index.ts&#45;&gt;client.ts</title>
<path fill="none" stroke="#757575" d="M131.12,-201.49C175.68,-208.31 266.46,-222.19 317.17,-229.94"/>
<polygon fill="#757575" stroke="#757575" points="316.94,-233.45 327.35,-231.5 318,-226.53 316.94,-233.45"/>
</g>
<!-- index.ts&#45;&gt;server.ts -->
<g id="edge10" class="edge">
<title>index.ts&#45;&gt;server.ts</title>
<path fill="none" stroke="#757575" d="M127.48,-187.83C154.84,-176.17 202.53,-156.19 244,-140.5 268.21,-131.34 295.74,-121.79 317.13,-114.56"/>
<polygon fill="#757575" stroke="#757575" points="318.44,-117.81 326.8,-111.31 316.21,-111.18 318.44,-117.81"/>
</g>
<!-- messages/ClientAcknowledgementMessage.ts -->
<g id="node11" class="node">
<title>messages/ClientAcknowledgementMessage.ts</title>
<path fill="none" stroke="#c6c5fe" d="M458.67,-359C458.67,-359 250.33,-359 250.33,-359 247.17,-359 244,-355.83 244,-352.67 244,-352.67 244,-346.33 244,-346.33 244,-343.17 247.17,-340 250.33,-340 250.33,-340 458.67,-340 458.67,-340 461.83,-340 465,-343.17 465,-346.33 465,-346.33 465,-352.67 465,-352.67 465,-355.83 461.83,-359 458.67,-359"/>
<text text-anchor="middle" x="354.5" y="-347" font-family="Arial" font-size="10.00" fill="#c6c5fe">messages/ClientAcknowledgementMessage.ts</text>
</g>
<!-- messages/MessageTypes.ts -->
<g id="node12" class="node">
<title>messages/MessageTypes.ts</title>
<path fill="none" stroke="#cfffac" d="M824.67,-416C824.67,-416 695.33,-416 695.33,-416 692.17,-416 689,-412.83 689,-409.67 689,-409.67 689,-403.33 689,-403.33 689,-400.17 692.17,-397 695.33,-397 695.33,-397 824.67,-397 824.67,-397 827.83,-397 831,-400.17 831,-403.33 831,-403.33 831,-409.67 831,-409.67 831,-412.83 827.83,-416 824.67,-416"/>
<text text-anchor="middle" x="760" y="-404" font-family="Arial" font-size="10.00" fill="#cfffac">messages/MessageTypes.ts</text>
</g>
<!-- messages/ClientAcknowledgementMessage.ts&#45;&gt;messages/MessageTypes.ts -->
<g id="edge11" class="edge">
<title>messages/ClientAcknowledgementMessage.ts&#45;&gt;messages/MessageTypes.ts</title>
<path fill="none" stroke="#757575" d="M465.28,-349.19C521.86,-350.87 591.68,-355.81 653,-368.5 679.28,-373.94 707.85,-384.47 728.7,-393.07"/>
<polygon fill="#757575" stroke="#757575" points="727.41,-396.32 737.99,-396.98 730.13,-389.87 727.41,-396.32"/>
</g>
<!-- messages/NetworkMessage.ts -->
<g id="node13" class="node">
<title>messages/NetworkMessage.ts</title>
<path fill="none" stroke="#c6c5fe" d="M646.67,-397C646.67,-397 507.33,-397 507.33,-397 504.17,-397 501,-393.83 501,-390.67 501,-390.67 501,-384.33 501,-384.33 501,-381.17 504.17,-378 507.33,-378 507.33,-378 646.67,-378 646.67,-378 649.83,-378 653,-381.17 653,-384.33 653,-384.33 653,-390.67 653,-390.67 653,-393.83 649.83,-397 646.67,-397"/>
<text text-anchor="middle" x="577" y="-385" font-family="Arial" font-size="10.00" fill="#c6c5fe">messages/NetworkMessage.ts</text>
</g>
<!-- messages/ClientAcknowledgementMessage.ts&#45;&gt;messages/NetworkMessage.ts -->
<g id="edge12" class="edge">
<title>messages/ClientAcknowledgementMessage.ts&#45;&gt;messages/NetworkMessage.ts</title>
<path fill="none" stroke="#757575" d="M410.86,-359.04C441.13,-364.26 478.82,-370.75 510.55,-376.22"/>
<polygon fill="#757575" stroke="#757575" points="510.17,-379.71 520.62,-377.96 511.36,-372.81 510.17,-379.71"/>
</g>
<!-- messages/NetworkMessage.ts&#45;&gt;messages/MessageTypes.ts -->
<g id="edge21" class="edge">
<title>messages/NetworkMessage.ts&#45;&gt;messages/MessageTypes.ts</title>
<path fill="none" stroke="#757575" d="M653.19,-395.39C661.7,-396.29 670.41,-397.2 678.98,-398.1"/>
<polygon fill="#757575" stroke="#757575" points="678.66,-401.59 688.97,-399.15 679.39,-394.62 678.66,-401.59"/>
</g>
<!-- messages/ClientConnectedMessage.ts -->
<g id="node14" class="node">
<title>messages/ClientConnectedMessage.ts</title>
<path fill="none" stroke="#c6c5fe" d="M442.17,-322C442.17,-322 266.83,-322 266.83,-322 263.67,-322 260.5,-318.83 260.5,-315.67 260.5,-315.67 260.5,-309.33 260.5,-309.33 260.5,-306.17 263.67,-303 266.83,-303 266.83,-303 442.17,-303 442.17,-303 445.33,-303 448.5,-306.17 448.5,-309.33 448.5,-309.33 448.5,-315.67 448.5,-315.67 448.5,-318.83 445.33,-322 442.17,-322"/>
<text text-anchor="middle" x="354.5" y="-310" font-family="Arial" font-size="10.00" fill="#c6c5fe">messages/ClientConnectedMessage.ts</text>
</g>
<!-- messages/ClientConnectedMessage.ts&#45;&gt;messages/MessageTypes.ts -->
<g id="edge13" class="edge">
<title>messages/ClientConnectedMessage.ts&#45;&gt;messages/MessageTypes.ts</title>
<path fill="none" stroke="#757575" d="M448.62,-314.17C508.29,-317.49 586.69,-326.08 653,-347.5 684.25,-357.6 716.76,-377.28 737.4,-391.13"/>
<polygon fill="#757575" stroke="#757575" points="735.51,-394.08 745.74,-396.84 739.46,-388.3 735.51,-394.08"/>
</g>
<!-- messages/ClientConnectedMessage.ts&#45;&gt;messages/NetworkMessage.ts -->
<g id="edge14" class="edge">
<title>messages/ClientConnectedMessage.ts&#45;&gt;messages/NetworkMessage.ts</title>
<path fill="none" stroke="#757575" d="M432.52,-322.04C443.56,-324.31 454.66,-327.09 465,-330.5 496.86,-341.01 530.8,-359.67 552.64,-372.76"/>
<polygon fill="#757575" stroke="#757575" points="550.86,-375.78 561.22,-378 554.5,-369.8 550.86,-375.78"/>
</g>
<!-- messages/ClientDisconnectedMessage.ts -->
<g id="node15" class="node">
<title>messages/ClientDisconnectedMessage.ts</title>
<path fill="none" stroke="#c6c5fe" d="M448.67,-285C448.67,-285 260.33,-285 260.33,-285 257.17,-285 254,-281.83 254,-278.67 254,-278.67 254,-272.33 254,-272.33 254,-269.17 257.17,-266 260.33,-266 260.33,-266 448.67,-266 448.67,-266 451.83,-266 455,-269.17 455,-272.33 455,-272.33 455,-278.67 455,-278.67 455,-281.83 451.83,-285 448.67,-285"/>
<text text-anchor="middle" x="354.5" y="-273" font-family="Arial" font-size="10.00" fill="#c6c5fe">messages/ClientDisconnectedMessage.ts</text>
</g>
<!-- messages/ClientDisconnectedMessage.ts&#45;&gt;messages/MessageTypes.ts -->
<g id="edge15" class="edge">
<title>messages/ClientDisconnectedMessage.ts&#45;&gt;messages/MessageTypes.ts</title>
<path fill="none" stroke="#757575" d="M455.19,-274.33C514.9,-277.03 591,-286.62 653,-314.5 691.45,-331.79 726.35,-367.74 744.93,-389.22"/>
<polygon fill="#757575" stroke="#757575" points="742.32,-391.55 751.44,-396.94 747.67,-387.04 742.32,-391.55"/>
</g>
<!-- messages/ClientDisconnectedMessage.ts&#45;&gt;messages/NetworkMessage.ts -->
<g id="edge16" class="edge">
<title>messages/ClientDisconnectedMessage.ts&#45;&gt;messages/NetworkMessage.ts</title>
<path fill="none" stroke="#757575" d="M441.44,-285.01C449.58,-287.28 457.57,-290.07 465,-293.5 504.84,-311.91 541.75,-348.65 561.34,-370.34"/>
<polygon fill="#757575" stroke="#757575" points="558.73,-372.67 567.97,-377.85 563.97,-368.04 558.73,-372.67"/>
</g>
<!-- messages/ClientInfoUpdatedMessage.ts -->
<g id="node16" class="node">
<title>messages/ClientInfoUpdatedMessage.ts</title>
<path fill="none" stroke="#c6c5fe" d="M445.17,-435C445.17,-435 263.83,-435 263.83,-435 260.67,-435 257.5,-431.83 257.5,-428.67 257.5,-428.67 257.5,-422.33 257.5,-422.33 257.5,-419.17 260.67,-416 263.83,-416 263.83,-416 445.17,-416 445.17,-416 448.33,-416 451.5,-419.17 451.5,-422.33 451.5,-422.33 451.5,-428.67 451.5,-428.67 451.5,-431.83 448.33,-435 445.17,-435"/>
<text text-anchor="middle" x="354.5" y="-423" font-family="Arial" font-size="10.00" fill="#c6c5fe">messages/ClientInfoUpdatedMessage.ts</text>
</g>
<!-- messages/ClientInfoUpdatedMessage.ts&#45;&gt;messages/MessageTypes.ts -->
<g id="edge17" class="edge">
<title>messages/ClientInfoUpdatedMessage.ts&#45;&gt;messages/MessageTypes.ts</title>
<path fill="none" stroke="#757575" d="M451.64,-420.97C520.89,-417.71 613.27,-413.36 678.61,-410.29"/>
<polygon fill="#757575" stroke="#757575" points="679.04,-413.77 688.86,-409.8 678.71,-406.78 679.04,-413.77"/>
</g>
<!-- messages/ClientInfoUpdatedMessage.ts&#45;&gt;messages/NetworkMessage.ts -->
<g id="edge18" class="edge">
<title>messages/ClientInfoUpdatedMessage.ts&#45;&gt;messages/NetworkMessage.ts</title>
<path fill="none" stroke="#757575" d="M410.86,-415.96C441.13,-410.74 478.82,-404.25 510.55,-398.78"/>
<polygon fill="#757575" stroke="#757575" points="511.36,-402.19 520.62,-397.04 510.17,-395.29 511.36,-402.19"/>
</g>
<!-- messages/ClientInputCommandMessage.ts -->
<g id="node17" class="node">
<title>messages/ClientInputCommandMessage.ts</title>
<path fill="none" stroke="#cfffac" d="M201.67,-510C201.67,-510 6.33,-510 6.33,-510 3.17,-510 0,-506.83 0,-503.67 0,-503.67 0,-497.33 0,-497.33 0,-494.17 3.17,-491 6.33,-491 6.33,-491 201.67,-491 201.67,-491 204.83,-491 208,-494.17 208,-497.33 208,-497.33 208,-503.67 208,-503.67 208,-506.83 204.83,-510 201.67,-510"/>
<text text-anchor="middle" x="104" y="-498" font-family="Arial" font-size="10.00" fill="#cfffac">messages/ClientInputCommandMessage.ts</text>
</g>
<!-- messages/ConnectionHandshakeMessage.ts -->
<g id="node18" class="node">
<title>messages/ConnectionHandshakeMessage.ts</title>
<path fill="none" stroke="#c6c5fe" d="M455.67,-509C455.67,-509 253.33,-509 253.33,-509 250.17,-509 247,-505.83 247,-502.67 247,-502.67 247,-496.33 247,-496.33 247,-493.17 250.17,-490 253.33,-490 253.33,-490 455.67,-490 455.67,-490 458.83,-490 462,-493.17 462,-496.33 462,-496.33 462,-502.67 462,-502.67 462,-505.83 458.83,-509 455.67,-509"/>
<text text-anchor="middle" x="354.5" y="-497" font-family="Arial" font-size="10.00" fill="#c6c5fe">messages/ConnectionHandshakeMessage.ts</text>
</g>
<!-- messages/ConnectionHandshakeMessage.ts&#45;&gt;messages/MessageTypes.ts -->
<g id="edge19" class="edge">
<title>messages/ConnectionHandshakeMessage.ts&#45;&gt;messages/MessageTypes.ts</title>
<path fill="none" stroke="#757575" d="M461.62,-489.97C519.07,-483.11 590.81,-471.74 653,-453.5 680.97,-445.29 711.22,-431.33 732.22,-420.75"/>
<polygon fill="#757575" stroke="#757575" points="733.87,-423.84 741.17,-416.16 730.67,-417.61 733.87,-423.84"/>
</g>
<!-- messages/ConnectionHandshakeMessage.ts&#45;&gt;messages/NetworkMessage.ts -->
<g id="edge20" class="edge">
<title>messages/ConnectionHandshakeMessage.ts&#45;&gt;messages/NetworkMessage.ts</title>
<path fill="none" stroke="#757575" d="M438.26,-489.98C447.5,-487.5 456.6,-484.4 465,-480.5 504.46,-462.18 541.29,-426.14 561.01,-404.7"/>
<polygon fill="#757575" stroke="#757575" points="563.85,-406.79 567.93,-397.01 558.64,-402.11 563.85,-406.79"/>
</g>
<!-- messages/ServerStateUpdateMessage.ts -->
<g id="node19" class="node">
<title>messages/ServerStateUpdateMessage.ts</title>
<path fill="none" stroke="#c6c5fe" d="M447.67,-472C447.67,-472 261.33,-472 261.33,-472 258.17,-472 255,-468.83 255,-465.67 255,-465.67 255,-459.33 255,-459.33 255,-456.17 258.17,-453 261.33,-453 261.33,-453 447.67,-453 447.67,-453 450.83,-453 454,-456.17 454,-459.33 454,-459.33 454,-465.67 454,-465.67 454,-468.83 450.83,-472 447.67,-472"/>
<text text-anchor="middle" x="354.5" y="-460" font-family="Arial" font-size="10.00" fill="#c6c5fe">messages/ServerStateUpdateMessage.ts</text>
</g>
<!-- messages/ServerStateUpdateMessage.ts&#45;&gt;messages/MessageTypes.ts -->
<g id="edge22" class="edge">
<title>messages/ServerStateUpdateMessage.ts&#45;&gt;messages/MessageTypes.ts</title>
<path fill="none" stroke="#757575" d="M454.34,-454.12C512.4,-448.55 587.1,-440.28 653,-429.5 671.56,-426.46 691.78,-422.3 709.53,-418.34"/>
<polygon fill="#757575" stroke="#757575" points="710.69,-421.67 719.67,-416.05 709.14,-414.84 710.69,-421.67"/>
</g>
<!-- messages/ServerStateUpdateMessage.ts&#45;&gt;messages/NetworkMessage.ts -->
<g id="edge23" class="edge">
<title>messages/ServerStateUpdateMessage.ts&#45;&gt;messages/NetworkMessage.ts</title>
<path fill="none" stroke="#757575" d="M428.4,-452.96C440.77,-450.46 453.37,-447.35 465,-443.5 496.38,-433.12 529.93,-415.12 551.83,-402.33"/>
<polygon fill="#757575" stroke="#757575" points="553.65,-405.32 560.46,-397.21 550.08,-399.3 553.65,-405.32"/>
</g>
<!-- messages/index.ts -->
<g id="node20" class="node">
<title>messages/index.ts</title>
<path fill="none" stroke="#c6c5fe" d="M147.17,-397C147.17,-397 60.83,-397 60.83,-397 57.67,-397 54.5,-393.83 54.5,-390.67 54.5,-390.67 54.5,-384.33 54.5,-384.33 54.5,-381.17 57.67,-378 60.83,-378 60.83,-378 147.17,-378 147.17,-378 150.33,-378 153.5,-381.17 153.5,-384.33 153.5,-384.33 153.5,-390.67 153.5,-390.67 153.5,-393.83 150.33,-397 147.17,-397"/>
<text text-anchor="middle" x="104" y="-385" font-family="Arial" font-size="10.00" fill="#c6c5fe">messages/index.ts</text>
</g>
<!-- messages/index.ts&#45;&gt;messages/ClientAcknowledgementMessage.ts -->
<g id="edge24" class="edge">
<title>messages/index.ts&#45;&gt;messages/ClientAcknowledgementMessage.ts</title>
<path fill="none" stroke="#757575" d="M153.5,-380.08C189.78,-374.54 239.98,-366.86 281.02,-360.58"/>
<polygon fill="#757575" stroke="#757575" points="281.61,-364.03 290.97,-359.06 280.55,-357.11 281.61,-364.03"/>
</g>
<!-- messages/index.ts&#45;&gt;messages/MessageTypes.ts -->
<g id="edge28" class="edge">
<title>messages/index.ts&#45;&gt;messages/MessageTypes.ts</title>
<path fill="none" stroke="#757575" d="M115.98,-397.22C134.97,-414.1 175.09,-450.06 208,-481.5 224.36,-497.13 223.09,-508.84 244,-517.5 412.52,-587.3 485.25,-555.13 653,-483.5 687.59,-468.73 721.73,-440.91 741.56,-423.06"/>
<polygon fill="#757575" stroke="#757575" points="744.15,-425.44 749.14,-416.09 739.41,-420.28 744.15,-425.44"/>
</g>
<!-- messages/index.ts&#45;&gt;messages/NetworkMessage.ts -->
<g id="edge29" class="edge">
<title>messages/index.ts&#45;&gt;messages/NetworkMessage.ts</title>
<path fill="none" stroke="#757575" d="M153.63,-387.5C233.08,-387.5 391.73,-387.5 490.37,-387.5"/>
<polygon fill="#757575" stroke="#757575" points="490.61,-391 500.61,-387.5 490.61,-384 490.61,-391"/>
</g>
<!-- messages/index.ts&#45;&gt;messages/ClientConnectedMessage.ts -->
<g id="edge25" class="edge">
<title>messages/index.ts&#45;&gt;messages/ClientConnectedMessage.ts</title>
<path fill="none" stroke="#757575" d="M124.3,-377.95C150.7,-365.26 199.83,-343.01 244,-330.5 252.71,-328.03 261.92,-325.86 271.14,-323.97"/>
<polygon fill="#757575" stroke="#757575" points="271.98,-327.37 281.13,-322.02 270.64,-320.5 271.98,-327.37"/>
</g>
<!-- messages/index.ts&#45;&gt;messages/ClientDisconnectedMessage.ts -->
<g id="edge26" class="edge">
<title>messages/index.ts&#45;&gt;messages/ClientDisconnectedMessage.ts</title>
<path fill="none" stroke="#757575" d="M115.58,-377.91C137.65,-358.5 190.95,-314.61 244,-293.5 249.5,-291.31 255.27,-289.39 261.14,-287.7"/>
<polygon fill="#757575" stroke="#757575" points="262.34,-291 271.12,-285.07 260.56,-284.23 262.34,-291"/>
</g>
<!-- messages/index.ts&#45;&gt;messages/ConnectionHandshakeMessage.ts -->
<g id="edge27" class="edge">
<title>messages/index.ts&#45;&gt;messages/ConnectionHandshakeMessage.ts</title>
<path fill="none" stroke="#757575" d="M115.96,-397.24C138.3,-416.51 191.44,-459.46 244,-480.5 250.71,-483.19 257.8,-485.49 265.02,-487.47"/>
<polygon fill="#757575" stroke="#757575" points="264.37,-490.92 274.92,-489.98 266.08,-484.13 264.37,-490.92"/>
</g>
<!-- messages/index.ts&#45;&gt;messages/ServerStateUpdateMessage.ts -->
<g id="edge30" class="edge">
<title>messages/index.ts&#45;&gt;messages/ServerStateUpdateMessage.ts</title>
<path fill="none" stroke="#757575" d="M124.79,-397.03C151.34,-409.44 200.21,-431.03 244,-443.5 253.98,-446.34 264.61,-448.83 275.16,-450.99"/>
<polygon fill="#757575" stroke="#757575" points="274.75,-454.47 285.24,-452.95 276.09,-447.6 274.75,-454.47"/>
</g>
<!-- payloads/env.ts -->
<g id="node21" class="node">
<title>payloads/env.ts</title>
<path fill="none" stroke="#cfffac" d="M390.67,-624C390.67,-624 318.33,-624 318.33,-624 315.17,-624 312,-620.83 312,-617.67 312,-617.67 312,-611.33 312,-611.33 312,-608.17 315.17,-605 318.33,-605 318.33,-605 390.67,-605 390.67,-605 393.83,-605 397,-608.17 397,-611.33 397,-611.33 397,-617.67 397,-617.67 397,-620.83 393.83,-624 390.67,-624"/>
<text text-anchor="middle" x="354.5" y="-612" font-family="Arial" font-size="10.00" fill="#cfffac">payloads/env.ts</text>
</g>
<!-- payloads/index.ts -->
<g id="node22" class="node">
<title>payloads/index.ts</title>
<path fill="none" stroke="#c6c5fe" d="M144.17,-605C144.17,-605 63.83,-605 63.83,-605 60.67,-605 57.5,-601.83 57.5,-598.67 57.5,-598.67 57.5,-592.33 57.5,-592.33 57.5,-589.17 60.67,-586 63.83,-586 63.83,-586 144.17,-586 144.17,-586 147.33,-586 150.5,-589.17 150.5,-592.33 150.5,-592.33 150.5,-598.67 150.5,-598.67 150.5,-601.83 147.33,-605 144.17,-605"/>
<text text-anchor="middle" x="104" y="-593" font-family="Arial" font-size="10.00" fill="#c6c5fe">payloads/index.ts</text>
</g>
<!-- payloads/index.ts&#45;&gt;payloads/env.ts -->
<g id="edge31" class="edge">
<title>payloads/index.ts&#45;&gt;payloads/env.ts</title>
<path fill="none" stroke="#757575" d="M150.58,-598.98C193.35,-602.25 257.24,-607.14 301.87,-610.55"/>
<polygon fill="#757575" stroke="#757575" points="301.69,-614.05 311.93,-611.32 302.22,-607.07 301.69,-614.05"/>
</g>
<!-- payloads/room.ts -->
<g id="node23" class="node">
<title>payloads/room.ts</title>
<path fill="none" stroke="#cfffac" d="M394.17,-587C394.17,-587 314.83,-587 314.83,-587 311.67,-587 308.5,-583.83 308.5,-580.67 308.5,-580.67 308.5,-574.33 308.5,-574.33 308.5,-571.17 311.67,-568 314.83,-568 314.83,-568 394.17,-568 394.17,-568 397.33,-568 400.5,-571.17 400.5,-574.33 400.5,-574.33 400.5,-580.67 400.5,-580.67 400.5,-583.83 397.33,-587 394.17,-587"/>
<text text-anchor="middle" x="354.5" y="-575" font-family="Arial" font-size="10.00" fill="#cfffac">payloads/room.ts</text>
</g>
<!-- payloads/index.ts&#45;&gt;payloads/room.ts -->
<g id="edge32" class="edge">
<title>payloads/index.ts&#45;&gt;payloads/room.ts</title>
<path fill="none" stroke="#757575" d="M150.58,-592.2C192.18,-589.19 253.76,-584.72 298.16,-581.51"/>
<polygon fill="#757575" stroke="#757575" points="298.49,-584.99 308.21,-580.78 297.98,-578.01 298.49,-584.99"/>
</g>
</g>
</svg>
