<?xml version="1.0" encoding="UTF-8" standalone="no"?>
<!DOCTYPE svg PUBLIC "-//W3C//DTD SVG 1.1//EN"
 "http://www.w3.org/Graphics/SVG/1.1/DTD/svg11.dtd">
<!-- Generated by graphviz version 2.44.1 (20200629.0846)
 -->
<!-- Title: G Pages: 1 -->
<svg width="619pt" height="534pt"
 viewBox="0.00 0.00 619.20 534.20" xmlns="http://www.w3.org/2000/svg" xmlns:xlink="http://www.w3.org/1999/xlink">
<g id="graph0" class="graph" transform="scale(1 1) rotate(0) translate(21.6 512.6)">
<title>G</title>
<polygon fill="#111111" stroke="transparent" points="-21.6,21.6 -21.6,-512.6 597.6,-512.6 597.6,21.6 -21.6,21.6"/>
<!-- canvas.ts -->
<g id="node1" class="node">
<title>canvas.ts</title>
<path fill="none" stroke="#cfffac" d="M549.67,-114C549.67,-114 503.33,-114 503.33,-114 500.17,-114 497,-110.83 497,-107.67 497,-107.67 497,-101.33 497,-101.33 497,-98.17 500.17,-95 503.33,-95 503.33,-95 549.67,-95 549.67,-95 552.83,-95 556,-98.17 556,-101.33 556,-101.33 556,-107.67 556,-107.67 556,-110.83 552.83,-114 549.67,-114"/>
<text text-anchor="middle" x="526.5" y="-102" font-family="Arial" font-size="10.00" fill="#cfffac">canvas.ts</text>
</g>
<!-- drawables/drawables.ts -->
<g id="node2" class="node">
<title>drawables/drawables.ts</title>
<path fill="none" stroke="#c6c5fe" d="M265.17,-246C265.17,-246 158.83,-246 158.83,-246 155.67,-246 152.5,-242.83 152.5,-239.67 152.5,-239.67 152.5,-233.33 152.5,-233.33 152.5,-230.17 155.67,-227 158.83,-227 158.83,-227 265.17,-227 265.17,-227 268.33,-227 271.5,-230.17 271.5,-233.33 271.5,-233.33 271.5,-239.67 271.5,-239.67 271.5,-242.83 268.33,-246 265.17,-246"/>
<text text-anchor="middle" x="212" y="-234" font-family="Arial" font-size="10.00" fill="#c6c5fe">drawables/drawables.ts</text>
</g>
<!-- drawables/rect.ts -->
<g id="node3" class="node">
<title>drawables/rect.ts</title>
<path fill="none" stroke="#c6c5fe" d="M414.67,-171C414.67,-171 335.33,-171 335.33,-171 332.17,-171 329,-167.83 329,-164.67 329,-164.67 329,-158.33 329,-158.33 329,-155.17 332.17,-152 335.33,-152 335.33,-152 414.67,-152 414.67,-152 417.83,-152 421,-155.17 421,-158.33 421,-158.33 421,-164.67 421,-164.67 421,-167.83 417.83,-171 414.67,-171"/>
<text text-anchor="middle" x="375" y="-159" font-family="Arial" font-size="10.00" fill="#c6c5fe">drawables/rect.ts</text>
</g>
<!-- drawables/drawables.ts&#45;&gt;drawables/rect.ts -->
<g id="edge1" class="edge">
<title>drawables/drawables.ts&#45;&gt;drawables/rect.ts</title>
<path fill="none" stroke="#757575" d="M247.38,-226.91C255.88,-224.19 264.87,-221 273,-217.5 300.5,-205.66 330.29,-188.58 350.34,-176.4"/>
<polygon fill="#757575" stroke="#757575" points="352.4,-179.24 359.08,-171.02 348.73,-173.28 352.4,-179.24"/>
</g>
<!-- drawables/sprite.ts -->
<g id="node4" class="node">
<title>drawables/sprite.ts</title>
<path fill="none" stroke="#c6c5fe" d="M418.17,-247C418.17,-247 331.83,-247 331.83,-247 328.67,-247 325.5,-243.83 325.5,-240.67 325.5,-240.67 325.5,-234.33 325.5,-234.33 325.5,-231.17 328.67,-228 331.83,-228 331.83,-228 418.17,-228 418.17,-228 421.33,-228 424.5,-231.17 424.5,-234.33 424.5,-234.33 424.5,-240.67 424.5,-240.67 424.5,-243.83 421.33,-247 418.17,-247"/>
<text text-anchor="middle" x="375" y="-235" font-family="Arial" font-size="10.00" fill="#c6c5fe">drawables/sprite.ts</text>
</g>
<!-- drawables/drawables.ts&#45;&gt;drawables/sprite.ts -->
<g id="edge2" class="edge">
<title>drawables/drawables.ts&#45;&gt;drawables/sprite.ts</title>
<path fill="none" stroke="#757575" d="M271.58,-236.86C285.76,-236.95 300.92,-237.05 315.12,-237.13"/>
<polygon fill="#757575" stroke="#757575" points="315.23,-240.63 325.25,-237.2 315.28,-233.64 315.23,-240.63"/>
</g>
<!-- drawables/types.ts -->
<g id="node5" class="node">
<title>drawables/types.ts</title>
<path fill="none" stroke="#cfffac" d="M569.67,-247C569.67,-247 483.33,-247 483.33,-247 480.17,-247 477,-243.83 477,-240.67 477,-240.67 477,-234.33 477,-234.33 477,-231.17 480.17,-228 483.33,-228 483.33,-228 569.67,-228 569.67,-228 572.83,-228 576,-231.17 576,-234.33 576,-234.33 576,-240.67 576,-240.67 576,-243.83 572.83,-247 569.67,-247"/>
<text text-anchor="middle" x="526.5" y="-235" font-family="Arial" font-size="10.00" fill="#cfffac">drawables/types.ts</text>
</g>
<!-- drawables/drawables.ts&#45;&gt;drawables/types.ts -->
<g id="edge3" class="edge">
<title>drawables/drawables.ts&#45;&gt;drawables/types.ts</title>
<path fill="none" stroke="#757575" d="M251.98,-246.01C269.32,-249.78 290.06,-253.64 309,-255.5 367.39,-261.22 382.66,-261.65 441,-255.5 453.35,-254.2 466.56,-251.86 478.77,-249.28"/>
<polygon fill="#757575" stroke="#757575" points="479.74,-252.65 488.75,-247.08 478.23,-245.82 479.74,-252.65"/>
</g>
<!-- drawables/rect.ts&#45;&gt;canvas.ts -->
<g id="edge8" class="edge">
<title>drawables/rect.ts&#45;&gt;canvas.ts</title>
<path fill="none" stroke="#757575" d="M402.29,-151.92C414.14,-147.57 428.29,-142.33 441,-137.5 457.79,-131.12 476.38,-123.88 491.85,-117.81"/>
<polygon fill="#757575" stroke="#757575" points="493.48,-120.93 501.51,-114.01 490.92,-114.41 493.48,-120.93"/>
</g>
<!-- drawables/rect.ts&#45;&gt;drawables/types.ts -->
<g id="edge9" class="edge">
<title>drawables/rect.ts&#45;&gt;drawables/types.ts</title>
<path fill="none" stroke="#757575" d="M405.63,-171.05C416.91,-175.04 429.75,-180.03 441,-185.5 463.09,-196.24 486.79,-211.15 503.45,-222.25"/>
<polygon fill="#757575" stroke="#757575" points="501.68,-225.28 511.93,-227.98 505.6,-219.48 501.68,-225.28"/>
</g>
<!-- drawables/sprite.ts&#45;&gt;canvas.ts -->
<g id="edge14" class="edge">
<title>drawables/sprite.ts&#45;&gt;canvas.ts</title>
<path fill="none" stroke="#757575" d="M386.75,-227.93C411.95,-205.52 475.08,-149.36 506.75,-121.18"/>
<polygon fill="#757575" stroke="#757575" points="509.3,-123.6 514.44,-114.34 504.64,-118.37 509.3,-123.6"/>
</g>
<!-- drawables/sprite.ts&#45;&gt;drawables/types.ts -->
<g id="edge15" class="edge">
<title>drawables/sprite.ts&#45;&gt;drawables/types.ts</title>
<path fill="none" stroke="#757575" d="M424.54,-237.5C438.05,-237.5 452.88,-237.5 466.91,-237.5"/>
<polygon fill="#757575" stroke="#757575" points="466.95,-241 476.95,-237.5 466.95,-234 466.95,-241"/>
</g>
<!-- drawables/index.ts -->
<g id="node6" class="node">
<title>drawables/index.ts</title>
<path fill="none" stroke="#c6c5fe" d="M100.17,-246C100.17,-246 14.83,-246 14.83,-246 11.67,-246 8.5,-242.83 8.5,-239.67 8.5,-239.67 8.5,-233.33 8.5,-233.33 8.5,-230.17 11.67,-227 14.83,-227 14.83,-227 100.17,-227 100.17,-227 103.33,-227 106.5,-230.17 106.5,-233.33 106.5,-233.33 106.5,-239.67 106.5,-239.67 106.5,-242.83 103.33,-246 100.17,-246"/>
<text text-anchor="middle" x="57.5" y="-234" font-family="Arial" font-size="10.00" fill="#c6c5fe">drawables/index.ts</text>
</g>
<!-- drawables/index.ts&#45;&gt;drawables/rect.ts -->
<g id="edge4" class="edge">
<title>drawables/index.ts&#45;&gt;drawables/rect.ts</title>
<path fill="none" stroke="#757575" d="M70.18,-226.95C86.92,-213.88 119.23,-190.84 151,-180.5 206.13,-162.55 272.76,-159.07 318.74,-159.29"/>
<polygon fill="#757575" stroke="#757575" points="318.77,-162.79 328.81,-159.4 318.85,-155.79 318.77,-162.79"/>
</g>
<!-- drawables/index.ts&#45;&gt;drawables/sprite.ts -->
<g id="edge6" class="edge">
<title>drawables/index.ts&#45;&gt;drawables/sprite.ts</title>
<path fill="none" stroke="#757575" d="M98.78,-246.08C114.91,-249.46 133.74,-252.84 151,-254.5 204.97,-259.7 218.97,-259.02 273,-254.5 287.4,-253.3 302.84,-251.14 317.2,-248.77"/>
<polygon fill="#757575" stroke="#757575" points="318.18,-252.15 327.44,-247 316.99,-245.25 318.18,-252.15"/>
</g>
<!-- drawables/index.ts&#45;&gt;drawables/types.ts -->
<g id="edge7" class="edge">
<title>drawables/index.ts&#45;&gt;drawables/types.ts</title>
<path fill="none" stroke="#757575" d="M78.51,-246.11C96.88,-254.39 125.09,-265.72 151,-270.5 277.75,-293.89 314.58,-297.64 441,-272.5 461.12,-268.5 482.45,-259.62 498.65,-251.81"/>
<polygon fill="#757575" stroke="#757575" points="500.63,-254.73 508.01,-247.14 497.5,-248.47 500.63,-254.73"/>
</g>
<!-- drawables/render.ts -->
<g id="node7" class="node">
<title>drawables/render.ts</title>
<path fill="none" stroke="#c6c5fe" d="M256.67,-209C256.67,-209 167.33,-209 167.33,-209 164.17,-209 161,-205.83 161,-202.67 161,-202.67 161,-196.33 161,-196.33 161,-193.17 164.17,-190 167.33,-190 167.33,-190 256.67,-190 256.67,-190 259.83,-190 263,-193.17 263,-196.33 263,-196.33 263,-202.67 263,-202.67 263,-205.83 259.83,-209 256.67,-209"/>
<text text-anchor="middle" x="212" y="-197" font-family="Arial" font-size="10.00" fill="#c6c5fe">drawables/render.ts</text>
</g>
<!-- drawables/index.ts&#45;&gt;drawables/render.ts -->
<g id="edge5" class="edge">
<title>drawables/index.ts&#45;&gt;drawables/render.ts</title>
<path fill="none" stroke="#757575" d="M97.77,-226.97C117.26,-222.24 141.01,-216.48 161.71,-211.46"/>
<polygon fill="#757575" stroke="#757575" points="162.7,-214.82 171.6,-209.06 161.05,-208.02 162.7,-214.82"/>
</g>
<!-- drawables/render.ts&#45;&gt;canvas.ts -->
<g id="edge10" class="edge">
<title>drawables/render.ts&#45;&gt;canvas.ts</title>
<path fill="none" stroke="#757575" d="M225.59,-189.97C243.25,-177.1 276.83,-154.42 309,-142.5 368.8,-120.35 442.78,-110.92 486.94,-107.05"/>
<polygon fill="#757575" stroke="#757575" points="487.29,-110.53 496.97,-106.22 486.71,-103.56 487.29,-110.53"/>
</g>
<!-- drawables/render.ts&#45;&gt;drawables/rect.ts -->
<g id="edge11" class="edge">
<title>drawables/render.ts&#45;&gt;drawables/rect.ts</title>
<path fill="none" stroke="#757575" d="M253.63,-189.91C274.97,-184.87 301.31,-178.66 323.91,-173.32"/>
<polygon fill="#757575" stroke="#757575" points="324.74,-176.72 333.67,-171.02 323.13,-169.91 324.74,-176.72"/>
</g>
<!-- drawables/render.ts&#45;&gt;drawables/sprite.ts -->
<g id="edge12" class="edge">
<title>drawables/render.ts&#45;&gt;drawables/sprite.ts</title>
<path fill="none" stroke="#757575" d="M253.63,-209.09C274.97,-214.13 301.31,-220.34 323.91,-225.68"/>
<polygon fill="#757575" stroke="#757575" points="323.13,-229.09 333.67,-227.98 324.74,-222.28 323.13,-229.09"/>
</g>
<!-- drawables/render.ts&#45;&gt;drawables/types.ts -->
<g id="edge13" class="edge">
<title>drawables/render.ts&#45;&gt;drawables/types.ts</title>
<path fill="none" stroke="#757575" d="M263.05,-201.68C309.4,-204.17 380.14,-209.17 441,-218.5 453.19,-220.37 466.25,-222.99 478.36,-225.69"/>
<polygon fill="#757575" stroke="#757575" points="477.74,-229.14 488.27,-227.96 479.31,-222.32 477.74,-229.14"/>
</g>
<!-- index.ts -->
<g id="node8" class="node">
<title>index.ts</title>
<path fill="none" stroke="#c6c5fe" d="M78.17,-76C78.17,-76 36.83,-76 36.83,-76 33.67,-76 30.5,-72.83 30.5,-69.67 30.5,-69.67 30.5,-63.33 30.5,-63.33 30.5,-60.17 33.67,-57 36.83,-57 36.83,-57 78.17,-57 78.17,-57 81.33,-57 84.5,-60.17 84.5,-63.33 84.5,-63.33 84.5,-69.67 84.5,-69.67 84.5,-72.83 81.33,-76 78.17,-76"/>
<text text-anchor="middle" x="57.5" y="-64" font-family="Arial" font-size="10.00" fill="#c6c5fe">index.ts</text>
</g>
<!-- index.ts&#45;&gt;canvas.ts -->
<g id="edge16" class="edge">
<title>index.ts&#45;&gt;canvas.ts</title>
<path fill="none" stroke="#757575" d="M84.87,-62.74C147.52,-54.63 309.84,-38.37 441,-66.5 462.17,-71.04 484.43,-81.31 500.79,-90.03"/>
<polygon fill="#757575" stroke="#757575" points="499.24,-93.17 509.69,-94.93 502.62,-87.04 499.24,-93.17"/>
</g>
<!-- index.ts&#45;&gt;drawables/drawables.ts -->
<g id="edge17" class="edge">
<title>index.ts&#45;&gt;drawables/drawables.ts</title>
<path fill="none" stroke="#757575" d="M61.72,-76.28C71.05,-103.04 100.64,-178.1 151,-217.5 153.42,-219.39 156.03,-221.1 158.76,-222.63"/>
<polygon fill="#757575" stroke="#757575" points="157.27,-225.8 167.8,-226.99 160.31,-219.5 157.27,-225.8"/>
</g>
<!-- sprites.ts -->
<g id="node9" class="node">
<title>sprites.ts</title>
<path fill="none" stroke="#cfffac" d="M234.17,-95C234.17,-95 189.83,-95 189.83,-95 186.67,-95 183.5,-91.83 183.5,-88.67 183.5,-88.67 183.5,-82.33 183.5,-82.33 183.5,-79.17 186.67,-76 189.83,-76 189.83,-76 234.17,-76 234.17,-76 237.33,-76 240.5,-79.17 240.5,-82.33 240.5,-82.33 240.5,-88.67 240.5,-88.67 240.5,-91.83 237.33,-95 234.17,-95"/>
<text text-anchor="middle" x="212" y="-83" font-family="Arial" font-size="10.00" fill="#cfffac">sprites.ts</text>
</g>
<!-- index.ts&#45;&gt;sprites.ts -->
<g id="edge18" class="edge">
<title>index.ts&#45;&gt;sprites.ts</title>
<path fill="none" stroke="#757575" d="M84.72,-69.77C109.11,-72.81 145.73,-77.37 173.26,-80.8"/>
<polygon fill="#757575" stroke="#757575" points="172.97,-84.29 183.32,-82.05 173.83,-77.34 172.97,-84.29"/>
</g>
<!-- web&#45;renderer.ts -->
<g id="node10" class="node">
<title>web&#45;renderer.ts</title>
<path fill="none" stroke="#c6c5fe" d="M410.67,-19C410.67,-19 339.33,-19 339.33,-19 336.17,-19 333,-15.83 333,-12.67 333,-12.67 333,-6.33 333,-6.33 333,-3.17 336.17,0 339.33,0 339.33,0 410.67,0 410.67,0 413.83,0 417,-3.17 417,-6.33 417,-6.33 417,-12.67 417,-12.67 417,-15.83 413.83,-19 410.67,-19"/>
<text text-anchor="middle" x="375" y="-7" font-family="Arial" font-size="10.00" fill="#c6c5fe">web&#45;renderer.ts</text>
</g>
<!-- index.ts&#45;&gt;web&#45;renderer.ts -->
<g id="edge19" class="edge">
<title>index.ts&#45;&gt;web&#45;renderer.ts</title>
<path fill="none" stroke="#757575" d="M80.49,-56.99C98.96,-49.42 126.23,-39.17 151,-33.5 208.93,-20.24 277.04,-14.26 322.61,-11.6"/>
<polygon fill="#757575" stroke="#757575" points="323.04,-15.08 332.83,-11.03 322.65,-8.09 323.04,-15.08"/>
</g>
<!-- web&#45;renderer.ts&#45;&gt;canvas.ts -->
<g id="edge24" class="edge">
<title>web&#45;renderer.ts&#45;&gt;canvas.ts</title>
<path fill="none" stroke="#757575" d="M408.73,-19.11C419.38,-22.87 431.01,-27.7 441,-33.5 466.91,-48.55 492.71,-71.72 508.85,-87.46"/>
<polygon fill="#757575" stroke="#757575" points="506.4,-89.96 515.96,-94.52 511.33,-84.99 506.4,-89.96"/>
</g>
<!-- spritesheets/index.ts -->
<g id="node11" class="node">
<title>spritesheets/index.ts</title>
<path fill="none" stroke="#c6c5fe" d="M104.67,-380C104.67,-380 10.33,-380 10.33,-380 7.17,-380 4,-376.83 4,-373.67 4,-373.67 4,-367.33 4,-367.33 4,-364.17 7.17,-361 10.33,-361 10.33,-361 104.67,-361 104.67,-361 107.83,-361 111,-364.17 111,-367.33 111,-367.33 111,-373.67 111,-373.67 111,-376.83 107.83,-380 104.67,-380"/>
<text text-anchor="middle" x="57.5" y="-368" font-family="Arial" font-size="10.00" fill="#c6c5fe">spritesheets/index.ts</text>
</g>
<!-- spritesheets/manager.ts -->
<g id="node12" class="node">
<title>spritesheets/manager.ts</title>
<path fill="none" stroke="#c6c5fe" d="M266.67,-399C266.67,-399 157.33,-399 157.33,-399 154.17,-399 151,-395.83 151,-392.67 151,-392.67 151,-386.33 151,-386.33 151,-383.17 154.17,-380 157.33,-380 157.33,-380 266.67,-380 266.67,-380 269.83,-380 273,-383.17 273,-386.33 273,-386.33 273,-392.67 273,-392.67 273,-395.83 269.83,-399 266.67,-399"/>
<text text-anchor="middle" x="212" y="-387" font-family="Arial" font-size="10.00" fill="#c6c5fe">spritesheets/manager.ts</text>
</g>
<!-- spritesheets/index.ts&#45;&gt;spritesheets/manager.ts -->
<g id="edge20" class="edge">
<title>spritesheets/index.ts&#45;&gt;spritesheets/manager.ts</title>
<path fill="none" stroke="#757575" d="M111.41,-377.09C120.86,-378.27 130.84,-379.51 140.68,-380.74"/>
<polygon fill="#757575" stroke="#757575" points="140.51,-384.24 150.87,-382.01 141.38,-377.3 140.51,-384.24"/>
</g>
<!-- spritesheets/spritesheet.ts -->
<g id="node13" class="node">
<title>spritesheets/spritesheet.ts</title>
<path fill="none" stroke="#cfffac" d="M434.67,-380C434.67,-380 315.33,-380 315.33,-380 312.17,-380 309,-376.83 309,-373.67 309,-373.67 309,-367.33 309,-367.33 309,-364.17 312.17,-361 315.33,-361 315.33,-361 434.67,-361 434.67,-361 437.83,-361 441,-364.17 441,-367.33 441,-367.33 441,-373.67 441,-373.67 441,-376.83 437.83,-380 434.67,-380"/>
<text text-anchor="middle" x="375" y="-368" font-family="Arial" font-size="10.00" fill="#cfffac">spritesheets/spritesheet.ts</text>
</g>
<!-- spritesheets/index.ts&#45;&gt;spritesheets/spritesheet.ts -->
<g id="edge21" class="edge">
<title>spritesheets/index.ts&#45;&gt;spritesheets/spritesheet.ts</title>
<path fill="none" stroke="#757575" d="M111.31,-370.5C162.61,-370.5 241.01,-370.5 298.81,-370.5"/>
<polygon fill="#757575" stroke="#757575" points="298.99,-374 308.99,-370.5 298.99,-367 298.99,-374"/>
</g>
<!-- spritesheets/manager.ts&#45;&gt;spritesheets/spritesheet.ts -->
<g id="edge22" class="edge">
<title>spritesheets/manager.ts&#45;&gt;spritesheets/spritesheet.ts</title>
<path fill="none" stroke="#757575" d="M273.41,-382.37C281.75,-381.39 290.39,-380.37 298.95,-379.36"/>
<polygon fill="#757575" stroke="#757575" points="299.42,-382.83 308.94,-378.18 298.6,-375.87 299.42,-382.83"/>
</g>
<!-- tiled&#45;helpers/index.ts -->
<g id="node14" class="node">
<title>tiled&#45;helpers/index.ts</title>
<path fill="none" stroke="#cfffac" d="M104.67,-417C104.67,-417 10.33,-417 10.33,-417 7.17,-417 4,-413.83 4,-410.67 4,-410.67 4,-404.33 4,-404.33 4,-401.17 7.17,-398 10.33,-398 10.33,-398 104.67,-398 104.67,-398 107.83,-398 111,-401.17 111,-404.33 111,-404.33 111,-410.67 111,-410.67 111,-413.83 107.83,-417 104.67,-417"/>
<text text-anchor="middle" x="57.5" y="-405" font-family="Arial" font-size="10.00" fill="#cfffac">tiled&#45;helpers/index.ts</text>
</g>
<!-- tiled&#45;helpers/tilemap.ts -->
<g id="node15" class="node">
<title>tiled&#45;helpers/tilemap.ts</title>
<path fill="none" stroke="#cfffac" d="M108.67,-454C108.67,-454 6.33,-454 6.33,-454 3.17,-454 0,-450.83 0,-447.67 0,-447.67 0,-441.33 0,-441.33 0,-438.17 3.17,-435 6.33,-435 6.33,-435 108.67,-435 108.67,-435 111.83,-435 115,-438.17 115,-441.33 115,-441.33 115,-447.67 115,-447.67 115,-450.83 111.83,-454 108.67,-454"/>
<text text-anchor="middle" x="57.5" y="-442" font-family="Arial" font-size="10.00" fill="#cfffac">tiled&#45;helpers/tilemap.ts</text>
</g>
<!-- tiled&#45;helpers/tileset.ts -->
<g id="node16" class="node">
<title>tiled&#45;helpers/tileset.ts</title>
<path fill="none" stroke="#cfffac" d="M106.17,-491C106.17,-491 8.83,-491 8.83,-491 5.67,-491 2.5,-487.83 2.5,-484.67 2.5,-484.67 2.5,-478.33 2.5,-478.33 2.5,-475.17 5.67,-472 8.83,-472 8.83,-472 106.17,-472 106.17,-472 109.33,-472 112.5,-475.17 112.5,-478.33 112.5,-478.33 112.5,-484.67 112.5,-484.67 112.5,-487.83 109.33,-491 106.17,-491"/>
<text text-anchor="middle" x="57.5" y="-479" font-family="Arial" font-size="10.00" fill="#cfffac">tiled&#45;helpers/tileset.ts</text>
</g>
<!-- types.ts -->
<g id="node17" class="node">
<title>types.ts</title>
<path fill="none" stroke="#c6c5fe" d="M395.67,-95C395.67,-95 354.33,-95 354.33,-95 351.17,-95 348,-91.83 348,-88.67 348,-88.67 348,-82.33 348,-82.33 348,-79.17 351.17,-76 354.33,-76 354.33,-76 395.67,-76 395.67,-76 398.83,-76 402,-79.17 402,-82.33 402,-82.33 402,-88.67 402,-88.67 402,-91.83 398.83,-95 395.67,-95"/>
<text text-anchor="middle" x="375" y="-83" font-family="Arial" font-size="10.00" fill="#c6c5fe">types.ts</text>
</g>
<!-- types.ts&#45;&gt;canvas.ts -->
<g id="edge23" class="edge">
<title>types.ts&#45;&gt;canvas.ts</title>
<path fill="none" stroke="#757575" d="M402.04,-88.81C425.45,-91.78 460.16,-96.2 486.81,-99.58"/>
<polygon fill="#757575" stroke="#757575" points="486.6,-103.08 496.96,-100.87 487.48,-96.14 486.6,-103.08"/>
</g>
</g>
</svg>
