<?xml version="1.0" encoding="UTF-8" standalone="no"?>
<!DOCTYPE svg PUBLIC "-//W3C//DTD SVG 1.1//EN"
 "http://www.w3.org/Graphics/SVG/1.1/DTD/svg11.dtd">
<!-- Generated by graphviz version 2.44.1 (20200629.0846)
 -->
<!-- Title: G Pages: 1 -->
<svg width="1104pt" height="890pt"
 viewBox="0.00 0.00 1104.20 890.20" xmlns="http://www.w3.org/2000/svg" xmlns:xlink="http://www.w3.org/1999/xlink">
<g id="graph0" class="graph" transform="scale(1 1) rotate(0) translate(21.6 868.6)">
<title>G</title>
<polygon fill="#111111" stroke="transparent" points="-21.6,21.6 -21.6,-868.6 1082.6,-868.6 1082.6,21.6 -21.6,21.6"/>
<!-- actors/directory.ts -->
<g id="node1" class="node">
<title>actors/directory.ts</title>
<path fill="none" stroke="#cfffac" d="M159.17,-19C159.17,-19 76.83,-19 76.83,-19 73.67,-19 70.5,-15.83 70.5,-12.67 70.5,-12.67 70.5,-6.33 70.5,-6.33 70.5,-3.17 73.67,0 76.83,0 76.83,0 159.17,0 159.17,0 162.33,0 165.5,-3.17 165.5,-6.33 165.5,-6.33 165.5,-12.67 165.5,-12.67 165.5,-15.83 162.33,-19 159.17,-19"/>
<text text-anchor="middle" x="118" y="-7" font-family="Arial" font-size="10.00" fill="#cfffac">actors/directory.ts</text>
</g>
<!-- actors/human&#45;player.ts -->
<g id="node2" class="node">
<title>actors/human&#45;player.ts</title>
<path fill="none" stroke="#cfffac" d="M415.67,-56C415.67,-56 312.33,-56 312.33,-56 309.17,-56 306,-52.83 306,-49.67 306,-49.67 306,-43.33 306,-43.33 306,-40.17 309.17,-37 312.33,-37 312.33,-37 415.67,-37 415.67,-37 418.83,-37 422,-40.17 422,-43.33 422,-43.33 422,-49.67 422,-49.67 422,-52.83 418.83,-56 415.67,-56"/>
<text text-anchor="middle" x="364" y="-44" font-family="Arial" font-size="10.00" fill="#cfffac">actors/human&#45;player.ts</text>
</g>
<!-- actors/index.ts -->
<g id="node3" class="node">
<title>actors/index.ts</title>
<path fill="none" stroke="#c6c5fe" d="M152.17,-56C152.17,-56 83.83,-56 83.83,-56 80.67,-56 77.5,-52.83 77.5,-49.67 77.5,-49.67 77.5,-43.33 77.5,-43.33 77.5,-40.17 80.67,-37 83.83,-37 83.83,-37 152.17,-37 152.17,-37 155.33,-37 158.5,-40.17 158.5,-43.33 158.5,-43.33 158.5,-49.67 158.5,-49.67 158.5,-52.83 155.33,-56 152.17,-56"/>
<text text-anchor="middle" x="118" y="-44" font-family="Arial" font-size="10.00" fill="#c6c5fe">actors/index.ts</text>
</g>
<!-- actors/index.ts&#45;&gt;actors/human&#45;player.ts -->
<g id="edge1" class="edge">
<title>actors/index.ts&#45;&gt;actors/human&#45;player.ts</title>
<path fill="none" stroke="#757575" d="M158.75,-46.5C195.83,-46.5 251.89,-46.5 295.9,-46.5"/>
<polygon fill="#757575" stroke="#757575" points="295.96,-50 305.96,-46.5 295.96,-43 295.96,-50"/>
</g>
<!-- components/index.ts -->
<g id="node4" class="node">
<title>components/index.ts</title>
<path fill="none" stroke="#c6c5fe" d="M411.17,-546C411.17,-546 316.83,-546 316.83,-546 313.67,-546 310.5,-542.83 310.5,-539.67 310.5,-539.67 310.5,-533.33 310.5,-533.33 310.5,-530.17 313.67,-527 316.83,-527 316.83,-527 411.17,-527 411.17,-527 414.33,-527 417.5,-530.17 417.5,-533.33 417.5,-533.33 417.5,-539.67 417.5,-539.67 417.5,-542.83 414.33,-546 411.17,-546"/>
<text text-anchor="middle" x="364" y="-534" font-family="Arial" font-size="10.00" fill="#c6c5fe">components/index.ts</text>
</g>
<!-- components/stateful&#45;components.ts -->
<g id="node5" class="node">
<title>components/stateful&#45;components.ts</title>
<path fill="none" stroke="#cfffac" d="M819.67,-527C819.67,-527 659.33,-527 659.33,-527 656.17,-527 653,-523.83 653,-520.67 653,-520.67 653,-514.33 653,-514.33 653,-511.17 656.17,-508 659.33,-508 659.33,-508 819.67,-508 819.67,-508 822.83,-508 826,-511.17 826,-514.33 826,-514.33 826,-520.67 826,-520.67 826,-523.83 822.83,-527 819.67,-527"/>
<text text-anchor="middle" x="739.5" y="-515" font-family="Arial" font-size="10.00" fill="#cfffac">components/stateful&#45;components.ts</text>
</g>
<!-- components/index.ts&#45;&gt;components/stateful&#45;components.ts -->
<g id="edge2" class="edge">
<title>components/index.ts&#45;&gt;components/stateful&#45;components.ts</title>
<path fill="none" stroke="#757575" d="M417.72,-533.82C475.99,-530.85 571.04,-526.02 642.58,-522.38"/>
<polygon fill="#757575" stroke="#757575" points="643.15,-525.86 652.96,-521.85 642.79,-518.86 643.15,-525.86"/>
</g>
<!-- components/status.ts -->
<g id="node6" class="node">
<title>components/status.ts</title>
<path fill="none" stroke="#c6c5fe" d="M603.67,-508C603.67,-508 505.33,-508 505.33,-508 502.17,-508 499,-504.83 499,-501.67 499,-501.67 499,-495.33 499,-495.33 499,-492.17 502.17,-489 505.33,-489 505.33,-489 603.67,-489 603.67,-489 606.83,-489 610,-492.17 610,-495.33 610,-495.33 610,-501.67 610,-501.67 610,-504.83 606.83,-508 603.67,-508"/>
<text text-anchor="middle" x="554.5" y="-496" font-family="Arial" font-size="10.00" fill="#c6c5fe">components/status.ts</text>
</g>
<!-- components/index.ts&#45;&gt;components/status.ts -->
<g id="edge3" class="edge">
<title>components/index.ts&#45;&gt;components/status.ts</title>
<path fill="none" stroke="#757575" d="M412.57,-526.91C438,-521.78 469.5,-515.43 496.27,-510.04"/>
<polygon fill="#757575" stroke="#757575" points="497.16,-513.43 506.28,-508.02 495.78,-506.57 497.16,-513.43"/>
</g>
<!-- components/transform.ts -->
<g id="node7" class="node">
<title>components/transform.ts</title>
<path fill="none" stroke="#cfffac" d="M610.67,-584C610.67,-584 498.33,-584 498.33,-584 495.17,-584 492,-580.83 492,-577.67 492,-577.67 492,-571.33 492,-571.33 492,-568.17 495.17,-565 498.33,-565 498.33,-565 610.67,-565 610.67,-565 613.83,-565 617,-568.17 617,-571.33 617,-571.33 617,-577.67 617,-577.67 617,-580.83 613.83,-584 610.67,-584"/>
<text text-anchor="middle" x="554.5" y="-572" font-family="Arial" font-size="10.00" fill="#cfffac">components/transform.ts</text>
</g>
<!-- components/index.ts&#45;&gt;components/transform.ts -->
<g id="edge4" class="edge">
<title>components/index.ts&#45;&gt;components/transform.ts</title>
<path fill="none" stroke="#757575" d="M413.66,-546.06C427.36,-548.77 442.26,-551.73 456,-554.5 469.36,-557.19 483.75,-560.12 497.26,-562.89"/>
<polygon fill="#757575" stroke="#757575" points="496.89,-566.39 507.39,-564.97 498.3,-559.53 496.89,-566.39"/>
</g>
<!-- components/status.ts&#45;&gt;components/stateful&#45;components.ts -->
<g id="edge5" class="edge">
<title>components/status.ts&#45;&gt;components/stateful&#45;components.ts</title>
<path fill="none" stroke="#757575" d="M610.41,-504.2C620.64,-505.26 631.61,-506.4 642.66,-507.55"/>
<polygon fill="#757575" stroke="#757575" points="642.51,-511.05 652.82,-508.6 643.24,-504.09 642.51,-511.05"/>
</g>
<!-- controllers/__tests__/server&#45;state&#45;controller.test.ts -->
<g id="node8" class="node">
<title>controllers/__tests__/server&#45;state&#45;controller.test.ts</title>
<path fill="none" stroke="#c6c5fe" d="M229.67,-206C229.67,-206 6.33,-206 6.33,-206 3.17,-206 0,-202.83 0,-199.67 0,-199.67 0,-193.33 0,-193.33 0,-190.17 3.17,-187 6.33,-187 6.33,-187 229.67,-187 229.67,-187 232.83,-187 236,-190.17 236,-193.33 236,-193.33 236,-199.67 236,-199.67 236,-202.83 232.83,-206 229.67,-206"/>
<text text-anchor="middle" x="118" y="-194" font-family="Arial" font-size="10.00" fill="#c6c5fe">controllers/__tests__/server&#45;state&#45;controller.test.ts</text>
</g>
<!-- controllers/server&#45;state&#45;controller.ts -->
<g id="node9" class="node">
<title>controllers/server&#45;state&#45;controller.ts</title>
<path fill="none" stroke="#c6c5fe" d="M442.67,-206C442.67,-206 285.33,-206 285.33,-206 282.17,-206 279,-202.83 279,-199.67 279,-199.67 279,-193.33 279,-193.33 279,-190.17 282.17,-187 285.33,-187 285.33,-187 442.67,-187 442.67,-187 445.83,-187 449,-190.17 449,-193.33 449,-193.33 449,-199.67 449,-199.67 449,-202.83 445.83,-206 442.67,-206"/>
<text text-anchor="middle" x="364" y="-194" font-family="Arial" font-size="10.00" fill="#c6c5fe">controllers/server&#45;state&#45;controller.ts</text>
</g>
<!-- controllers/__tests__/server&#45;state&#45;controller.test.ts&#45;&gt;controllers/server&#45;state&#45;controller.ts -->
<g id="edge6" class="edge">
<title>controllers/__tests__/server&#45;state&#45;controller.test.ts&#45;&gt;controllers/server&#45;state&#45;controller.ts</title>
<path fill="none" stroke="#757575" d="M236.35,-196.5C247.18,-196.5 258.05,-196.5 268.63,-196.5"/>
<polygon fill="#757575" stroke="#757575" points="268.68,-200 278.68,-196.5 268.68,-193 268.68,-200"/>
</g>
<!-- controllers/controller.ts -->
<g id="node10" class="node">
<title>controllers/controller.ts</title>
<path fill="none" stroke="#c6c5fe" d="M606.17,-206C606.17,-206 502.83,-206 502.83,-206 499.67,-206 496.5,-202.83 496.5,-199.67 496.5,-199.67 496.5,-193.33 496.5,-193.33 496.5,-190.17 499.67,-187 502.83,-187 502.83,-187 606.17,-187 606.17,-187 609.33,-187 612.5,-190.17 612.5,-193.33 612.5,-193.33 612.5,-199.67 612.5,-199.67 612.5,-202.83 609.33,-206 606.17,-206"/>
<text text-anchor="middle" x="554.5" y="-194" font-family="Arial" font-size="10.00" fill="#c6c5fe">controllers/controller.ts</text>
</g>
<!-- controllers/server&#45;state&#45;controller.ts&#45;&gt;controllers/controller.ts -->
<g id="edge18" class="edge">
<title>controllers/server&#45;state&#45;controller.ts&#45;&gt;controllers/controller.ts</title>
<path fill="none" stroke="#757575" d="M449.05,-196.5C461.43,-196.5 474.04,-196.5 486.03,-196.5"/>
<polygon fill="#757575" stroke="#757575" points="486.38,-200 496.38,-196.5 486.38,-193 486.38,-200"/>
</g>
<!-- time.ts -->
<g id="node17" class="node">
<title>time.ts</title>
<path fill="none" stroke="#cfffac" d="M912.67,-357C912.67,-357 871.33,-357 871.33,-357 868.17,-357 865,-353.83 865,-350.67 865,-350.67 865,-344.33 865,-344.33 865,-341.17 868.17,-338 871.33,-338 871.33,-338 912.67,-338 912.67,-338 915.83,-338 919,-341.17 919,-344.33 919,-344.33 919,-350.67 919,-350.67 919,-353.83 915.83,-357 912.67,-357"/>
<text text-anchor="middle" x="892" y="-345" font-family="Arial" font-size="10.00" fill="#cfffac">time.ts</text>
</g>
<!-- controllers/server&#45;state&#45;controller.ts&#45;&gt;time.ts -->
<g id="edge19" class="edge">
<title>controllers/server&#45;state&#45;controller.ts&#45;&gt;time.ts</title>
<path fill="none" stroke="#757575" d="M372.79,-206.1C391.13,-228.01 439.45,-281.98 492,-309.5 612.45,-372.57 781.47,-361.5 854.75,-352.72"/>
<polygon fill="#757575" stroke="#757575" points="855.36,-356.18 864.85,-351.46 854.49,-349.23 855.36,-356.18"/>
</g>
<!-- game&#45;loop.ts -->
<g id="node11" class="node">
<title>game&#45;loop.ts</title>
<path fill="none" stroke="#c6c5fe" d="M769.67,-244C769.67,-244 709.33,-244 709.33,-244 706.17,-244 703,-240.83 703,-237.67 703,-237.67 703,-231.33 703,-231.33 703,-228.17 706.17,-225 709.33,-225 709.33,-225 769.67,-225 769.67,-225 772.83,-225 776,-228.17 776,-231.33 776,-231.33 776,-237.67 776,-237.67 776,-240.83 772.83,-244 769.67,-244"/>
<text text-anchor="middle" x="739.5" y="-232" font-family="Arial" font-size="10.00" fill="#c6c5fe">game&#45;loop.ts</text>
</g>
<!-- controllers/controller.ts&#45;&gt;game&#45;loop.ts -->
<g id="edge7" class="edge">
<title>controllers/controller.ts&#45;&gt;game&#45;loop.ts</title>
<path fill="none" stroke="#757575" d="M601.68,-206.09C629.59,-211.89 665.03,-219.24 692.85,-225.02"/>
<polygon fill="#757575" stroke="#757575" points="692.22,-228.47 702.73,-227.07 693.65,-221.61 692.22,-228.47"/>
</g>
<!-- runtime.ts -->
<g id="node16" class="node">
<title>runtime.ts</title>
<path fill="none" stroke="#c6c5fe" d="M915.67,-225C915.67,-225 868.33,-225 868.33,-225 865.17,-225 862,-221.83 862,-218.67 862,-218.67 862,-212.33 862,-212.33 862,-209.17 865.17,-206 868.33,-206 868.33,-206 915.67,-206 915.67,-206 918.83,-206 922,-209.17 922,-212.33 922,-212.33 922,-218.67 922,-218.67 922,-221.83 918.83,-225 915.67,-225"/>
<text text-anchor="middle" x="892" y="-213" font-family="Arial" font-size="10.00" fill="#c6c5fe">runtime.ts</text>
</g>
<!-- game&#45;loop.ts&#45;&gt;runtime.ts -->
<g id="edge29" class="edge">
<title>game&#45;loop.ts&#45;&gt;runtime.ts</title>
<path fill="none" stroke="#757575" d="M776.17,-230C798.88,-227.13 828.33,-223.41 851.71,-220.46"/>
<polygon fill="#757575" stroke="#757575" points="852.17,-223.93 861.65,-219.2 851.29,-216.99 852.17,-223.93"/>
</g>
<!-- game&#45;loop.ts&#45;&gt;time.ts -->
<g id="edge30" class="edge">
<title>game&#45;loop.ts&#45;&gt;time.ts</title>
<path fill="none" stroke="#757575" d="M776.12,-235.99C792.44,-238.11 811.37,-242.72 826,-252.5 854.11,-271.29 873.46,-306.74 883.35,-328.62"/>
<polygon fill="#757575" stroke="#757575" points="880.16,-330.08 887.33,-337.88 886.59,-327.31 880.16,-330.08"/>
</g>
<!-- controllers/index.ts -->
<g id="node12" class="node">
<title>controllers/index.ts</title>
<path fill="none" stroke="#c6c5fe" d="M161.17,-149C161.17,-149 74.83,-149 74.83,-149 71.67,-149 68.5,-145.83 68.5,-142.67 68.5,-142.67 68.5,-136.33 68.5,-136.33 68.5,-133.17 71.67,-130 74.83,-130 74.83,-130 161.17,-130 161.17,-130 164.33,-130 167.5,-133.17 167.5,-136.33 167.5,-136.33 167.5,-142.67 167.5,-142.67 167.5,-145.83 164.33,-149 161.17,-149"/>
<text text-anchor="middle" x="118" y="-137" font-family="Arial" font-size="10.00" fill="#c6c5fe">controllers/index.ts</text>
</g>
<!-- controllers/index.ts&#45;&gt;controllers/server&#45;state&#45;controller.ts -->
<g id="edge11" class="edge">
<title>controllers/index.ts&#45;&gt;controllers/server&#45;state&#45;controller.ts</title>
<path fill="none" stroke="#757575" d="M159.84,-149.04C201.71,-158.82 266.93,-174.06 312.13,-184.62"/>
<polygon fill="#757575" stroke="#757575" points="311.49,-188.06 322.03,-186.93 313.09,-181.25 311.49,-188.06"/>
</g>
<!-- controllers/index.ts&#45;&gt;controllers/controller.ts -->
<g id="edge8" class="edge">
<title>controllers/index.ts&#45;&gt;controllers/controller.ts</title>
<path fill="none" stroke="#757575" d="M167.71,-143.76C233.39,-149.78 353.87,-161.82 456,-177.5 469.85,-179.63 484.74,-182.32 498.6,-185"/>
<polygon fill="#757575" stroke="#757575" points="498,-188.45 508.49,-186.95 499.35,-181.58 498,-188.45"/>
</g>
<!-- controllers/movement&#45;test&#45;controller.ts -->
<g id="node13" class="node">
<title>controllers/movement&#45;test&#45;controller.ts</title>
<path fill="none" stroke="#c6c5fe" d="M449.67,-130C449.67,-130 278.33,-130 278.33,-130 275.17,-130 272,-126.83 272,-123.67 272,-123.67 272,-117.33 272,-117.33 272,-114.17 275.17,-111 278.33,-111 278.33,-111 449.67,-111 449.67,-111 452.83,-111 456,-114.17 456,-117.33 456,-117.33 456,-123.67 456,-123.67 456,-126.83 452.83,-130 449.67,-130"/>
<text text-anchor="middle" x="364" y="-118" font-family="Arial" font-size="10.00" fill="#c6c5fe">controllers/movement&#45;test&#45;controller.ts</text>
</g>
<!-- controllers/index.ts&#45;&gt;controllers/movement&#45;test&#45;controller.ts -->
<g id="edge9" class="edge">
<title>controllers/index.ts&#45;&gt;controllers/movement&#45;test&#45;controller.ts</title>
<path fill="none" stroke="#757575" d="M167.79,-135.7C194.76,-133.6 229.31,-130.91 261.82,-128.38"/>
<polygon fill="#757575" stroke="#757575" points="262.14,-131.86 271.84,-127.6 261.6,-124.89 262.14,-131.86"/>
</g>
<!-- controllers/rect&#45;controller.ts -->
<g id="node14" class="node">
<title>controllers/rect&#45;controller.ts</title>
<path fill="none" stroke="#c6c5fe" d="M425.17,-93C425.17,-93 302.83,-93 302.83,-93 299.67,-93 296.5,-89.83 296.5,-86.67 296.5,-86.67 296.5,-80.33 296.5,-80.33 296.5,-77.17 299.67,-74 302.83,-74 302.83,-74 425.17,-74 425.17,-74 428.33,-74 431.5,-77.17 431.5,-80.33 431.5,-80.33 431.5,-86.67 431.5,-86.67 431.5,-89.83 428.33,-93 425.17,-93"/>
<text text-anchor="middle" x="364" y="-81" font-family="Arial" font-size="10.00" fill="#c6c5fe">controllers/rect&#45;controller.ts</text>
</g>
<!-- controllers/index.ts&#45;&gt;controllers/rect&#45;controller.ts -->
<g id="edge10" class="edge">
<title>controllers/index.ts&#45;&gt;controllers/rect&#45;controller.ts</title>
<path fill="none" stroke="#757575" d="M155.36,-129.95C186.29,-121.94 231.93,-110.43 272,-101.5 281.78,-99.32 292.19,-97.13 302.34,-95.08"/>
<polygon fill="#757575" stroke="#757575" points="303.25,-98.46 312.37,-93.07 301.88,-91.6 303.25,-98.46"/>
</g>
<!-- controllers/movement&#45;test&#45;controller.ts&#45;&gt;controllers/controller.ts -->
<g id="edge12" class="edge">
<title>controllers/movement&#45;test&#45;controller.ts&#45;&gt;controllers/controller.ts</title>
<path fill="none" stroke="#757575" d="M415.9,-130.08C429.34,-133.63 443.55,-138.34 456,-144.5 474.17,-153.49 474.37,-162.49 492,-172.5 499.01,-176.48 506.8,-180.08 514.43,-183.22"/>
<polygon fill="#757575" stroke="#757575" points="513.34,-186.55 523.92,-186.93 515.88,-180.03 513.34,-186.55"/>
</g>
<!-- interop&#45;interfaces.ts -->
<g id="node15" class="node">
<title>interop&#45;interfaces.ts</title>
<path fill="none" stroke="#cfffac" d="M1054.67,-92C1054.67,-92 964.33,-92 964.33,-92 961.17,-92 958,-88.83 958,-85.67 958,-85.67 958,-79.33 958,-79.33 958,-76.17 961.17,-73 964.33,-73 964.33,-73 1054.67,-73 1054.67,-73 1057.83,-73 1061,-76.17 1061,-79.33 1061,-79.33 1061,-85.67 1061,-85.67 1061,-88.83 1057.83,-92 1054.67,-92"/>
<text text-anchor="middle" x="1009.5" y="-80" font-family="Arial" font-size="10.00" fill="#cfffac">interop&#45;interfaces.ts</text>
</g>
<!-- controllers/movement&#45;test&#45;controller.ts&#45;&gt;interop&#45;interfaces.ts -->
<g id="edge13" class="edge">
<title>controllers/movement&#45;test&#45;controller.ts&#45;&gt;interop&#45;interfaces.ts</title>
<path fill="none" stroke="#757575" d="M456.17,-115.12C589.49,-107.24 834.06,-92.8 947.6,-86.1"/>
<polygon fill="#757575" stroke="#757575" points="948.07,-89.57 957.85,-85.49 947.66,-82.59 948.07,-89.57"/>
</g>
<!-- controllers/movement&#45;test&#45;controller.ts&#45;&gt;runtime.ts -->
<g id="edge14" class="edge">
<title>controllers/movement&#45;test&#45;controller.ts&#45;&gt;runtime.ts</title>
<path fill="none" stroke="#757575" d="M446.97,-130.01C569.71,-144.48 790.68,-171.51 826,-182.5 840.21,-186.92 855.07,-194.24 867,-200.87"/>
<polygon fill="#757575" stroke="#757575" points="865.45,-204.01 875.86,-205.96 868.94,-197.94 865.45,-204.01"/>
</g>
<!-- controllers/rect&#45;controller.ts&#45;&gt;controllers/controller.ts -->
<g id="edge15" class="edge">
<title>controllers/rect&#45;controller.ts&#45;&gt;controllers/controller.ts</title>
<path fill="none" stroke="#757575" d="M431.66,-92.01C440.12,-94.43 448.44,-97.53 456,-101.5 460.86,-104.05 509.96,-152.88 536.57,-179.51"/>
<polygon fill="#757575" stroke="#757575" points="534.18,-182.08 543.73,-186.68 539.14,-177.13 534.18,-182.08"/>
</g>
<!-- controllers/rect&#45;controller.ts&#45;&gt;interop&#45;interfaces.ts -->
<g id="edge16" class="edge">
<title>controllers/rect&#45;controller.ts&#45;&gt;interop&#45;interfaces.ts</title>
<path fill="none" stroke="#757575" d="M431.77,-74.12C451.15,-71.8 472.39,-69.65 492,-68.5 682.78,-57.27 731.5,-53.18 922,-68.5 930.5,-69.18 939.43,-70.24 948.18,-71.47"/>
<polygon fill="#757575" stroke="#757575" points="947.95,-74.97 958.35,-72.99 948.98,-68.05 947.95,-74.97"/>
</g>
<!-- controllers/rect&#45;controller.ts&#45;&gt;runtime.ts -->
<g id="edge17" class="edge">
<title>controllers/rect&#45;controller.ts&#45;&gt;runtime.ts</title>
<path fill="none" stroke="#757575" d="M431.74,-81.03C524.92,-80.26 697.05,-88.75 826,-152.5 847.23,-163 865.99,-182.97 877.84,-197.62"/>
<polygon fill="#757575" stroke="#757575" points="875.38,-200.17 884.27,-205.93 880.91,-195.88 875.38,-200.17"/>
</g>
<!-- runtime.ts&#45;&gt;interop&#45;interfaces.ts -->
<g id="edge37" class="edge">
<title>runtime.ts&#45;&gt;interop&#45;interfaces.ts</title>
<path fill="none" stroke="#757575" d="M901.31,-205.93C920.61,-183.71 968.72,-128.31 993.39,-99.9"/>
<polygon fill="#757575" stroke="#757575" points="996.04,-102.18 999.96,-92.34 990.76,-97.59 996.04,-102.18"/>
</g>
<!-- controllers/server&#45;state&#45;reporter&#45;controller.ts -->
<g id="node18" class="node">
<title>controllers/server&#45;state&#45;reporter&#45;controller.ts</title>
<path fill="none" stroke="#c6c5fe" d="M214.67,-263C214.67,-263 21.33,-263 21.33,-263 18.17,-263 15,-259.83 15,-256.67 15,-256.67 15,-250.33 15,-250.33 15,-247.17 18.17,-244 21.33,-244 21.33,-244 214.67,-244 214.67,-244 217.83,-244 221,-247.17 221,-250.33 221,-250.33 221,-256.67 221,-256.67 221,-259.83 217.83,-263 214.67,-263"/>
<text text-anchor="middle" x="118" y="-251" font-family="Arial" font-size="10.00" fill="#c6c5fe">controllers/server&#45;state&#45;reporter&#45;controller.ts</text>
</g>
<!-- controllers/server&#45;state&#45;reporter&#45;controller.ts&#45;&gt;controllers/server&#45;state&#45;controller.ts -->
<g id="edge21" class="edge">
<title>controllers/server&#45;state&#45;reporter&#45;controller.ts&#45;&gt;controllers/server&#45;state&#45;controller.ts</title>
<path fill="none" stroke="#757575" d="M159.84,-243.96C201.71,-234.18 266.93,-218.94 312.13,-208.38"/>
<polygon fill="#757575" stroke="#757575" points="313.09,-211.75 322.03,-206.07 311.49,-204.94 313.09,-211.75"/>
</g>
<!-- controllers/server&#45;state&#45;reporter&#45;controller.ts&#45;&gt;controllers/controller.ts -->
<g id="edge20" class="edge">
<title>controllers/server&#45;state&#45;reporter&#45;controller.ts&#45;&gt;controllers/controller.ts</title>
<path fill="none" stroke="#757575" d="M216.56,-243.97C283.97,-236.95 375.62,-226.56 456,-214.5 468.76,-212.59 482.41,-210.25 495.33,-207.9"/>
<polygon fill="#757575" stroke="#757575" points="496.3,-211.28 505.5,-206.03 495.03,-204.4 496.3,-211.28"/>
</g>
<!-- controllers/server&#45;state&#45;reporter&#45;controller.ts&#45;&gt;runtime.ts -->
<g id="edge23" class="edge">
<title>controllers/server&#45;state&#45;reporter&#45;controller.ts&#45;&gt;runtime.ts</title>
<path fill="none" stroke="#757575" d="M221.27,-251.88C288.15,-250.25 377.37,-246.99 456,-240.5 543.96,-233.24 564.92,-221.07 653,-215.5 722.77,-211.09 804.29,-212.51 851.54,-213.98"/>
<polygon fill="#757575" stroke="#757575" points="851.54,-217.48 861.65,-214.31 851.77,-210.48 851.54,-217.48"/>
</g>
<!-- entities/player&#45;character.ts -->
<g id="node19" class="node">
<title>entities/player&#45;character.ts</title>
<path fill="none" stroke="#c6c5fe" d="M423.67,-433C423.67,-433 304.33,-433 304.33,-433 301.17,-433 298,-429.83 298,-426.67 298,-426.67 298,-420.33 298,-420.33 298,-417.17 301.17,-414 304.33,-414 304.33,-414 423.67,-414 423.67,-414 426.83,-414 430,-417.17 430,-420.33 430,-420.33 430,-426.67 430,-426.67 430,-429.83 426.83,-433 423.67,-433"/>
<text text-anchor="middle" x="364" y="-421" font-family="Arial" font-size="10.00" fill="#c6c5fe">entities/player&#45;character.ts</text>
</g>
<!-- controllers/server&#45;state&#45;reporter&#45;controller.ts&#45;&gt;entities/player&#45;character.ts -->
<g id="edge22" class="edge">
<title>controllers/server&#45;state&#45;reporter&#45;controller.ts&#45;&gt;entities/player&#45;character.ts</title>
<path fill="none" stroke="#757575" d="M132.82,-263.13C173.25,-291.3 291.56,-373.73 340.95,-408.14"/>
<polygon fill="#757575" stroke="#757575" points="339.13,-411.13 349.33,-413.98 343.13,-405.39 339.13,-411.13"/>
</g>
<!-- entities/player&#45;character.ts&#45;&gt;components/status.ts -->
<g id="edge26" class="edge">
<title>entities/player&#45;character.ts&#45;&gt;components/status.ts</title>
<path fill="none" stroke="#757575" d="M384.94,-433.15C409.7,-444.94 453.4,-465.08 492,-479.5 497.91,-481.71 504.2,-483.86 510.42,-485.89"/>
<polygon fill="#757575" stroke="#757575" points="509.48,-489.26 520.07,-488.94 511.59,-482.59 509.48,-489.26"/>
</g>
<!-- entities/player&#45;character.ts&#45;&gt;runtime.ts -->
<g id="edge28" class="edge">
<title>entities/player&#45;character.ts&#45;&gt;runtime.ts</title>
<path fill="none" stroke="#757575" d="M430.35,-423.1C525.7,-419.44 704.75,-400.66 826,-315.5 854.95,-295.17 874.21,-257.44 883.82,-234.59"/>
<polygon fill="#757575" stroke="#757575" points="887.09,-235.84 887.55,-225.25 880.59,-233.23 887.09,-235.84"/>
</g>
<!-- entities/entity.ts -->
<g id="node20" class="node">
<title>entities/entity.ts</title>
<path fill="none" stroke="#cfffac" d="M591.17,-471C591.17,-471 517.83,-471 517.83,-471 514.67,-471 511.5,-467.83 511.5,-464.67 511.5,-464.67 511.5,-458.33 511.5,-458.33 511.5,-455.17 514.67,-452 517.83,-452 517.83,-452 591.17,-452 591.17,-452 594.33,-452 597.5,-455.17 597.5,-458.33 597.5,-458.33 597.5,-464.67 597.5,-464.67 597.5,-467.83 594.33,-471 591.17,-471"/>
<text text-anchor="middle" x="554.5" y="-459" font-family="Arial" font-size="10.00" fill="#cfffac">entities/entity.ts</text>
</g>
<!-- entities/player&#45;character.ts&#45;&gt;entities/entity.ts -->
<g id="edge27" class="edge">
<title>entities/player&#45;character.ts&#45;&gt;entities/entity.ts</title>
<path fill="none" stroke="#757575" d="M412.57,-433.09C439.67,-438.55 473.66,-445.4 501.47,-451.01"/>
<polygon fill="#757575" stroke="#757575" points="500.92,-454.47 511.41,-453.01 502.3,-447.61 500.92,-454.47"/>
</g>
<!-- entities/index.ts -->
<g id="node21" class="node">
<title>entities/index.ts</title>
<path fill="none" stroke="#c6c5fe" d="M154.67,-452C154.67,-452 81.33,-452 81.33,-452 78.17,-452 75,-448.83 75,-445.67 75,-445.67 75,-439.33 75,-439.33 75,-436.17 78.17,-433 81.33,-433 81.33,-433 154.67,-433 154.67,-433 157.83,-433 161,-436.17 161,-439.33 161,-439.33 161,-445.67 161,-445.67 161,-448.83 157.83,-452 154.67,-452"/>
<text text-anchor="middle" x="118" y="-440" font-family="Arial" font-size="10.00" fill="#c6c5fe">entities/index.ts</text>
</g>
<!-- entities/index.ts&#45;&gt;entities/player&#45;character.ts -->
<g id="edge25" class="edge">
<title>entities/index.ts&#45;&gt;entities/player&#45;character.ts</title>
<path fill="none" stroke="#757575" d="M161.22,-439.21C196,-436.5 246.18,-432.6 287.8,-429.36"/>
<polygon fill="#757575" stroke="#757575" points="288.21,-432.83 297.91,-428.57 287.66,-425.86 288.21,-432.83"/>
</g>
<!-- entities/index.ts&#45;&gt;entities/entity.ts -->
<g id="edge24" class="edge">
<title>entities/index.ts&#45;&gt;entities/entity.ts</title>
<path fill="none" stroke="#757575" d="M161.06,-444.34C240.87,-447.83 414.1,-455.4 501.23,-459.21"/>
<polygon fill="#757575" stroke="#757575" points="501.28,-462.72 511.42,-459.66 501.58,-455.73 501.28,-462.72"/>
</g>
<!-- index.ts -->
<g id="node22" class="node">
<title>index.ts</title>
<path fill="none" stroke="#c6c5fe" d="M575.17,-301C575.17,-301 533.83,-301 533.83,-301 530.67,-301 527.5,-297.83 527.5,-294.67 527.5,-294.67 527.5,-288.33 527.5,-288.33 527.5,-285.17 530.67,-282 533.83,-282 533.83,-282 575.17,-282 575.17,-282 578.33,-282 581.5,-285.17 581.5,-288.33 581.5,-288.33 581.5,-294.67 581.5,-294.67 581.5,-297.83 578.33,-301 575.17,-301"/>
<text text-anchor="middle" x="554.5" y="-289" font-family="Arial" font-size="10.00" fill="#c6c5fe">index.ts</text>
</g>
<!-- index.ts&#45;&gt;game&#45;loop.ts -->
<g id="edge31" class="edge">
<title>index.ts&#45;&gt;game&#45;loop.ts</title>
<path fill="none" stroke="#757575" d="M576.42,-281.9C595.92,-273.26 625.95,-260.69 653,-252.5 665.72,-248.65 679.74,-245.33 692.69,-242.62"/>
<polygon fill="#757575" stroke="#757575" points="693.68,-245.99 702.79,-240.59 692.3,-239.13 693.68,-245.99"/>
</g>
<!-- index.ts&#45;&gt;runtime.ts -->
<g id="edge32" class="edge">
<title>index.ts&#45;&gt;runtime.ts</title>
<path fill="none" stroke="#757575" d="M581.61,-298.04C631.68,-309.18 743.56,-327.18 826,-289.5 850.93,-278.1 870.13,-251.96 880.99,-234.01"/>
<polygon fill="#757575" stroke="#757575" points="884.21,-235.44 886.16,-225.03 878.14,-231.95 884.21,-235.44"/>
</g>
<!-- index.ts&#45;&gt;time.ts -->
<g id="edge33" class="edge">
<title>index.ts&#45;&gt;time.ts</title>
<path fill="none" stroke="#757575" d="M579.54,-301.01C599.03,-308.33 627.38,-318.07 653,-323.5 723.44,-338.43 807.64,-344.14 854.65,-346.28"/>
<polygon fill="#757575" stroke="#757575" points="854.51,-349.78 864.65,-346.7 854.81,-342.78 854.51,-349.78"/>
</g>
<!-- world/world.ts -->
<g id="node23" class="node">
<title>world/world.ts</title>
<path fill="none" stroke="#c6c5fe" d="M771.67,-281C771.67,-281 707.33,-281 707.33,-281 704.17,-281 701,-277.83 701,-274.67 701,-274.67 701,-268.33 701,-268.33 701,-265.17 704.17,-262 707.33,-262 707.33,-262 771.67,-262 771.67,-262 774.83,-262 778,-265.17 778,-268.33 778,-268.33 778,-274.67 778,-274.67 778,-277.83 774.83,-281 771.67,-281"/>
<text text-anchor="middle" x="739.5" y="-269" font-family="Arial" font-size="10.00" fill="#c6c5fe">world/world.ts</text>
</g>
<!-- index.ts&#45;&gt;world/world.ts -->
<g id="edge34" class="edge">
<title>index.ts&#45;&gt;world/world.ts</title>
<path fill="none" stroke="#757575" d="M581.72,-288.63C610.14,-285.53 656.11,-280.5 690.93,-276.7"/>
<polygon fill="#757575" stroke="#757575" points="691.33,-280.18 700.89,-275.61 690.57,-273.22 691.33,-280.18"/>
</g>
<!-- world/world.ts&#45;&gt;runtime.ts -->
<g id="edge48" class="edge">
<title>world/world.ts&#45;&gt;runtime.ts</title>
<path fill="none" stroke="#757575" d="M778.25,-265.63C793.39,-262.63 810.82,-258.35 826,-252.5 840.87,-246.77 856.42,-238.03 868.58,-230.48"/>
<polygon fill="#757575" stroke="#757575" points="870.6,-233.34 877.15,-225.01 866.84,-227.44 870.6,-233.34"/>
</g>
<!-- polyfills/index.ts -->
<g id="node24" class="node">
<title>polyfills/index.ts</title>
<path fill="none" stroke="#c6c5fe" d="M155.17,-601C155.17,-601 80.83,-601 80.83,-601 77.67,-601 74.5,-597.83 74.5,-594.67 74.5,-594.67 74.5,-588.33 74.5,-588.33 74.5,-585.17 77.67,-582 80.83,-582 80.83,-582 155.17,-582 155.17,-582 158.33,-582 161.5,-585.17 161.5,-588.33 161.5,-588.33 161.5,-594.67 161.5,-594.67 161.5,-597.83 158.33,-601 155.17,-601"/>
<text text-anchor="middle" x="118" y="-589" font-family="Arial" font-size="10.00" fill="#c6c5fe">polyfills/index.ts</text>
</g>
<!-- polyfills/performance&#45;now.ts -->
<g id="node25" class="node">
<title>polyfills/performance&#45;now.ts</title>
<path fill="none" stroke="#cfffac" d="M426.67,-620C426.67,-620 301.33,-620 301.33,-620 298.17,-620 295,-616.83 295,-613.67 295,-613.67 295,-607.33 295,-607.33 295,-604.17 298.17,-601 301.33,-601 301.33,-601 426.67,-601 426.67,-601 429.83,-601 433,-604.17 433,-607.33 433,-607.33 433,-613.67 433,-613.67 433,-616.83 429.83,-620 426.67,-620"/>
<text text-anchor="middle" x="364" y="-608" font-family="Arial" font-size="10.00" fill="#cfffac">polyfills/performance&#45;now.ts</text>
</g>
<!-- polyfills/index.ts&#45;&gt;polyfills/performance&#45;now.ts -->
<g id="edge35" class="edge">
<title>polyfills/index.ts&#45;&gt;polyfills/performance&#45;now.ts</title>
<path fill="none" stroke="#757575" d="M161.5,-594.81C195.36,-597.45 243.69,-601.21 284.53,-604.39"/>
<polygon fill="#757575" stroke="#757575" points="284.5,-607.9 294.74,-605.18 285.04,-600.92 284.5,-607.9"/>
</g>
<!-- polyfills/requestAnimationFrame.ts -->
<g id="node26" class="node">
<title>polyfills/requestAnimationFrame.ts</title>
<path fill="none" stroke="#cfffac" d="M441.17,-583C441.17,-583 286.83,-583 286.83,-583 283.67,-583 280.5,-579.83 280.5,-576.67 280.5,-576.67 280.5,-570.33 280.5,-570.33 280.5,-567.17 283.67,-564 286.83,-564 286.83,-564 441.17,-564 441.17,-564 444.33,-564 447.5,-567.17 447.5,-570.33 447.5,-570.33 447.5,-576.67 447.5,-576.67 447.5,-579.83 444.33,-583 441.17,-583"/>
<text text-anchor="middle" x="364" y="-571" font-family="Arial" font-size="10.00" fill="#cfffac">polyfills/requestAnimationFrame.ts</text>
</g>
<!-- polyfills/index.ts&#45;&gt;polyfills/requestAnimationFrame.ts -->
<g id="edge36" class="edge">
<title>polyfills/index.ts&#45;&gt;polyfills/requestAnimationFrame.ts</title>
<path fill="none" stroke="#757575" d="M161.5,-588.36C191.39,-586.16 232.56,-583.12 269.9,-580.37"/>
<polygon fill="#757575" stroke="#757575" points="270.6,-583.83 280.31,-579.6 270.08,-576.85 270.6,-583.83"/>
</g>
<!-- state/__tests__/state.test.ts -->
<g id="node27" class="node">
<title>state/__tests__/state.test.ts</title>
<path fill="none" stroke="#c6c5fe" d="M181.67,-706C181.67,-706 54.33,-706 54.33,-706 51.17,-706 48,-702.83 48,-699.67 48,-699.67 48,-693.33 48,-693.33 48,-690.17 51.17,-687 54.33,-687 54.33,-687 181.67,-687 181.67,-687 184.83,-687 188,-690.17 188,-693.33 188,-693.33 188,-699.67 188,-699.67 188,-702.83 184.83,-706 181.67,-706"/>
<text text-anchor="middle" x="118" y="-694" font-family="Arial" font-size="10.00" fill="#c6c5fe">state/__tests__/state.test.ts</text>
</g>
<!-- state/game&#45;state.ts -->
<g id="node28" class="node">
<title>state/game&#45;state.ts</title>
<path fill="none" stroke="#c6c5fe" d="M408.17,-696C408.17,-696 319.83,-696 319.83,-696 316.67,-696 313.5,-692.83 313.5,-689.67 313.5,-689.67 313.5,-683.33 313.5,-683.33 313.5,-680.17 316.67,-677 319.83,-677 319.83,-677 408.17,-677 408.17,-677 411.33,-677 414.5,-680.17 414.5,-683.33 414.5,-683.33 414.5,-689.67 414.5,-689.67 414.5,-692.83 411.33,-696 408.17,-696"/>
<text text-anchor="middle" x="364" y="-684" font-family="Arial" font-size="10.00" fill="#c6c5fe">state/game&#45;state.ts</text>
</g>
<!-- state/__tests__/state.test.ts&#45;&gt;state/game&#45;state.ts -->
<g id="edge38" class="edge">
<title>state/__tests__/state.test.ts&#45;&gt;state/game&#45;state.ts</title>
<path fill="none" stroke="#757575" d="M188.27,-693.66C224.56,-692.17 268.56,-690.37 303.32,-688.95"/>
<polygon fill="#757575" stroke="#757575" points="303.49,-692.44 313.33,-688.54 303.2,-685.45 303.49,-692.44"/>
</g>
<!-- state/player&#45;state.ts -->
<g id="node29" class="node">
<title>state/player&#45;state.ts</title>
<path fill="none" stroke="#cfffac" d="M600.17,-696C600.17,-696 508.83,-696 508.83,-696 505.67,-696 502.5,-692.83 502.5,-689.67 502.5,-689.67 502.5,-683.33 502.5,-683.33 502.5,-680.17 505.67,-677 508.83,-677 508.83,-677 600.17,-677 600.17,-677 603.33,-677 606.5,-680.17 606.5,-683.33 606.5,-683.33 606.5,-689.67 606.5,-689.67 606.5,-692.83 603.33,-696 600.17,-696"/>
<text text-anchor="middle" x="554.5" y="-684" font-family="Arial" font-size="10.00" fill="#cfffac">state/player&#45;state.ts</text>
</g>
<!-- state/__tests__/state.test.ts&#45;&gt;state/player&#45;state.ts -->
<g id="edge39" class="edge">
<title>state/__tests__/state.test.ts&#45;&gt;state/player&#45;state.ts</title>
<path fill="none" stroke="#757575" d="M188.22,-702.78C256.45,-707.87 363.63,-712.96 456,-704.5 470.76,-703.15 486.63,-700.67 501.18,-697.97"/>
<polygon fill="#757575" stroke="#757575" points="501.86,-701.41 511.02,-696.08 500.54,-694.53 501.86,-701.41"/>
</g>
<!-- state/game&#45;state.ts&#45;&gt;state/player&#45;state.ts -->
<g id="edge40" class="edge">
<title>state/game&#45;state.ts&#45;&gt;state/player&#45;state.ts</title>
<path fill="none" stroke="#757575" d="M414.53,-686.5C438.3,-686.5 467.02,-686.5 492.17,-686.5"/>
<polygon fill="#757575" stroke="#757575" points="492.33,-690 502.33,-686.5 492.33,-683 492.33,-690"/>
</g>
<!-- state/index.ts -->
<g id="node30" class="node">
<title>state/index.ts</title>
<path fill="none" stroke="#c6c5fe" d="M149.67,-663C149.67,-663 86.33,-663 86.33,-663 83.17,-663 80,-659.83 80,-656.67 80,-656.67 80,-650.33 80,-650.33 80,-647.17 83.17,-644 86.33,-644 86.33,-644 149.67,-644 149.67,-644 152.83,-644 156,-647.17 156,-650.33 156,-650.33 156,-656.67 156,-656.67 156,-659.83 152.83,-663 149.67,-663"/>
<text text-anchor="middle" x="118" y="-651" font-family="Arial" font-size="10.00" fill="#c6c5fe">state/index.ts</text>
</g>
<!-- state/index.ts&#45;&gt;state/game&#45;state.ts -->
<g id="edge41" class="edge">
<title>state/index.ts&#45;&gt;state/game&#45;state.ts</title>
<path fill="none" stroke="#757575" d="M156.06,-658.51C195.1,-663.79 257.18,-672.19 303.18,-678.41"/>
<polygon fill="#757575" stroke="#757575" points="302.94,-681.91 313.32,-679.78 303.88,-674.97 302.94,-681.91"/>
</g>
<!-- state/index.ts&#45;&gt;state/player&#45;state.ts -->
<g id="edge42" class="edge">
<title>state/index.ts&#45;&gt;state/player&#45;state.ts</title>
<path fill="none" stroke="#757575" d="M156.05,-653.22C218.25,-653.15 347.54,-654.75 456,-667.5 471.03,-669.27 487.21,-672.05 501.99,-674.96"/>
<polygon fill="#757575" stroke="#757575" points="501.47,-678.42 511.96,-676.97 502.86,-671.56 501.47,-678.42"/>
</g>
<!-- test&#45;scene.ts -->
<g id="node31" class="node">
<title>test&#45;scene.ts</title>
<path fill="none" stroke="#cfffac" d="M148.67,-753C148.67,-753 87.33,-753 87.33,-753 84.17,-753 81,-749.83 81,-746.67 81,-746.67 81,-740.33 81,-740.33 81,-737.17 84.17,-734 87.33,-734 87.33,-734 148.67,-734 148.67,-734 151.83,-734 155,-737.17 155,-740.33 155,-740.33 155,-746.67 155,-746.67 155,-749.83 151.83,-753 148.67,-753"/>
<text text-anchor="middle" x="118" y="-741" font-family="Arial" font-size="10.00" fill="#cfffac">test&#45;scene.ts</text>
</g>
<!-- utils/index.ts -->
<g id="node32" class="node">
<title>utils/index.ts</title>
<path fill="none" stroke="#c6c5fe" d="M147.67,-810C147.67,-810 88.33,-810 88.33,-810 85.17,-810 82,-806.83 82,-803.67 82,-803.67 82,-797.33 82,-797.33 82,-794.17 85.17,-791 88.33,-791 88.33,-791 147.67,-791 147.67,-791 150.83,-791 154,-794.17 154,-797.33 154,-797.33 154,-803.67 154,-803.67 154,-806.83 150.83,-810 147.67,-810"/>
<text text-anchor="middle" x="118" y="-798" font-family="Arial" font-size="10.00" fill="#c6c5fe">utils/index.ts</text>
</g>
<!-- utils/object&#45;types.ts -->
<g id="node33" class="node">
<title>utils/object&#45;types.ts</title>
<path fill="none" stroke="#cfffac" d="M784.17,-829C784.17,-829 694.83,-829 694.83,-829 691.67,-829 688.5,-825.83 688.5,-822.67 688.5,-822.67 688.5,-816.33 688.5,-816.33 688.5,-813.17 691.67,-810 694.83,-810 694.83,-810 784.17,-810 784.17,-810 787.33,-810 790.5,-813.17 790.5,-816.33 790.5,-816.33 790.5,-822.67 790.5,-822.67 790.5,-825.83 787.33,-829 784.17,-829"/>
<text text-anchor="middle" x="739.5" y="-817" font-family="Arial" font-size="10.00" fill="#cfffac">utils/object&#45;types.ts</text>
</g>
<!-- utils/index.ts&#45;&gt;utils/object&#45;types.ts -->
<g id="edge43" class="edge">
<title>utils/index.ts&#45;&gt;utils/object&#45;types.ts</title>
<path fill="none" stroke="#757575" d="M154.13,-806.12C185.07,-810.76 231.39,-816.99 272,-819.5 417.6,-828.51 589.25,-824.84 678.21,-821.87"/>
<polygon fill="#757575" stroke="#757575" points="678.51,-825.37 688.39,-821.53 678.27,-818.37 678.51,-825.37"/>
</g>
<!-- utils/tilemap&#45;parsing.ts -->
<g id="node34" class="node">
<title>utils/tilemap&#45;parsing.ts</title>
<path fill="none" stroke="#c6c5fe" d="M415.17,-810C415.17,-810 312.83,-810 312.83,-810 309.67,-810 306.5,-806.83 306.5,-803.67 306.5,-803.67 306.5,-797.33 306.5,-797.33 306.5,-794.17 309.67,-791 312.83,-791 312.83,-791 415.17,-791 415.17,-791 418.33,-791 421.5,-794.17 421.5,-797.33 421.5,-797.33 421.5,-803.67 421.5,-803.67 421.5,-806.83 418.33,-810 415.17,-810"/>
<text text-anchor="middle" x="364" y="-798" font-family="Arial" font-size="10.00" fill="#c6c5fe">utils/tilemap&#45;parsing.ts</text>
</g>
<!-- utils/index.ts&#45;&gt;utils/tilemap&#45;parsing.ts -->
<g id="edge44" class="edge">
<title>utils/index.ts&#45;&gt;utils/tilemap&#45;parsing.ts</title>
<path fill="none" stroke="#757575" d="M154.22,-800.5C191.15,-800.5 250.08,-800.5 295.93,-800.5"/>
<polygon fill="#757575" stroke="#757575" points="296.09,-804 306.09,-800.5 296.09,-797 296.09,-804"/>
</g>
<!-- utils/types.ts -->
<g id="node35" class="node">
<title>utils/types.ts</title>
<path fill="none" stroke="#c6c5fe" d="M584.67,-810C584.67,-810 524.33,-810 524.33,-810 521.17,-810 518,-806.83 518,-803.67 518,-803.67 518,-797.33 518,-797.33 518,-794.17 521.17,-791 524.33,-791 524.33,-791 584.67,-791 584.67,-791 587.83,-791 591,-794.17 591,-797.33 591,-797.33 591,-803.67 591,-803.67 591,-806.83 587.83,-810 584.67,-810"/>
<text text-anchor="middle" x="554.5" y="-798" font-family="Arial" font-size="10.00" fill="#c6c5fe">utils/types.ts</text>
</g>
<!-- utils/index.ts&#45;&gt;utils/types.ts -->
<g id="edge45" class="edge">
<title>utils/index.ts&#45;&gt;utils/types.ts</title>
<path fill="none" stroke="#757575" d="M154.13,-794.88C185.07,-790.24 231.39,-784.01 272,-781.5 353.62,-776.45 374.6,-773.64 456,-781.5 473.06,-783.15 491.57,-786.38 507.83,-789.72"/>
<polygon fill="#757575" stroke="#757575" points="507.12,-793.14 517.63,-791.79 508.57,-786.3 507.12,-793.14"/>
</g>
<!-- utils/tilemap&#45;parsing.ts&#45;&gt;utils/types.ts -->
<g id="edge46" class="edge">
<title>utils/tilemap&#45;parsing.ts&#45;&gt;utils/types.ts</title>
<path fill="none" stroke="#757575" d="M421.56,-800.5C449.01,-800.5 481.56,-800.5 507.47,-800.5"/>
<polygon fill="#757575" stroke="#757575" points="507.77,-804 517.77,-800.5 507.77,-797 507.77,-804"/>
</g>
<!-- utils/types.ts&#45;&gt;utils/object&#45;types.ts -->
<g id="edge47" class="edge">
<title>utils/types.ts&#45;&gt;utils/object&#45;types.ts</title>
<path fill="none" stroke="#757575" d="M591.22,-804.21C615.97,-806.78 649.52,-810.26 678.36,-813.26"/>
<polygon fill="#757575" stroke="#757575" points="678.03,-816.74 688.33,-814.29 678.75,-809.78 678.03,-816.74"/>
</g>
<!-- utils/tilemap&#45;utils.test.ts -->
<g id="node36" class="node">
<title>utils/tilemap&#45;utils.test.ts</title>
<path fill="none" stroke="#cfffac" d="M172.17,-847C172.17,-847 63.83,-847 63.83,-847 60.67,-847 57.5,-843.83 57.5,-840.67 57.5,-840.67 57.5,-834.33 57.5,-834.33 57.5,-831.17 60.67,-828 63.83,-828 63.83,-828 172.17,-828 172.17,-828 175.33,-828 178.5,-831.17 178.5,-834.33 178.5,-834.33 178.5,-840.67 178.5,-840.67 178.5,-843.83 175.33,-847 172.17,-847"/>
<text text-anchor="middle" x="118" y="-835" font-family="Arial" font-size="10.00" fill="#cfffac">utils/tilemap&#45;utils.test.ts</text>
</g>
</g>
</svg>
