<?xml version="1.0" encoding="UTF-8" standalone="no"?>
<!DOCTYPE svg PUBLIC "-//W3C//DTD SVG 1.1//EN"
 "http://www.w3.org/Graphics/SVG/1.1/DTD/svg11.dtd">
<!-- Generated by graphviz version 2.44.1 (20200629.0846)
 -->
<!-- Title: G Pages: 1 -->
<svg width="1104pt" height="968pt"
 viewBox="0.00 0.00 1104.20 968.20" xmlns="http://www.w3.org/2000/svg" xmlns:xlink="http://www.w3.org/1999/xlink">
<g id="graph0" class="graph" transform="scale(1 1) rotate(0) translate(21.6 946.6)">
<title>G</title>
<polygon fill="#111111" stroke="transparent" points="-21.6,21.6 -21.6,-946.6 1082.6,-946.6 1082.6,21.6 -21.6,21.6"/>
<!-- __mocks__/game&#45;loop.ts -->
<g id="node1" class="node">
<title>__mocks__/game&#45;loop.ts</title>
<path fill="none" stroke="#cfffac" d="M174.67,-19C174.67,-19 61.33,-19 61.33,-19 58.17,-19 55,-15.83 55,-12.67 55,-12.67 55,-6.33 55,-6.33 55,-3.17 58.17,0 61.33,0 61.33,0 174.67,0 174.67,0 177.83,0 181,-3.17 181,-6.33 181,-6.33 181,-12.67 181,-12.67 181,-15.83 177.83,-19 174.67,-19"/>
<text text-anchor="middle" x="118" y="-7" font-family="Arial" font-size="10.00" fill="#cfffac">__mocks__/game&#45;loop.ts</text>
</g>
<!-- actors/directory.ts -->
<g id="node2" class="node">
<title>actors/directory.ts</title>
<path fill="none" stroke="#cfffac" d="M159.17,-56C159.17,-56 76.83,-56 76.83,-56 73.67,-56 70.5,-52.83 70.5,-49.67 70.5,-49.67 70.5,-43.33 70.5,-43.33 70.5,-40.17 73.67,-37 76.83,-37 76.83,-37 159.17,-37 159.17,-37 162.33,-37 165.5,-40.17 165.5,-43.33 165.5,-43.33 165.5,-49.67 165.5,-49.67 165.5,-52.83 162.33,-56 159.17,-56"/>
<text text-anchor="middle" x="118" y="-44" font-family="Arial" font-size="10.00" fill="#cfffac">actors/directory.ts</text>
</g>
<!-- actors/human&#45;player.ts -->
<g id="node3" class="node">
<title>actors/human&#45;player.ts</title>
<path fill="none" stroke="#cfffac" d="M415.67,-93C415.67,-93 312.33,-93 312.33,-93 309.17,-93 306,-89.83 306,-86.67 306,-86.67 306,-80.33 306,-80.33 306,-77.17 309.17,-74 312.33,-74 312.33,-74 415.67,-74 415.67,-74 418.83,-74 422,-77.17 422,-80.33 422,-80.33 422,-86.67 422,-86.67 422,-89.83 418.83,-93 415.67,-93"/>
<text text-anchor="middle" x="364" y="-81" font-family="Arial" font-size="10.00" fill="#cfffac">actors/human&#45;player.ts</text>
</g>
<!-- actors/index.ts -->
<g id="node4" class="node">
<title>actors/index.ts</title>
<path fill="none" stroke="#c6c5fe" d="M152.17,-93C152.17,-93 83.83,-93 83.83,-93 80.67,-93 77.5,-89.83 77.5,-86.67 77.5,-86.67 77.5,-80.33 77.5,-80.33 77.5,-77.17 80.67,-74 83.83,-74 83.83,-74 152.17,-74 152.17,-74 155.33,-74 158.5,-77.17 158.5,-80.33 158.5,-80.33 158.5,-86.67 158.5,-86.67 158.5,-89.83 155.33,-93 152.17,-93"/>
<text text-anchor="middle" x="118" y="-81" font-family="Arial" font-size="10.00" fill="#c6c5fe">actors/index.ts</text>
</g>
<!-- actors/index.ts&#45;&gt;actors/human&#45;player.ts -->
<g id="edge1" class="edge">
<title>actors/index.ts&#45;&gt;actors/human&#45;player.ts</title>
<path fill="none" stroke="#757575" d="M158.75,-83.5C195.83,-83.5 251.89,-83.5 295.9,-83.5"/>
<polygon fill="#757575" stroke="#757575" points="295.96,-87 305.96,-83.5 295.96,-80 295.96,-87"/>
</g>
<!-- components/index.ts -->
<g id="node5" class="node">
<title>components/index.ts</title>
<path fill="none" stroke="#c6c5fe" d="M411.17,-624C411.17,-624 316.83,-624 316.83,-624 313.67,-624 310.5,-620.83 310.5,-617.67 310.5,-617.67 310.5,-611.33 310.5,-611.33 310.5,-608.17 313.67,-605 316.83,-605 316.83,-605 411.17,-605 411.17,-605 414.33,-605 417.5,-608.17 417.5,-611.33 417.5,-611.33 417.5,-617.67 417.5,-617.67 417.5,-620.83 414.33,-624 411.17,-624"/>
<text text-anchor="middle" x="364" y="-612" font-family="Arial" font-size="10.00" fill="#c6c5fe">components/index.ts</text>
</g>
<!-- components/stateful&#45;components.ts -->
<g id="node6" class="node">
<title>components/stateful&#45;components.ts</title>
<path fill="none" stroke="#cfffac" d="M819.67,-605C819.67,-605 659.33,-605 659.33,-605 656.17,-605 653,-601.83 653,-598.67 653,-598.67 653,-592.33 653,-592.33 653,-589.17 656.17,-586 659.33,-586 659.33,-586 819.67,-586 819.67,-586 822.83,-586 826,-589.17 826,-592.33 826,-592.33 826,-598.67 826,-598.67 826,-601.83 822.83,-605 819.67,-605"/>
<text text-anchor="middle" x="739.5" y="-593" font-family="Arial" font-size="10.00" fill="#cfffac">components/stateful&#45;components.ts</text>
</g>
<!-- components/index.ts&#45;&gt;components/stateful&#45;components.ts -->
<g id="edge2" class="edge">
<title>components/index.ts&#45;&gt;components/stateful&#45;components.ts</title>
<path fill="none" stroke="#757575" d="M417.72,-611.82C475.99,-608.85 571.04,-604.02 642.58,-600.38"/>
<polygon fill="#757575" stroke="#757575" points="643.15,-603.86 652.96,-599.85 642.79,-596.86 643.15,-603.86"/>
</g>
<!-- components/status.ts -->
<g id="node7" class="node">
<title>components/status.ts</title>
<path fill="none" stroke="#c6c5fe" d="M603.67,-586C603.67,-586 505.33,-586 505.33,-586 502.17,-586 499,-582.83 499,-579.67 499,-579.67 499,-573.33 499,-573.33 499,-570.17 502.17,-567 505.33,-567 505.33,-567 603.67,-567 603.67,-567 606.83,-567 610,-570.17 610,-573.33 610,-573.33 610,-579.67 610,-579.67 610,-582.83 606.83,-586 603.67,-586"/>
<text text-anchor="middle" x="554.5" y="-574" font-family="Arial" font-size="10.00" fill="#c6c5fe">components/status.ts</text>
</g>
<!-- components/index.ts&#45;&gt;components/status.ts -->
<g id="edge3" class="edge">
<title>components/index.ts&#45;&gt;components/status.ts</title>
<path fill="none" stroke="#757575" d="M412.57,-604.91C438,-599.78 469.5,-593.43 496.27,-588.04"/>
<polygon fill="#757575" stroke="#757575" points="497.16,-591.43 506.28,-586.02 495.78,-584.57 497.16,-591.43"/>
</g>
<!-- components/transform.ts -->
<g id="node8" class="node">
<title>components/transform.ts</title>
<path fill="none" stroke="#cfffac" d="M610.67,-662C610.67,-662 498.33,-662 498.33,-662 495.17,-662 492,-658.83 492,-655.67 492,-655.67 492,-649.33 492,-649.33 492,-646.17 495.17,-643 498.33,-643 498.33,-643 610.67,-643 610.67,-643 613.83,-643 617,-646.17 617,-649.33 617,-649.33 617,-655.67 617,-655.67 617,-658.83 613.83,-662 610.67,-662"/>
<text text-anchor="middle" x="554.5" y="-650" font-family="Arial" font-size="10.00" fill="#cfffac">components/transform.ts</text>
</g>
<!-- components/index.ts&#45;&gt;components/transform.ts -->
<g id="edge4" class="edge">
<title>components/index.ts&#45;&gt;components/transform.ts</title>
<path fill="none" stroke="#757575" d="M413.66,-624.06C427.36,-626.77 442.26,-629.73 456,-632.5 469.36,-635.19 483.75,-638.12 497.26,-640.89"/>
<polygon fill="#757575" stroke="#757575" points="496.89,-644.39 507.39,-642.97 498.3,-637.53 496.89,-644.39"/>
</g>
<!-- components/status.ts&#45;&gt;components/stateful&#45;components.ts -->
<g id="edge5" class="edge">
<title>components/status.ts&#45;&gt;components/stateful&#45;components.ts</title>
<path fill="none" stroke="#757575" d="M610.41,-582.2C620.64,-583.26 631.61,-584.4 642.66,-585.55"/>
<polygon fill="#757575" stroke="#757575" points="642.51,-589.05 652.82,-586.6 643.24,-582.09 642.51,-589.05"/>
</g>
<!-- controllers/__tests__/server&#45;state&#45;controller.test.ts -->
<g id="node9" class="node">
<title>controllers/__tests__/server&#45;state&#45;controller.test.ts</title>
<path fill="none" stroke="#c6c5fe" d="M229.67,-170C229.67,-170 6.33,-170 6.33,-170 3.17,-170 0,-166.83 0,-163.67 0,-163.67 0,-157.33 0,-157.33 0,-154.17 3.17,-151 6.33,-151 6.33,-151 229.67,-151 229.67,-151 232.83,-151 236,-154.17 236,-157.33 236,-157.33 236,-163.67 236,-163.67 236,-166.83 232.83,-170 229.67,-170"/>
<text text-anchor="middle" x="118" y="-158" font-family="Arial" font-size="10.00" fill="#c6c5fe">controllers/__tests__/server&#45;state&#45;controller.test.ts</text>
</g>
<!-- controllers/server&#45;state&#45;controller.ts -->
<g id="node10" class="node">
<title>controllers/server&#45;state&#45;controller.ts</title>
<path fill="none" stroke="#c6c5fe" d="M442.67,-209C442.67,-209 285.33,-209 285.33,-209 282.17,-209 279,-205.83 279,-202.67 279,-202.67 279,-196.33 279,-196.33 279,-193.17 282.17,-190 285.33,-190 285.33,-190 442.67,-190 442.67,-190 445.83,-190 449,-193.17 449,-196.33 449,-196.33 449,-202.67 449,-202.67 449,-205.83 445.83,-209 442.67,-209"/>
<text text-anchor="middle" x="364" y="-197" font-family="Arial" font-size="10.00" fill="#c6c5fe">controllers/server&#45;state&#45;controller.ts</text>
</g>
<!-- controllers/__tests__/server&#45;state&#45;controller.test.ts&#45;&gt;controllers/server&#45;state&#45;controller.ts -->
<g id="edge6" class="edge">
<title>controllers/__tests__/server&#45;state&#45;controller.test.ts&#45;&gt;controllers/server&#45;state&#45;controller.ts</title>
<path fill="none" stroke="#757575" d="M178.69,-170.04C213.38,-175.59 257.26,-182.6 293.5,-188.39"/>
<polygon fill="#757575" stroke="#757575" points="293.08,-191.87 303.5,-189.99 294.18,-184.96 293.08,-191.87"/>
</g>
<!-- game&#45;loop.ts -->
<g id="node11" class="node">
<title>game&#45;loop.ts</title>
<path fill="none" stroke="#c6c5fe" d="M769.67,-207C769.67,-207 709.33,-207 709.33,-207 706.17,-207 703,-203.83 703,-200.67 703,-200.67 703,-194.33 703,-194.33 703,-191.17 706.17,-188 709.33,-188 709.33,-188 769.67,-188 769.67,-188 772.83,-188 776,-191.17 776,-194.33 776,-194.33 776,-200.67 776,-200.67 776,-203.83 772.83,-207 769.67,-207"/>
<text text-anchor="middle" x="739.5" y="-195" font-family="Arial" font-size="10.00" fill="#c6c5fe">game&#45;loop.ts</text>
</g>
<!-- controllers/__tests__/server&#45;state&#45;controller.test.ts&#45;&gt;game&#45;loop.ts -->
<g id="edge7" class="edge">
<title>controllers/__tests__/server&#45;state&#45;controller.test.ts&#45;&gt;game&#45;loop.ts</title>
<path fill="none" stroke="#757575" d="M236.36,-167.44C301.14,-171.28 383.01,-176.14 456,-180.5 539.4,-185.48 636.64,-191.35 692.55,-194.72"/>
<polygon fill="#757575" stroke="#757575" points="692.63,-198.23 702.82,-195.34 693.05,-191.25 692.63,-198.23"/>
</g>
<!-- controllers/controller.ts -->
<g id="node12" class="node">
<title>controllers/controller.ts</title>
<path fill="none" stroke="#c6c5fe" d="M606.17,-246C606.17,-246 502.83,-246 502.83,-246 499.67,-246 496.5,-242.83 496.5,-239.67 496.5,-239.67 496.5,-233.33 496.5,-233.33 496.5,-230.17 499.67,-227 502.83,-227 502.83,-227 606.17,-227 606.17,-227 609.33,-227 612.5,-230.17 612.5,-233.33 612.5,-233.33 612.5,-239.67 612.5,-239.67 612.5,-242.83 609.33,-246 606.17,-246"/>
<text text-anchor="middle" x="554.5" y="-234" font-family="Arial" font-size="10.00" fill="#c6c5fe">controllers/controller.ts</text>
</g>
<!-- controllers/server&#45;state&#45;controller.ts&#45;&gt;controllers/controller.ts -->
<g id="edge19" class="edge">
<title>controllers/server&#45;state&#45;controller.ts&#45;&gt;controllers/controller.ts</title>
<path fill="none" stroke="#757575" d="M413.54,-209.03C438.29,-213.89 468.59,-219.83 494.66,-224.95"/>
<polygon fill="#757575" stroke="#757575" points="494.31,-228.45 504.79,-226.94 495.66,-221.58 494.31,-228.45"/>
</g>
<!-- time.ts -->
<g id="node18" class="node">
<title>time.ts</title>
<path fill="none" stroke="#cfffac" d="M912.67,-207C912.67,-207 871.33,-207 871.33,-207 868.17,-207 865,-203.83 865,-200.67 865,-200.67 865,-194.33 865,-194.33 865,-191.17 868.17,-188 871.33,-188 871.33,-188 912.67,-188 912.67,-188 915.83,-188 919,-191.17 919,-194.33 919,-194.33 919,-200.67 919,-200.67 919,-203.83 915.83,-207 912.67,-207"/>
<text text-anchor="middle" x="892" y="-195" font-family="Arial" font-size="10.00" fill="#cfffac">time.ts</text>
</g>
<!-- controllers/server&#45;state&#45;controller.ts&#45;&gt;time.ts -->
<g id="edge20" class="edge">
<title>controllers/server&#45;state&#45;controller.ts&#45;&gt;time.ts</title>
<path fill="none" stroke="#757575" d="M422.83,-189.96C510.49,-177.06 682.05,-157.89 826,-178.5 835.57,-179.87 845.7,-182.32 855.05,-185.02"/>
<polygon fill="#757575" stroke="#757575" points="854.22,-188.43 864.81,-188 856.27,-181.73 854.22,-188.43"/>
</g>
<!-- runtime.ts -->
<g id="node17" class="node">
<title>runtime.ts</title>
<path fill="none" stroke="#c6c5fe" d="M915.67,-359C915.67,-359 868.33,-359 868.33,-359 865.17,-359 862,-355.83 862,-352.67 862,-352.67 862,-346.33 862,-346.33 862,-343.17 865.17,-340 868.33,-340 868.33,-340 915.67,-340 915.67,-340 918.83,-340 922,-343.17 922,-346.33 922,-346.33 922,-352.67 922,-352.67 922,-355.83 918.83,-359 915.67,-359"/>
<text text-anchor="middle" x="892" y="-347" font-family="Arial" font-size="10.00" fill="#c6c5fe">runtime.ts</text>
</g>
<!-- game&#45;loop.ts&#45;&gt;runtime.ts -->
<g id="edge30" class="edge">
<title>game&#45;loop.ts&#45;&gt;runtime.ts</title>
<path fill="none" stroke="#757575" d="M758.99,-207.07C777.37,-217.19 805.7,-234.44 826,-254.5 849.58,-277.8 869.89,-310.78 881.27,-331.12"/>
<polygon fill="#757575" stroke="#757575" points="878.25,-332.9 886.11,-340 884.39,-329.54 878.25,-332.9"/>
</g>
<!-- game&#45;loop.ts&#45;&gt;time.ts -->
<g id="edge31" class="edge">
<title>game&#45;loop.ts&#45;&gt;time.ts</title>
<path fill="none" stroke="#757575" d="M776.17,-197.5C799.79,-197.5 830.69,-197.5 854.49,-197.5"/>
<polygon fill="#757575" stroke="#757575" points="854.54,-201 864.54,-197.5 854.54,-194 854.54,-201"/>
</g>
<!-- controllers/controller.ts&#45;&gt;game&#45;loop.ts -->
<g id="edge8" class="edge">
<title>controllers/controller.ts&#45;&gt;game&#45;loop.ts</title>
<path fill="none" stroke="#757575" d="M600.27,-226.96C628.35,-220.97 664.46,-213.28 692.73,-207.25"/>
<polygon fill="#757575" stroke="#757575" points="693.72,-210.62 702.77,-205.12 692.26,-203.78 693.72,-210.62"/>
</g>
<!-- controllers/index.ts -->
<g id="node13" class="node">
<title>controllers/index.ts</title>
<path fill="none" stroke="#c6c5fe" d="M161.17,-265C161.17,-265 74.83,-265 74.83,-265 71.67,-265 68.5,-261.83 68.5,-258.67 68.5,-258.67 68.5,-252.33 68.5,-252.33 68.5,-249.17 71.67,-246 74.83,-246 74.83,-246 161.17,-246 161.17,-246 164.33,-246 167.5,-249.17 167.5,-252.33 167.5,-252.33 167.5,-258.67 167.5,-258.67 167.5,-261.83 164.33,-265 161.17,-265"/>
<text text-anchor="middle" x="118" y="-253" font-family="Arial" font-size="10.00" fill="#c6c5fe">controllers/index.ts</text>
</g>
<!-- controllers/index.ts&#45;&gt;controllers/server&#45;state&#45;controller.ts -->
<g id="edge12" class="edge">
<title>controllers/index.ts&#45;&gt;controllers/server&#45;state&#45;controller.ts</title>
<path fill="none" stroke="#757575" d="M155.36,-245.95C186.29,-237.94 231.93,-226.43 272,-217.5 281.78,-215.32 292.19,-213.13 302.34,-211.08"/>
<polygon fill="#757575" stroke="#757575" points="303.25,-214.46 312.37,-209.07 301.88,-207.6 303.25,-214.46"/>
</g>
<!-- controllers/index.ts&#45;&gt;controllers/controller.ts -->
<g id="edge9" class="edge">
<title>controllers/index.ts&#45;&gt;controllers/controller.ts</title>
<path fill="none" stroke="#757575" d="M167.68,-258.09C233.32,-260.95 353.76,-264.01 456,-254.5 470.76,-253.13 486.63,-250.64 501.18,-247.94"/>
<polygon fill="#757575" stroke="#757575" points="501.86,-251.38 511.02,-246.06 500.54,-244.5 501.86,-251.38"/>
</g>
<!-- controllers/movement&#45;test&#45;controller.ts -->
<g id="node14" class="node">
<title>controllers/movement&#45;test&#45;controller.ts</title>
<path fill="none" stroke="#c6c5fe" d="M449.67,-379C449.67,-379 278.33,-379 278.33,-379 275.17,-379 272,-375.83 272,-372.67 272,-372.67 272,-366.33 272,-366.33 272,-363.17 275.17,-360 278.33,-360 278.33,-360 449.67,-360 449.67,-360 452.83,-360 456,-363.17 456,-366.33 456,-366.33 456,-372.67 456,-372.67 456,-375.83 452.83,-379 449.67,-379"/>
<text text-anchor="middle" x="364" y="-367" font-family="Arial" font-size="10.00" fill="#c6c5fe">controllers/movement&#45;test&#45;controller.ts</text>
</g>
<!-- controllers/index.ts&#45;&gt;controllers/movement&#45;test&#45;controller.ts -->
<g id="edge10" class="edge">
<title>controllers/index.ts&#45;&gt;controllers/movement&#45;test&#45;controller.ts</title>
<path fill="none" stroke="#757575" d="M139.38,-265.02C182.44,-285.14 282.83,-332.04 333.14,-355.55"/>
<polygon fill="#757575" stroke="#757575" points="331.96,-358.86 342.5,-359.92 334.92,-352.52 331.96,-358.86"/>
</g>
<!-- controllers/rect&#45;controller.ts -->
<g id="node15" class="node">
<title>controllers/rect&#45;controller.ts</title>
<path fill="none" stroke="#c6c5fe" d="M425.17,-246C425.17,-246 302.83,-246 302.83,-246 299.67,-246 296.5,-242.83 296.5,-239.67 296.5,-239.67 296.5,-233.33 296.5,-233.33 296.5,-230.17 299.67,-227 302.83,-227 302.83,-227 425.17,-227 425.17,-227 428.33,-227 431.5,-230.17 431.5,-233.33 431.5,-233.33 431.5,-239.67 431.5,-239.67 431.5,-242.83 428.33,-246 425.17,-246"/>
<text text-anchor="middle" x="364" y="-234" font-family="Arial" font-size="10.00" fill="#c6c5fe">controllers/rect&#45;controller.ts</text>
</g>
<!-- controllers/index.ts&#45;&gt;controllers/rect&#45;controller.ts -->
<g id="edge11" class="edge">
<title>controllers/index.ts&#45;&gt;controllers/rect&#45;controller.ts</title>
<path fill="none" stroke="#757575" d="M167.79,-251.7C201.62,-249.07 247.37,-245.5 286.08,-242.49"/>
<polygon fill="#757575" stroke="#757575" points="286.57,-245.96 296.27,-241.7 286.03,-238.98 286.57,-245.96"/>
</g>
<!-- controllers/movement&#45;test&#45;controller.ts&#45;&gt;controllers/controller.ts -->
<g id="edge13" class="edge">
<title>controllers/movement&#45;test&#45;controller.ts&#45;&gt;controllers/controller.ts</title>
<path fill="none" stroke="#757575" d="M413.41,-359.86C428.48,-354.92 444.22,-347.53 456,-336.5 485.05,-309.3 462.1,-280.77 492,-254.5 493.35,-253.31 494.77,-252.21 496.26,-251.17"/>
<polygon fill="#757575" stroke="#757575" points="498.36,-254 505.31,-246 494.89,-247.92 498.36,-254"/>
</g>
<!-- interop&#45;interfaces.ts -->
<g id="node16" class="node">
<title>interop&#45;interfaces.ts</title>
<path fill="none" stroke="#cfffac" d="M1054.67,-359C1054.67,-359 964.33,-359 964.33,-359 961.17,-359 958,-355.83 958,-352.67 958,-352.67 958,-346.33 958,-346.33 958,-343.17 961.17,-340 964.33,-340 964.33,-340 1054.67,-340 1054.67,-340 1057.83,-340 1061,-343.17 1061,-346.33 1061,-346.33 1061,-352.67 1061,-352.67 1061,-355.83 1057.83,-359 1054.67,-359"/>
<text text-anchor="middle" x="1009.5" y="-347" font-family="Arial" font-size="10.00" fill="#cfffac">interop&#45;interfaces.ts</text>
</g>
<!-- controllers/movement&#45;test&#45;controller.ts&#45;&gt;interop&#45;interfaces.ts -->
<g id="edge14" class="edge">
<title>controllers/movement&#45;test&#45;controller.ts&#45;&gt;interop&#45;interfaces.ts</title>
<path fill="none" stroke="#757575" d="M413.94,-379.04C437.45,-383.15 466.08,-387.47 492,-389.5 682.78,-404.43 733.91,-402.73 922,-367.5 932.4,-365.55 943.47,-363.35 954.1,-361.17"/>
<polygon fill="#757575" stroke="#757575" points="955.04,-364.55 964.12,-359.09 953.62,-357.69 955.04,-364.55"/>
</g>
<!-- controllers/movement&#45;test&#45;controller.ts&#45;&gt;runtime.ts -->
<g id="edge15" class="edge">
<title>controllers/movement&#45;test&#45;controller.ts&#45;&gt;runtime.ts</title>
<path fill="none" stroke="#757575" d="M456.3,-373.64C549.55,-376.63 698.35,-377.93 826,-363.5 834.4,-362.55 843.31,-361 851.76,-359.27"/>
<polygon fill="#757575" stroke="#757575" points="852.73,-362.64 861.76,-357.09 851.24,-355.8 852.73,-362.64"/>
</g>
<!-- controllers/rect&#45;controller.ts&#45;&gt;controllers/controller.ts -->
<g id="edge16" class="edge">
<title>controllers/rect&#45;controller.ts&#45;&gt;controllers/controller.ts</title>
<path fill="none" stroke="#757575" d="M431.72,-236.5C449.34,-236.5 468.37,-236.5 486.02,-236.5"/>
<polygon fill="#757575" stroke="#757575" points="486.24,-240 496.24,-236.5 486.24,-233 486.24,-240"/>
</g>
<!-- controllers/rect&#45;controller.ts&#45;&gt;interop&#45;interfaces.ts -->
<g id="edge17" class="edge">
<title>controllers/rect&#45;controller.ts&#45;&gt;interop&#45;interfaces.ts</title>
<path fill="none" stroke="#757575" d="M411.08,-226.97C489.35,-210.82 640.99,-179.7 653,-178.5 771.97,-166.64 820.15,-115.88 922,-178.5 976.71,-212.14 998.09,-292.27 1005.3,-329.66"/>
<polygon fill="#757575" stroke="#757575" points="1001.91,-330.56 1007.11,-339.79 1008.8,-329.33 1001.91,-330.56"/>
</g>
<!-- controllers/rect&#45;controller.ts&#45;&gt;runtime.ts -->
<g id="edge18" class="edge">
<title>controllers/rect&#45;controller.ts&#45;&gt;runtime.ts</title>
<path fill="none" stroke="#757575" d="M384.38,-246.18C408.93,-258.13 452.77,-278.49 492,-291.5 561.78,-314.64 580.39,-317.95 653,-329.5 722.48,-340.56 804.4,-345.74 851.76,-347.98"/>
<polygon fill="#757575" stroke="#757575" points="851.74,-351.49 861.89,-348.44 852.06,-344.49 851.74,-351.49"/>
</g>
<!-- runtime.ts&#45;&gt;interop&#45;interfaces.ts -->
<g id="edge38" class="edge">
<title>runtime.ts&#45;&gt;interop&#45;interfaces.ts</title>
<path fill="none" stroke="#757575" d="M922.15,-349.5C930.01,-349.5 938.82,-349.5 947.73,-349.5"/>
<polygon fill="#757575" stroke="#757575" points="947.79,-353 957.79,-349.5 947.79,-346 947.79,-353"/>
</g>
<!-- controllers/server&#45;state&#45;reporter&#45;controller.ts -->
<g id="node19" class="node">
<title>controllers/server&#45;state&#45;reporter&#45;controller.ts</title>
<path fill="none" stroke="#c6c5fe" d="M214.67,-383C214.67,-383 21.33,-383 21.33,-383 18.17,-383 15,-379.83 15,-376.67 15,-376.67 15,-370.33 15,-370.33 15,-367.17 18.17,-364 21.33,-364 21.33,-364 214.67,-364 214.67,-364 217.83,-364 221,-367.17 221,-370.33 221,-370.33 221,-376.67 221,-376.67 221,-379.83 217.83,-383 214.67,-383"/>
<text text-anchor="middle" x="118" y="-371" font-family="Arial" font-size="10.00" fill="#c6c5fe">controllers/server&#45;state&#45;reporter&#45;controller.ts</text>
</g>
<!-- controllers/server&#45;state&#45;reporter&#45;controller.ts&#45;&gt;controllers/server&#45;state&#45;controller.ts -->
<g id="edge22" class="edge">
<title>controllers/server&#45;state&#45;reporter&#45;controller.ts&#45;&gt;controllers/server&#45;state&#45;controller.ts</title>
<path fill="none" stroke="#757575" d="M132.76,-363.83C155.86,-347.15 203.15,-311.15 236,-273.5 255.45,-251.21 247.54,-234.14 272,-217.5 274.16,-216.03 276.4,-214.68 278.72,-213.43"/>
<polygon fill="#757575" stroke="#757575" points="280.38,-216.52 287.97,-209.12 277.43,-210.17 280.38,-216.52"/>
</g>
<!-- controllers/server&#45;state&#45;reporter&#45;controller.ts&#45;&gt;controllers/controller.ts -->
<g id="edge21" class="edge">
<title>controllers/server&#45;state&#45;reporter&#45;controller.ts&#45;&gt;controllers/controller.ts</title>
<path fill="none" stroke="#757575" d="M158.66,-363.98C222.44,-348.16 351.24,-314.03 456,-272.5 472.63,-265.91 475.35,-261.04 492,-254.5 496.86,-252.59 502,-250.78 507.16,-249.09"/>
<polygon fill="#757575" stroke="#757575" points="508.54,-252.33 517.04,-246 506.45,-245.65 508.54,-252.33"/>
</g>
<!-- controllers/server&#45;state&#45;reporter&#45;controller.ts&#45;&gt;runtime.ts -->
<g id="edge24" class="edge">
<title>controllers/server&#45;state&#45;reporter&#45;controller.ts&#45;&gt;runtime.ts</title>
<path fill="none" stroke="#757575" d="M209.52,-383.02C230.04,-384.84 251.75,-386.48 272,-387.5 517.92,-399.85 588.55,-448.68 826,-383.5 841.31,-379.3 844.92,-373.68 861.84,-363.93"/>
<polygon fill="#757575" stroke="#757575" points="863.53,-366.99 870.64,-359.14 860.19,-360.84 863.53,-366.99"/>
</g>
<!-- entities/player&#45;character.ts -->
<g id="node20" class="node">
<title>entities/player&#45;character.ts</title>
<path fill="none" stroke="#c6c5fe" d="M423.67,-511C423.67,-511 304.33,-511 304.33,-511 301.17,-511 298,-507.83 298,-504.67 298,-504.67 298,-498.33 298,-498.33 298,-495.17 301.17,-492 304.33,-492 304.33,-492 423.67,-492 423.67,-492 426.83,-492 430,-495.17 430,-498.33 430,-498.33 430,-504.67 430,-504.67 430,-507.83 426.83,-511 423.67,-511"/>
<text text-anchor="middle" x="364" y="-499" font-family="Arial" font-size="10.00" fill="#c6c5fe">entities/player&#45;character.ts</text>
</g>
<!-- controllers/server&#45;state&#45;reporter&#45;controller.ts&#45;&gt;entities/player&#45;character.ts -->
<g id="edge23" class="edge">
<title>controllers/server&#45;state&#45;reporter&#45;controller.ts&#45;&gt;entities/player&#45;character.ts</title>
<path fill="none" stroke="#757575" d="M137.34,-383.12C179.92,-405.46 285.68,-460.94 335.81,-487.24"/>
<polygon fill="#757575" stroke="#757575" points="334.3,-490.4 344.78,-491.94 337.55,-484.2 334.3,-490.4"/>
</g>
<!-- entities/player&#45;character.ts&#45;&gt;components/status.ts -->
<g id="edge27" class="edge">
<title>entities/player&#45;character.ts&#45;&gt;components/status.ts</title>
<path fill="none" stroke="#757575" d="M384.94,-511.15C409.7,-522.94 453.4,-543.08 492,-557.5 497.91,-559.71 504.2,-561.86 510.42,-563.89"/>
<polygon fill="#757575" stroke="#757575" points="509.48,-567.26 520.07,-566.94 511.59,-560.59 509.48,-567.26"/>
</g>
<!-- entities/player&#45;character.ts&#45;&gt;runtime.ts -->
<g id="edge29" class="edge">
<title>entities/player&#45;character.ts&#45;&gt;runtime.ts</title>
<path fill="none" stroke="#757575" d="M430.18,-508.12C524.53,-514.49 701.46,-514.07 826,-439.5 853.71,-422.91 873,-389.47 883.01,-368.36"/>
<polygon fill="#757575" stroke="#757575" points="886.26,-369.66 887.18,-359.11 879.88,-366.78 886.26,-369.66"/>
</g>
<!-- entities/entity.ts -->
<g id="node21" class="node">
<title>entities/entity.ts</title>
<path fill="none" stroke="#cfffac" d="M591.17,-549C591.17,-549 517.83,-549 517.83,-549 514.67,-549 511.5,-545.83 511.5,-542.67 511.5,-542.67 511.5,-536.33 511.5,-536.33 511.5,-533.17 514.67,-530 517.83,-530 517.83,-530 591.17,-530 591.17,-530 594.33,-530 597.5,-533.17 597.5,-536.33 597.5,-536.33 597.5,-542.67 597.5,-542.67 597.5,-545.83 594.33,-549 591.17,-549"/>
<text text-anchor="middle" x="554.5" y="-537" font-family="Arial" font-size="10.00" fill="#cfffac">entities/entity.ts</text>
</g>
<!-- entities/player&#45;character.ts&#45;&gt;entities/entity.ts -->
<g id="edge28" class="edge">
<title>entities/player&#45;character.ts&#45;&gt;entities/entity.ts</title>
<path fill="none" stroke="#757575" d="M412.57,-511.09C439.67,-516.55 473.66,-523.4 501.47,-529.01"/>
<polygon fill="#757575" stroke="#757575" points="500.92,-532.47 511.41,-531.01 502.3,-525.61 500.92,-532.47"/>
</g>
<!-- entities/index.ts -->
<g id="node22" class="node">
<title>entities/index.ts</title>
<path fill="none" stroke="#c6c5fe" d="M154.67,-530C154.67,-530 81.33,-530 81.33,-530 78.17,-530 75,-526.83 75,-523.67 75,-523.67 75,-517.33 75,-517.33 75,-514.17 78.17,-511 81.33,-511 81.33,-511 154.67,-511 154.67,-511 157.83,-511 161,-514.17 161,-517.33 161,-517.33 161,-523.67 161,-523.67 161,-526.83 157.83,-530 154.67,-530"/>
<text text-anchor="middle" x="118" y="-518" font-family="Arial" font-size="10.00" fill="#c6c5fe">entities/index.ts</text>
</g>
<!-- entities/index.ts&#45;&gt;entities/player&#45;character.ts -->
<g id="edge26" class="edge">
<title>entities/index.ts&#45;&gt;entities/player&#45;character.ts</title>
<path fill="none" stroke="#757575" d="M161.22,-517.21C196,-514.5 246.18,-510.6 287.8,-507.36"/>
<polygon fill="#757575" stroke="#757575" points="288.21,-510.83 297.91,-506.57 287.66,-503.86 288.21,-510.83"/>
</g>
<!-- entities/index.ts&#45;&gt;entities/entity.ts -->
<g id="edge25" class="edge">
<title>entities/index.ts&#45;&gt;entities/entity.ts</title>
<path fill="none" stroke="#757575" d="M161.06,-522.34C240.87,-525.83 414.1,-533.4 501.23,-537.21"/>
<polygon fill="#757575" stroke="#757575" points="501.28,-540.72 511.42,-537.66 501.58,-533.73 501.28,-540.72"/>
</g>
<!-- index.ts -->
<g id="node23" class="node">
<title>index.ts</title>
<path fill="none" stroke="#c6c5fe" d="M575.17,-283C575.17,-283 533.83,-283 533.83,-283 530.67,-283 527.5,-279.83 527.5,-276.67 527.5,-276.67 527.5,-270.33 527.5,-270.33 527.5,-267.17 530.67,-264 533.83,-264 533.83,-264 575.17,-264 575.17,-264 578.33,-264 581.5,-267.17 581.5,-270.33 581.5,-270.33 581.5,-276.67 581.5,-276.67 581.5,-279.83 578.33,-283 575.17,-283"/>
<text text-anchor="middle" x="554.5" y="-271" font-family="Arial" font-size="10.00" fill="#c6c5fe">index.ts</text>
</g>
<!-- index.ts&#45;&gt;game&#45;loop.ts -->
<g id="edge32" class="edge">
<title>index.ts&#45;&gt;game&#45;loop.ts</title>
<path fill="none" stroke="#757575" d="M581.68,-268.14C593.01,-265.14 606.14,-260.73 617,-254.5 635.83,-243.7 634.03,-232.05 653,-221.5 665.24,-214.69 679.56,-209.69 692.94,-206.07"/>
<polygon fill="#757575" stroke="#757575" points="694.09,-209.4 702.94,-203.57 692.39,-202.6 694.09,-209.4"/>
</g>
<!-- index.ts&#45;&gt;runtime.ts -->
<g id="edge33" class="edge">
<title>index.ts&#45;&gt;runtime.ts</title>
<path fill="none" stroke="#757575" d="M581.55,-279.4C640.12,-292.67 782.52,-324.93 851.82,-340.63"/>
<polygon fill="#757575" stroke="#757575" points="851.37,-344.11 861.9,-342.91 852.92,-337.28 851.37,-344.11"/>
</g>
<!-- index.ts&#45;&gt;time.ts -->
<g id="edge34" class="edge">
<title>index.ts&#45;&gt;time.ts</title>
<path fill="none" stroke="#757575" d="M581.73,-268.41C630.18,-258.89 736.91,-237.37 826,-215.5 835.44,-213.18 845.59,-210.48 854.99,-207.88"/>
<polygon fill="#757575" stroke="#757575" points="856.16,-211.19 864.84,-205.12 854.27,-204.45 856.16,-211.19"/>
</g>
<!-- world/world.ts -->
<g id="node24" class="node">
<title>world/world.ts</title>
<path fill="none" stroke="#c6c5fe" d="M771.67,-283C771.67,-283 707.33,-283 707.33,-283 704.17,-283 701,-279.83 701,-276.67 701,-276.67 701,-270.33 701,-270.33 701,-267.17 704.17,-264 707.33,-264 707.33,-264 771.67,-264 771.67,-264 774.83,-264 778,-267.17 778,-270.33 778,-270.33 778,-276.67 778,-276.67 778,-279.83 774.83,-283 771.67,-283"/>
<text text-anchor="middle" x="739.5" y="-271" font-family="Arial" font-size="10.00" fill="#c6c5fe">world/world.ts</text>
</g>
<!-- index.ts&#45;&gt;world/world.ts -->
<g id="edge35" class="edge">
<title>index.ts&#45;&gt;world/world.ts</title>
<path fill="none" stroke="#757575" d="M581.72,-273.5C610.02,-273.5 655.71,-273.5 690.48,-273.5"/>
<polygon fill="#757575" stroke="#757575" points="690.89,-277 700.89,-273.5 690.89,-270 690.89,-277"/>
</g>
<!-- world/world.ts&#45;&gt;runtime.ts -->
<g id="edge49" class="edge">
<title>world/world.ts&#45;&gt;runtime.ts</title>
<path fill="none" stroke="#757575" d="M778.33,-280.67C793.65,-284.44 811.19,-289.9 826,-297.5 843.93,-306.7 861.61,-321.31 874,-332.7"/>
<polygon fill="#757575" stroke="#757575" points="871.65,-335.3 881.32,-339.64 876.47,-330.22 871.65,-335.3"/>
</g>
<!-- polyfills/index.ts -->
<g id="node25" class="node">
<title>polyfills/index.ts</title>
<path fill="none" stroke="#c6c5fe" d="M155.17,-680C155.17,-680 80.83,-680 80.83,-680 77.67,-680 74.5,-676.83 74.5,-673.67 74.5,-673.67 74.5,-667.33 74.5,-667.33 74.5,-664.17 77.67,-661 80.83,-661 80.83,-661 155.17,-661 155.17,-661 158.33,-661 161.5,-664.17 161.5,-667.33 161.5,-667.33 161.5,-673.67 161.5,-673.67 161.5,-676.83 158.33,-680 155.17,-680"/>
<text text-anchor="middle" x="118" y="-668" font-family="Arial" font-size="10.00" fill="#c6c5fe">polyfills/index.ts</text>
</g>
<!-- polyfills/performance&#45;now.ts -->
<g id="node26" class="node">
<title>polyfills/performance&#45;now.ts</title>
<path fill="none" stroke="#cfffac" d="M426.67,-698C426.67,-698 301.33,-698 301.33,-698 298.17,-698 295,-694.83 295,-691.67 295,-691.67 295,-685.33 295,-685.33 295,-682.17 298.17,-679 301.33,-679 301.33,-679 426.67,-679 426.67,-679 429.83,-679 433,-682.17 433,-685.33 433,-685.33 433,-691.67 433,-691.67 433,-694.83 429.83,-698 426.67,-698"/>
<text text-anchor="middle" x="364" y="-686" font-family="Arial" font-size="10.00" fill="#cfffac">polyfills/performance&#45;now.ts</text>
</g>
<!-- polyfills/index.ts&#45;&gt;polyfills/performance&#45;now.ts -->
<g id="edge36" class="edge">
<title>polyfills/index.ts&#45;&gt;polyfills/performance&#45;now.ts</title>
<path fill="none" stroke="#757575" d="M161.5,-673.64C195.36,-676.13 243.69,-679.7 284.53,-682.71"/>
<polygon fill="#757575" stroke="#757575" points="284.51,-686.22 294.74,-683.46 285.02,-679.24 284.51,-686.22"/>
</g>
<!-- polyfills/requestAnimationFrame.ts -->
<g id="node27" class="node">
<title>polyfills/requestAnimationFrame.ts</title>
<path fill="none" stroke="#cfffac" d="M441.17,-661C441.17,-661 286.83,-661 286.83,-661 283.67,-661 280.5,-657.83 280.5,-654.67 280.5,-654.67 280.5,-648.33 280.5,-648.33 280.5,-645.17 283.67,-642 286.83,-642 286.83,-642 441.17,-642 441.17,-642 444.33,-642 447.5,-645.17 447.5,-648.33 447.5,-648.33 447.5,-654.67 447.5,-654.67 447.5,-657.83 444.33,-661 441.17,-661"/>
<text text-anchor="middle" x="364" y="-649" font-family="Arial" font-size="10.00" fill="#cfffac">polyfills/requestAnimationFrame.ts</text>
</g>
<!-- polyfills/index.ts&#45;&gt;polyfills/requestAnimationFrame.ts -->
<g id="edge37" class="edge">
<title>polyfills/index.ts&#45;&gt;polyfills/requestAnimationFrame.ts</title>
<path fill="none" stroke="#757575" d="M161.5,-667.19C191.39,-664.86 232.56,-661.66 269.9,-658.75"/>
<polygon fill="#757575" stroke="#757575" points="270.61,-662.2 280.31,-657.94 270.07,-655.23 270.61,-662.2"/>
</g>
<!-- state/__tests__/state.test.ts -->
<g id="node28" class="node">
<title>state/__tests__/state.test.ts</title>
<path fill="none" stroke="#c6c5fe" d="M181.67,-812C181.67,-812 54.33,-812 54.33,-812 51.17,-812 48,-808.83 48,-805.67 48,-805.67 48,-799.33 48,-799.33 48,-796.17 51.17,-793 54.33,-793 54.33,-793 181.67,-793 181.67,-793 184.83,-793 188,-796.17 188,-799.33 188,-799.33 188,-805.67 188,-805.67 188,-808.83 184.83,-812 181.67,-812"/>
<text text-anchor="middle" x="118" y="-800" font-family="Arial" font-size="10.00" fill="#c6c5fe">state/__tests__/state.test.ts</text>
</g>
<!-- state/game&#45;state.ts -->
<g id="node29" class="node">
<title>state/game&#45;state.ts</title>
<path fill="none" stroke="#c6c5fe" d="M408.17,-774C408.17,-774 319.83,-774 319.83,-774 316.67,-774 313.5,-770.83 313.5,-767.67 313.5,-767.67 313.5,-761.33 313.5,-761.33 313.5,-758.17 316.67,-755 319.83,-755 319.83,-755 408.17,-755 408.17,-755 411.33,-755 414.5,-758.17 414.5,-761.33 414.5,-761.33 414.5,-767.67 414.5,-767.67 414.5,-770.83 411.33,-774 408.17,-774"/>
<text text-anchor="middle" x="364" y="-762" font-family="Arial" font-size="10.00" fill="#c6c5fe">state/game&#45;state.ts</text>
</g>
<!-- state/__tests__/state.test.ts&#45;&gt;state/game&#45;state.ts -->
<g id="edge39" class="edge">
<title>state/__tests__/state.test.ts&#45;&gt;state/game&#45;state.ts</title>
<path fill="none" stroke="#757575" d="M180.26,-792.96C217.81,-787.11 265.66,-779.66 302.98,-773.85"/>
<polygon fill="#757575" stroke="#757575" points="303.87,-777.25 313.21,-772.25 302.79,-770.33 303.87,-777.25"/>
</g>
<!-- state/player&#45;state.ts -->
<g id="node30" class="node">
<title>state/player&#45;state.ts</title>
<path fill="none" stroke="#cfffac" d="M600.17,-774C600.17,-774 508.83,-774 508.83,-774 505.67,-774 502.5,-770.83 502.5,-767.67 502.5,-767.67 502.5,-761.33 502.5,-761.33 502.5,-758.17 505.67,-755 508.83,-755 508.83,-755 600.17,-755 600.17,-755 603.33,-755 606.5,-758.17 606.5,-761.33 606.5,-761.33 606.5,-767.67 606.5,-767.67 606.5,-770.83 603.33,-774 600.17,-774"/>
<text text-anchor="middle" x="554.5" y="-762" font-family="Arial" font-size="10.00" fill="#cfffac">state/player&#45;state.ts</text>
</g>
<!-- state/__tests__/state.test.ts&#45;&gt;state/player&#45;state.ts -->
<g id="edge40" class="edge">
<title>state/__tests__/state.test.ts&#45;&gt;state/player&#45;state.ts</title>
<path fill="none" stroke="#757575" d="M188.28,-800.88C256.57,-798.7 363.78,-793.71 456,-782.5 469.62,-780.85 484.2,-778.48 497.84,-776"/>
<polygon fill="#757575" stroke="#757575" points="498.86,-779.37 508.04,-774.09 497.57,-772.49 498.86,-779.37"/>
</g>
<!-- state/game&#45;state.ts&#45;&gt;state/player&#45;state.ts -->
<g id="edge41" class="edge">
<title>state/game&#45;state.ts&#45;&gt;state/player&#45;state.ts</title>
<path fill="none" stroke="#757575" d="M414.53,-764.5C438.3,-764.5 467.02,-764.5 492.17,-764.5"/>
<polygon fill="#757575" stroke="#757575" points="492.33,-768 502.33,-764.5 492.33,-761 492.33,-768"/>
</g>
<!-- state/index.ts -->
<g id="node31" class="node">
<title>state/index.ts</title>
<path fill="none" stroke="#c6c5fe" d="M149.67,-755C149.67,-755 86.33,-755 86.33,-755 83.17,-755 80,-751.83 80,-748.67 80,-748.67 80,-742.33 80,-742.33 80,-739.17 83.17,-736 86.33,-736 86.33,-736 149.67,-736 149.67,-736 152.83,-736 156,-739.17 156,-742.33 156,-742.33 156,-748.67 156,-748.67 156,-751.83 152.83,-755 149.67,-755"/>
<text text-anchor="middle" x="118" y="-743" font-family="Arial" font-size="10.00" fill="#c6c5fe">state/index.ts</text>
</g>
<!-- state/index.ts&#45;&gt;state/game&#45;state.ts -->
<g id="edge42" class="edge">
<title>state/index.ts&#45;&gt;state/game&#45;state.ts</title>
<path fill="none" stroke="#757575" d="M156.06,-748.39C195.1,-751.43 257.18,-756.26 303.18,-759.84"/>
<polygon fill="#757575" stroke="#757575" points="303.08,-763.34 313.32,-760.63 303.62,-756.37 303.08,-763.34"/>
</g>
<!-- state/index.ts&#45;&gt;state/player&#45;state.ts -->
<g id="edge43" class="edge">
<title>state/index.ts&#45;&gt;state/player&#45;state.ts</title>
<path fill="none" stroke="#757575" d="M156.01,-743.18C218.17,-739.81 347.39,-735.02 456,-745.5 471.77,-747.02 488.78,-749.9 504.11,-752.96"/>
<polygon fill="#757575" stroke="#757575" points="503.4,-756.39 513.91,-754.99 504.82,-749.54 503.4,-756.39"/>
</g>
<!-- test&#45;scene.ts -->
<g id="node32" class="node">
<title>test&#45;scene.ts</title>
<path fill="none" stroke="#cfffac" d="M148.67,-850C148.67,-850 87.33,-850 87.33,-850 84.17,-850 81,-846.83 81,-843.67 81,-843.67 81,-837.33 81,-837.33 81,-834.17 84.17,-831 87.33,-831 87.33,-831 148.67,-831 148.67,-831 151.83,-831 155,-834.17 155,-837.33 155,-837.33 155,-843.67 155,-843.67 155,-846.83 151.83,-850 148.67,-850"/>
<text text-anchor="middle" x="118" y="-838" font-family="Arial" font-size="10.00" fill="#cfffac">test&#45;scene.ts</text>
</g>
<!-- utils/index.ts -->
<g id="node33" class="node">
<title>utils/index.ts</title>
<path fill="none" stroke="#c6c5fe" d="M147.67,-888C147.67,-888 88.33,-888 88.33,-888 85.17,-888 82,-884.83 82,-881.67 82,-881.67 82,-875.33 82,-875.33 82,-872.17 85.17,-869 88.33,-869 88.33,-869 147.67,-869 147.67,-869 150.83,-869 154,-872.17 154,-875.33 154,-875.33 154,-881.67 154,-881.67 154,-884.83 150.83,-888 147.67,-888"/>
<text text-anchor="middle" x="118" y="-876" font-family="Arial" font-size="10.00" fill="#c6c5fe">utils/index.ts</text>
</g>
<!-- utils/object&#45;types.ts -->
<g id="node34" class="node">
<title>utils/object&#45;types.ts</title>
<path fill="none" stroke="#cfffac" d="M784.17,-907C784.17,-907 694.83,-907 694.83,-907 691.67,-907 688.5,-903.83 688.5,-900.67 688.5,-900.67 688.5,-894.33 688.5,-894.33 688.5,-891.17 691.67,-888 694.83,-888 694.83,-888 784.17,-888 784.17,-888 787.33,-888 790.5,-891.17 790.5,-894.33 790.5,-894.33 790.5,-900.67 790.5,-900.67 790.5,-903.83 787.33,-907 784.17,-907"/>
<text text-anchor="middle" x="739.5" y="-895" font-family="Arial" font-size="10.00" fill="#cfffac">utils/object&#45;types.ts</text>
</g>
<!-- utils/index.ts&#45;&gt;utils/object&#45;types.ts -->
<g id="edge44" class="edge">
<title>utils/index.ts&#45;&gt;utils/object&#45;types.ts</title>
<path fill="none" stroke="#757575" d="M154.13,-884.12C185.07,-888.76 231.39,-894.99 272,-897.5 417.6,-906.51 589.25,-902.84 678.21,-899.87"/>
<polygon fill="#757575" stroke="#757575" points="678.51,-903.37 688.39,-899.53 678.27,-896.37 678.51,-903.37"/>
</g>
<!-- utils/tilemap&#45;parsing.ts -->
<g id="node35" class="node">
<title>utils/tilemap&#45;parsing.ts</title>
<path fill="none" stroke="#c6c5fe" d="M415.17,-888C415.17,-888 312.83,-888 312.83,-888 309.67,-888 306.5,-884.83 306.5,-881.67 306.5,-881.67 306.5,-875.33 306.5,-875.33 306.5,-872.17 309.67,-869 312.83,-869 312.83,-869 415.17,-869 415.17,-869 418.33,-869 421.5,-872.17 421.5,-875.33 421.5,-875.33 421.5,-881.67 421.5,-881.67 421.5,-884.83 418.33,-888 415.17,-888"/>
<text text-anchor="middle" x="364" y="-876" font-family="Arial" font-size="10.00" fill="#c6c5fe">utils/tilemap&#45;parsing.ts</text>
</g>
<!-- utils/index.ts&#45;&gt;utils/tilemap&#45;parsing.ts -->
<g id="edge45" class="edge">
<title>utils/index.ts&#45;&gt;utils/tilemap&#45;parsing.ts</title>
<path fill="none" stroke="#757575" d="M154.22,-878.5C191.15,-878.5 250.08,-878.5 295.93,-878.5"/>
<polygon fill="#757575" stroke="#757575" points="296.09,-882 306.09,-878.5 296.09,-875 296.09,-882"/>
</g>
<!-- utils/types.ts -->
<g id="node36" class="node">
<title>utils/types.ts</title>
<path fill="none" stroke="#c6c5fe" d="M584.67,-888C584.67,-888 524.33,-888 524.33,-888 521.17,-888 518,-884.83 518,-881.67 518,-881.67 518,-875.33 518,-875.33 518,-872.17 521.17,-869 524.33,-869 524.33,-869 584.67,-869 584.67,-869 587.83,-869 591,-872.17 591,-875.33 591,-875.33 591,-881.67 591,-881.67 591,-884.83 587.83,-888 584.67,-888"/>
<text text-anchor="middle" x="554.5" y="-876" font-family="Arial" font-size="10.00" fill="#c6c5fe">utils/types.ts</text>
</g>
<!-- utils/index.ts&#45;&gt;utils/types.ts -->
<g id="edge46" class="edge">
<title>utils/index.ts&#45;&gt;utils/types.ts</title>
<path fill="none" stroke="#757575" d="M154.13,-872.88C185.07,-868.24 231.39,-862.01 272,-859.5 353.62,-854.45 374.6,-851.64 456,-859.5 473.06,-861.15 491.57,-864.38 507.83,-867.72"/>
<polygon fill="#757575" stroke="#757575" points="507.12,-871.14 517.63,-869.79 508.57,-864.3 507.12,-871.14"/>
</g>
<!-- utils/tilemap&#45;parsing.ts&#45;&gt;utils/types.ts -->
<g id="edge47" class="edge">
<title>utils/tilemap&#45;parsing.ts&#45;&gt;utils/types.ts</title>
<path fill="none" stroke="#757575" d="M421.56,-878.5C449.01,-878.5 481.56,-878.5 507.47,-878.5"/>
<polygon fill="#757575" stroke="#757575" points="507.77,-882 517.77,-878.5 507.77,-875 507.77,-882"/>
</g>
<!-- utils/types.ts&#45;&gt;utils/object&#45;types.ts -->
<g id="edge48" class="edge">
<title>utils/types.ts&#45;&gt;utils/object&#45;types.ts</title>
<path fill="none" stroke="#757575" d="M591.22,-882.21C615.97,-884.78 649.52,-888.26 678.36,-891.26"/>
<polygon fill="#757575" stroke="#757575" points="678.03,-894.74 688.33,-892.29 678.75,-887.78 678.03,-894.74"/>
</g>
<!-- utils/tilemap&#45;utils.test.ts -->
<g id="node37" class="node">
<title>utils/tilemap&#45;utils.test.ts</title>
<path fill="none" stroke="#cfffac" d="M172.17,-925C172.17,-925 63.83,-925 63.83,-925 60.67,-925 57.5,-921.83 57.5,-918.67 57.5,-918.67 57.5,-912.33 57.5,-912.33 57.5,-909.17 60.67,-906 63.83,-906 63.83,-906 172.17,-906 172.17,-906 175.33,-906 178.5,-909.17 178.5,-912.33 178.5,-912.33 178.5,-918.67 178.5,-918.67 178.5,-921.83 175.33,-925 172.17,-925"/>
<text text-anchor="middle" x="118" y="-913" font-family="Arial" font-size="10.00" fill="#cfffac">utils/tilemap&#45;utils.test.ts</text>
</g>
</g>
</svg>
