<?xml version="1.0" encoding="UTF-8" standalone="no"?>
<!DOCTYPE svg PUBLIC "-//W3C//DTD SVG 1.1//EN"
 "http://www.w3.org/Graphics/SVG/1.1/DTD/svg11.dtd">
<!-- Generated by graphviz version 2.44.1 (20200629.0846)
 -->
<!-- Title: G Pages: 1 -->
<svg width="324pt" height="136pt"
 viewBox="0.00 0.00 324.20 136.20" xmlns="http://www.w3.org/2000/svg" xmlns:xlink="http://www.w3.org/1999/xlink">
<g id="graph0" class="graph" transform="scale(1 1) rotate(0) translate(21.6 114.6)">
<title>G</title>
<polygon fill="#111111" stroke="transparent" points="-21.6,21.6 -21.6,-114.6 302.6,-114.6 302.6,21.6 -21.6,21.6"/>
<!-- index.ts -->
<g id="node1" class="node">
<title>index.ts</title>
<path fill="none" stroke="#cfffac" d="M86.17,-19C86.17,-19 44.83,-19 44.83,-19 41.67,-19 38.5,-15.83 38.5,-12.67 38.5,-12.67 38.5,-6.33 38.5,-6.33 38.5,-3.17 41.67,0 44.83,0 44.83,0 86.17,0 86.17,0 89.33,0 92.5,-3.17 92.5,-6.33 92.5,-6.33 92.5,-12.67 92.5,-12.67 92.5,-15.83 89.33,-19 86.17,-19"/>
<text text-anchor="middle" x="65.5" y="-7" font-family="Arial" font-size="10.00" fill="#cfffac">index.ts</text>
</g>
<!-- sandbox/index.ts -->
<g id="node2" class="node">
<title>sandbox/index.ts</title>
<path fill="none" stroke="#c6c5fe" d="M104.67,-56C104.67,-56 26.33,-56 26.33,-56 23.17,-56 20,-52.83 20,-49.67 20,-49.67 20,-43.33 20,-43.33 20,-40.17 23.17,-37 26.33,-37 26.33,-37 104.67,-37 104.67,-37 107.83,-37 111,-40.17 111,-43.33 111,-43.33 111,-49.67 111,-49.67 111,-52.83 107.83,-56 104.67,-56"/>
<text text-anchor="middle" x="65.5" y="-44" font-family="Arial" font-size="10.00" fill="#c6c5fe">sandbox/index.ts</text>
</g>
<!-- sandbox/sandbox.json -->
<g id="node3" class="node">
<title>sandbox/sandbox.json</title>
<path fill="none" stroke="#cfffac" d="M274.67,-56C274.67,-56 173.33,-56 173.33,-56 170.17,-56 167,-52.83 167,-49.67 167,-49.67 167,-43.33 167,-43.33 167,-40.17 170.17,-37 173.33,-37 173.33,-37 274.67,-37 274.67,-37 277.83,-37 281,-40.17 281,-43.33 281,-43.33 281,-49.67 281,-49.67 281,-52.83 277.83,-56 274.67,-56"/>
<text text-anchor="middle" x="224" y="-44" font-family="Arial" font-size="10.00" fill="#cfffac">sandbox/sandbox.json</text>
</g>
<!-- sandbox/index.ts&#45;&gt;sandbox/sandbox.json -->
<g id="edge1" class="edge">
<title>sandbox/index.ts&#45;&gt;sandbox/sandbox.json</title>
<path fill="none" stroke="#757575" d="M111.35,-46.5C125.44,-46.5 141.31,-46.5 156.56,-46.5"/>
<polygon fill="#757575" stroke="#757575" points="157,-50 167,-46.5 157,-43 157,-50"/>
</g>
<!-- sandbox/object&#45;types.json -->
<g id="node4" class="node">
<title>sandbox/object&#45;types.json</title>
<path fill="none" stroke="#cfffac" d="M124.67,-93C124.67,-93 6.33,-93 6.33,-93 3.17,-93 0,-89.83 0,-86.67 0,-86.67 0,-80.33 0,-80.33 0,-77.17 3.17,-74 6.33,-74 6.33,-74 124.67,-74 124.67,-74 127.83,-74 131,-77.17 131,-80.33 131,-80.33 131,-86.67 131,-86.67 131,-89.83 127.83,-93 124.67,-93"/>
<text text-anchor="middle" x="65.5" y="-81" font-family="Arial" font-size="10.00" fill="#cfffac">sandbox/object&#45;types.json</text>
</g>
</g>
</svg>
